G04 EAGLE Gerber RS-274X export*
G75*
%MOMM*%
%FSLAX34Y34*%
%LPD*%
%INBottom Copper*%
%IPPOS*%
%AMOC8*
5,1,8,0,0,1.08239X$1,22.5*%
G01*
%ADD10C,1.320800*%
%ADD11C,1.524000*%
%ADD12P,1.429621X8X292.500000*%
%ADD13P,1.429621X8X22.500000*%
%ADD14P,1.429621X8X202.500000*%
%ADD15C,0.406400*%
%ADD16C,0.254000*%
%ADD17C,0.906400*%
%ADD18C,0.812800*%

G36*
X731733Y10163D02*
X731733Y10163D01*
X731778Y10162D01*
X737351Y10436D01*
X737364Y10438D01*
X737377Y10438D01*
X737536Y10459D01*
X748467Y12633D01*
X748509Y12647D01*
X748553Y12653D01*
X748705Y12705D01*
X759002Y16971D01*
X759041Y16993D01*
X759083Y17007D01*
X759222Y17088D01*
X768489Y23280D01*
X768522Y23309D01*
X768560Y23331D01*
X768681Y23438D01*
X776562Y31319D01*
X776589Y31354D01*
X776622Y31383D01*
X776720Y31511D01*
X782912Y40778D01*
X782932Y40818D01*
X782958Y40853D01*
X783029Y40998D01*
X787295Y51295D01*
X787306Y51337D01*
X787325Y51377D01*
X787367Y51533D01*
X789541Y62464D01*
X789542Y62477D01*
X789546Y62489D01*
X789564Y62649D01*
X789838Y68222D01*
X789836Y68239D01*
X789839Y68284D01*
X789839Y531716D01*
X789837Y531733D01*
X789838Y531778D01*
X789564Y537351D01*
X789562Y537364D01*
X789562Y537377D01*
X789541Y537536D01*
X787367Y548467D01*
X787353Y548509D01*
X787347Y548553D01*
X787295Y548705D01*
X783029Y559002D01*
X783023Y559014D01*
X783022Y559016D01*
X783016Y559027D01*
X783007Y559041D01*
X782993Y559083D01*
X782912Y559222D01*
X776720Y568489D01*
X776691Y568522D01*
X776669Y568560D01*
X776562Y568681D01*
X768681Y576562D01*
X768646Y576589D01*
X768617Y576622D01*
X768489Y576720D01*
X759222Y582912D01*
X759182Y582932D01*
X759147Y582958D01*
X759002Y583029D01*
X748705Y587295D01*
X748663Y587306D01*
X748623Y587325D01*
X748467Y587367D01*
X737536Y589541D01*
X737523Y589542D01*
X737511Y589546D01*
X737351Y589564D01*
X731778Y589838D01*
X731761Y589836D01*
X731716Y589839D01*
X68284Y589839D01*
X68267Y589837D01*
X68222Y589838D01*
X62649Y589564D01*
X62636Y589562D01*
X62623Y589562D01*
X62464Y589541D01*
X51533Y587367D01*
X51491Y587353D01*
X51447Y587347D01*
X51295Y587295D01*
X40998Y583029D01*
X40959Y583007D01*
X40917Y582993D01*
X40778Y582912D01*
X31511Y576720D01*
X31478Y576691D01*
X31440Y576669D01*
X31319Y576562D01*
X23438Y568681D01*
X23411Y568646D01*
X23378Y568617D01*
X23280Y568489D01*
X17088Y559222D01*
X17068Y559182D01*
X17042Y559147D01*
X16971Y559002D01*
X12705Y548705D01*
X12694Y548663D01*
X12675Y548623D01*
X12633Y548467D01*
X10459Y537536D01*
X10458Y537523D01*
X10454Y537511D01*
X10436Y537351D01*
X10162Y531778D01*
X10164Y531761D01*
X10161Y531716D01*
X10161Y68284D01*
X10163Y68267D01*
X10162Y68222D01*
X10436Y62649D01*
X10438Y62636D01*
X10438Y62623D01*
X10459Y62464D01*
X12633Y51533D01*
X12647Y51491D01*
X12653Y51447D01*
X12705Y51295D01*
X16971Y40998D01*
X16993Y40959D01*
X17007Y40917D01*
X17088Y40778D01*
X23280Y31511D01*
X23309Y31478D01*
X23331Y31440D01*
X23438Y31319D01*
X31319Y23438D01*
X31354Y23411D01*
X31383Y23378D01*
X31511Y23280D01*
X40778Y17088D01*
X40818Y17068D01*
X40853Y17042D01*
X40998Y16971D01*
X51295Y12705D01*
X51337Y12694D01*
X51377Y12675D01*
X51533Y12633D01*
X62464Y10459D01*
X62477Y10458D01*
X62489Y10454D01*
X62649Y10436D01*
X68222Y10162D01*
X68239Y10164D01*
X68284Y10161D01*
X731716Y10161D01*
X731733Y10163D01*
G37*
%LPC*%
G36*
X147852Y390027D02*
X147852Y390027D01*
X142197Y395682D01*
X142197Y396550D01*
X142182Y396668D01*
X142175Y396787D01*
X142162Y396825D01*
X142157Y396866D01*
X142114Y396976D01*
X142077Y397089D01*
X142055Y397124D01*
X142040Y397161D01*
X141971Y397257D01*
X141907Y397358D01*
X141877Y397386D01*
X141854Y397419D01*
X141762Y397495D01*
X141675Y397576D01*
X141640Y397596D01*
X141609Y397621D01*
X141501Y397672D01*
X141397Y397730D01*
X141357Y397740D01*
X141321Y397757D01*
X141204Y397779D01*
X141089Y397809D01*
X141029Y397813D01*
X141009Y397817D01*
X140988Y397815D01*
X140928Y397819D01*
X133611Y397819D01*
X133582Y397816D01*
X133553Y397818D01*
X133425Y397796D01*
X133296Y397779D01*
X133268Y397769D01*
X133239Y397763D01*
X133121Y397710D01*
X133000Y397662D01*
X132976Y397645D01*
X132949Y397633D01*
X132848Y397552D01*
X132743Y397476D01*
X132724Y397453D01*
X132701Y397434D01*
X132623Y397331D01*
X132540Y397231D01*
X132527Y397204D01*
X132510Y397180D01*
X132439Y397036D01*
X132365Y396857D01*
X129363Y393855D01*
X125442Y392231D01*
X105958Y392231D01*
X102037Y393855D01*
X99035Y396857D01*
X97411Y400778D01*
X97411Y405022D01*
X99035Y408943D01*
X102037Y411945D01*
X105958Y413569D01*
X125442Y413569D01*
X129363Y411945D01*
X132365Y408943D01*
X132439Y408764D01*
X132453Y408739D01*
X132462Y408711D01*
X132532Y408601D01*
X132596Y408488D01*
X132617Y408467D01*
X132633Y408442D01*
X132727Y408353D01*
X132817Y408260D01*
X132843Y408244D01*
X132864Y408224D01*
X132978Y408161D01*
X133089Y408093D01*
X133117Y408085D01*
X133143Y408070D01*
X133268Y408038D01*
X133393Y408000D01*
X133422Y407998D01*
X133451Y407991D01*
X133611Y407981D01*
X145974Y407981D01*
X146072Y407993D01*
X146171Y407996D01*
X146230Y408013D01*
X146290Y408021D01*
X146382Y408057D01*
X146477Y408085D01*
X146529Y408115D01*
X146585Y408138D01*
X146665Y408196D01*
X146751Y408246D01*
X146826Y408312D01*
X146843Y408324D01*
X146850Y408334D01*
X146872Y408352D01*
X147852Y409333D01*
X153792Y409333D01*
X153890Y409345D01*
X153989Y409348D01*
X154047Y409365D01*
X154107Y409373D01*
X154199Y409409D01*
X154294Y409437D01*
X154347Y409467D01*
X154403Y409490D01*
X154483Y409548D01*
X154568Y409598D01*
X154644Y409664D01*
X154660Y409676D01*
X154668Y409686D01*
X154689Y409704D01*
X174548Y429563D01*
X174608Y429641D01*
X174676Y429713D01*
X174705Y429766D01*
X174742Y429814D01*
X174782Y429905D01*
X174830Y429992D01*
X174845Y430050D01*
X174869Y430106D01*
X174884Y430204D01*
X174909Y430300D01*
X174915Y430400D01*
X174919Y430420D01*
X174917Y430432D01*
X174919Y430460D01*
X174919Y483511D01*
X175693Y485378D01*
X195262Y504947D01*
X197129Y505721D01*
X202678Y505721D01*
X202796Y505736D01*
X202915Y505743D01*
X202953Y505756D01*
X202994Y505761D01*
X203104Y505804D01*
X203217Y505841D01*
X203252Y505863D01*
X203289Y505878D01*
X203385Y505947D01*
X203486Y506011D01*
X203514Y506041D01*
X203547Y506064D01*
X203623Y506156D01*
X203704Y506243D01*
X203724Y506278D01*
X203749Y506309D01*
X203800Y506417D01*
X203858Y506521D01*
X203868Y506561D01*
X203885Y506597D01*
X203907Y506714D01*
X203937Y506829D01*
X203941Y506889D01*
X203945Y506909D01*
X203943Y506930D01*
X203947Y506990D01*
X203947Y509164D01*
X205417Y512712D01*
X208132Y515427D01*
X211680Y516897D01*
X215520Y516897D01*
X219068Y515427D01*
X221783Y512712D01*
X223253Y509164D01*
X223253Y492116D01*
X221783Y488568D01*
X220452Y487237D01*
X220392Y487159D01*
X220324Y487087D01*
X220295Y487034D01*
X220258Y486986D01*
X220218Y486895D01*
X220170Y486809D01*
X220155Y486750D01*
X220131Y486694D01*
X220116Y486596D01*
X220091Y486501D01*
X220085Y486401D01*
X220081Y486380D01*
X220083Y486368D01*
X220081Y486340D01*
X220081Y483850D01*
X220096Y483732D01*
X220103Y483613D01*
X220116Y483575D01*
X220121Y483534D01*
X220164Y483424D01*
X220201Y483311D01*
X220223Y483276D01*
X220238Y483239D01*
X220307Y483143D01*
X220371Y483042D01*
X220401Y483014D01*
X220424Y482981D01*
X220516Y482905D01*
X220603Y482824D01*
X220638Y482804D01*
X220669Y482779D01*
X220777Y482728D01*
X220881Y482670D01*
X220921Y482660D01*
X220957Y482643D01*
X221074Y482621D01*
X221189Y482591D01*
X221249Y482587D01*
X221269Y482583D01*
X221290Y482585D01*
X221350Y482581D01*
X235051Y482581D01*
X235120Y482589D01*
X235190Y482588D01*
X235277Y482609D01*
X235366Y482621D01*
X235431Y482646D01*
X235499Y482663D01*
X235578Y482705D01*
X235662Y482738D01*
X235718Y482779D01*
X235780Y482811D01*
X235847Y482872D01*
X235919Y482924D01*
X235964Y482978D01*
X236015Y483025D01*
X236065Y483100D01*
X236122Y483169D01*
X236152Y483233D01*
X236190Y483291D01*
X236219Y483376D01*
X236258Y483457D01*
X236271Y483526D01*
X236293Y483592D01*
X236301Y483681D01*
X236317Y483769D01*
X236313Y483839D01*
X236319Y483909D01*
X236303Y483997D01*
X236298Y484087D01*
X236276Y484153D01*
X236264Y484222D01*
X236227Y484304D01*
X236200Y484389D01*
X236162Y484448D01*
X236134Y484512D01*
X236078Y484582D01*
X236030Y484658D01*
X235979Y484706D01*
X235935Y484760D01*
X235863Y484815D01*
X235798Y484876D01*
X235737Y484910D01*
X235681Y484952D01*
X235536Y485023D01*
X233532Y485853D01*
X230817Y488568D01*
X229347Y492116D01*
X229347Y509164D01*
X230817Y512712D01*
X231351Y513246D01*
X231424Y513340D01*
X231503Y513430D01*
X231521Y513466D01*
X231546Y513497D01*
X231593Y513607D01*
X231648Y513713D01*
X231656Y513752D01*
X231672Y513789D01*
X231691Y513907D01*
X231717Y514023D01*
X231716Y514063D01*
X231722Y514103D01*
X231711Y514222D01*
X231708Y514341D01*
X231696Y514380D01*
X231693Y514420D01*
X231652Y514532D01*
X231619Y514646D01*
X231599Y514681D01*
X231585Y514719D01*
X231518Y514818D01*
X231458Y514920D01*
X231418Y514966D01*
X231406Y514982D01*
X231391Y514996D01*
X231351Y515041D01*
X226083Y520310D01*
X226005Y520370D01*
X225932Y520438D01*
X225879Y520467D01*
X225832Y520504D01*
X225741Y520544D01*
X225654Y520592D01*
X225595Y520607D01*
X225540Y520631D01*
X225442Y520646D01*
X225346Y520671D01*
X225246Y520677D01*
X225226Y520681D01*
X225213Y520679D01*
X225185Y520681D01*
X177435Y520681D01*
X177336Y520669D01*
X177237Y520666D01*
X177179Y520649D01*
X177119Y520641D01*
X177027Y520605D01*
X176932Y520577D01*
X176880Y520547D01*
X176823Y520524D01*
X176743Y520466D01*
X176658Y520416D01*
X176583Y520350D01*
X176566Y520338D01*
X176558Y520328D01*
X176537Y520310D01*
X159690Y503463D01*
X159630Y503385D01*
X159562Y503312D01*
X159533Y503259D01*
X159496Y503212D01*
X159456Y503121D01*
X159408Y503034D01*
X159393Y502975D01*
X159369Y502920D01*
X159354Y502822D01*
X159329Y502726D01*
X159323Y502626D01*
X159319Y502606D01*
X159321Y502593D01*
X159319Y502565D01*
X159319Y441350D01*
X159334Y441232D01*
X159341Y441113D01*
X159354Y441075D01*
X159359Y441034D01*
X159402Y440924D01*
X159439Y440811D01*
X159461Y440776D01*
X159476Y440739D01*
X159545Y440643D01*
X159609Y440542D01*
X159639Y440514D01*
X159662Y440481D01*
X159754Y440405D01*
X159841Y440324D01*
X159876Y440304D01*
X159907Y440279D01*
X160015Y440228D01*
X160119Y440170D01*
X160159Y440160D01*
X160195Y440143D01*
X160312Y440121D01*
X160427Y440091D01*
X160487Y440087D01*
X160507Y440083D01*
X160528Y440085D01*
X160588Y440081D01*
X161508Y440081D01*
X164294Y438927D01*
X166427Y436794D01*
X167581Y434008D01*
X167581Y430992D01*
X166427Y428206D01*
X164294Y426073D01*
X161508Y424919D01*
X158492Y424919D01*
X155706Y426073D01*
X153573Y428206D01*
X152419Y430992D01*
X152419Y433447D01*
X152407Y433546D01*
X152404Y433645D01*
X152387Y433703D01*
X152379Y433763D01*
X152343Y433855D01*
X152315Y433950D01*
X152285Y434002D01*
X152262Y434059D01*
X152204Y434139D01*
X152154Y434224D01*
X152088Y434299D01*
X152076Y434316D01*
X152066Y434324D01*
X152048Y434345D01*
X150681Y435711D01*
X150681Y506669D01*
X173331Y529319D01*
X229289Y529319D01*
X242092Y516516D01*
X242099Y516510D01*
X242105Y516503D01*
X242224Y516414D01*
X242343Y516321D01*
X242351Y516317D01*
X242359Y516312D01*
X242503Y516241D01*
X244468Y515427D01*
X247183Y512712D01*
X248653Y509164D01*
X248653Y492116D01*
X247183Y488568D01*
X244468Y485853D01*
X242464Y485023D01*
X242403Y484988D01*
X242338Y484962D01*
X242265Y484910D01*
X242187Y484865D01*
X242137Y484817D01*
X242081Y484776D01*
X242023Y484706D01*
X241959Y484644D01*
X241922Y484584D01*
X241878Y484531D01*
X241840Y484449D01*
X241793Y484373D01*
X241772Y484306D01*
X241742Y484243D01*
X241725Y484155D01*
X241699Y484069D01*
X241696Y483999D01*
X241683Y483930D01*
X241688Y483841D01*
X241684Y483751D01*
X241698Y483683D01*
X241702Y483613D01*
X241730Y483528D01*
X241748Y483440D01*
X241779Y483377D01*
X241800Y483311D01*
X241848Y483235D01*
X241888Y483154D01*
X241933Y483101D01*
X241970Y483042D01*
X242036Y482980D01*
X242094Y482912D01*
X242151Y482872D01*
X242202Y482824D01*
X242281Y482781D01*
X242354Y482729D01*
X242420Y482704D01*
X242481Y482670D01*
X242567Y482648D01*
X242652Y482616D01*
X242721Y482608D01*
X242789Y482591D01*
X242949Y482581D01*
X260451Y482581D01*
X260520Y482589D01*
X260590Y482588D01*
X260677Y482609D01*
X260766Y482621D01*
X260831Y482646D01*
X260899Y482663D01*
X260978Y482705D01*
X261062Y482738D01*
X261118Y482779D01*
X261180Y482811D01*
X261247Y482872D01*
X261319Y482924D01*
X261364Y482978D01*
X261415Y483025D01*
X261465Y483100D01*
X261522Y483169D01*
X261552Y483233D01*
X261590Y483291D01*
X261619Y483376D01*
X261658Y483457D01*
X261671Y483526D01*
X261693Y483592D01*
X261701Y483681D01*
X261717Y483769D01*
X261713Y483839D01*
X261719Y483909D01*
X261703Y483997D01*
X261698Y484087D01*
X261676Y484153D01*
X261664Y484222D01*
X261627Y484304D01*
X261600Y484389D01*
X261562Y484448D01*
X261534Y484512D01*
X261478Y484582D01*
X261430Y484658D01*
X261379Y484706D01*
X261335Y484760D01*
X261263Y484815D01*
X261198Y484876D01*
X261137Y484910D01*
X261081Y484952D01*
X260936Y485023D01*
X258932Y485853D01*
X256217Y488568D01*
X254747Y492116D01*
X254747Y509164D01*
X256217Y512712D01*
X258932Y515427D01*
X262480Y516897D01*
X266320Y516897D01*
X269868Y515427D01*
X272583Y512712D01*
X274053Y509164D01*
X274053Y492116D01*
X272583Y488568D01*
X269868Y485853D01*
X267864Y485023D01*
X267803Y484988D01*
X267738Y484962D01*
X267665Y484910D01*
X267587Y484865D01*
X267537Y484817D01*
X267481Y484776D01*
X267423Y484706D01*
X267359Y484644D01*
X267322Y484584D01*
X267278Y484531D01*
X267240Y484449D01*
X267193Y484373D01*
X267172Y484306D01*
X267142Y484243D01*
X267125Y484155D01*
X267099Y484069D01*
X267096Y483999D01*
X267083Y483930D01*
X267088Y483841D01*
X267084Y483751D01*
X267098Y483683D01*
X267102Y483613D01*
X267130Y483528D01*
X267148Y483440D01*
X267179Y483377D01*
X267200Y483311D01*
X267248Y483235D01*
X267288Y483154D01*
X267333Y483101D01*
X267370Y483042D01*
X267436Y482980D01*
X267494Y482912D01*
X267551Y482872D01*
X267602Y482824D01*
X267681Y482781D01*
X267754Y482729D01*
X267820Y482704D01*
X267881Y482670D01*
X267967Y482648D01*
X268052Y482616D01*
X268121Y482608D01*
X268189Y482591D01*
X268349Y482581D01*
X285851Y482581D01*
X285920Y482589D01*
X285990Y482588D01*
X286077Y482609D01*
X286166Y482621D01*
X286231Y482646D01*
X286299Y482663D01*
X286378Y482705D01*
X286462Y482738D01*
X286518Y482779D01*
X286580Y482811D01*
X286647Y482872D01*
X286719Y482924D01*
X286764Y482978D01*
X286815Y483025D01*
X286865Y483100D01*
X286922Y483169D01*
X286952Y483233D01*
X286990Y483291D01*
X287019Y483376D01*
X287058Y483457D01*
X287071Y483526D01*
X287093Y483592D01*
X287101Y483681D01*
X287117Y483769D01*
X287113Y483839D01*
X287119Y483909D01*
X287103Y483997D01*
X287098Y484087D01*
X287076Y484153D01*
X287064Y484222D01*
X287027Y484304D01*
X287000Y484389D01*
X286962Y484448D01*
X286934Y484512D01*
X286878Y484582D01*
X286830Y484658D01*
X286779Y484706D01*
X286735Y484760D01*
X286663Y484815D01*
X286598Y484876D01*
X286537Y484910D01*
X286481Y484952D01*
X286336Y485023D01*
X284332Y485853D01*
X281617Y488568D01*
X280147Y492116D01*
X280147Y509164D01*
X281617Y512712D01*
X284332Y515427D01*
X287880Y516897D01*
X291720Y516897D01*
X295268Y515427D01*
X297983Y512712D01*
X299453Y509164D01*
X299453Y492116D01*
X297983Y488568D01*
X295268Y485853D01*
X293264Y485023D01*
X293203Y484988D01*
X293138Y484962D01*
X293065Y484910D01*
X292987Y484865D01*
X292937Y484817D01*
X292881Y484776D01*
X292823Y484706D01*
X292759Y484644D01*
X292722Y484584D01*
X292678Y484531D01*
X292640Y484449D01*
X292593Y484373D01*
X292572Y484306D01*
X292542Y484243D01*
X292525Y484155D01*
X292499Y484069D01*
X292496Y483999D01*
X292483Y483930D01*
X292488Y483841D01*
X292484Y483751D01*
X292498Y483683D01*
X292502Y483613D01*
X292530Y483528D01*
X292548Y483440D01*
X292579Y483377D01*
X292600Y483311D01*
X292648Y483235D01*
X292688Y483154D01*
X292733Y483101D01*
X292770Y483042D01*
X292836Y482980D01*
X292894Y482912D01*
X292951Y482872D01*
X293002Y482824D01*
X293081Y482781D01*
X293154Y482729D01*
X293220Y482704D01*
X293281Y482670D01*
X293367Y482648D01*
X293452Y482616D01*
X293521Y482608D01*
X293589Y482591D01*
X293749Y482581D01*
X311251Y482581D01*
X311320Y482589D01*
X311390Y482588D01*
X311477Y482609D01*
X311566Y482621D01*
X311631Y482646D01*
X311699Y482663D01*
X311778Y482705D01*
X311862Y482738D01*
X311918Y482779D01*
X311980Y482811D01*
X312047Y482872D01*
X312119Y482924D01*
X312164Y482978D01*
X312215Y483025D01*
X312265Y483100D01*
X312322Y483169D01*
X312352Y483233D01*
X312390Y483291D01*
X312419Y483376D01*
X312458Y483457D01*
X312471Y483526D01*
X312493Y483592D01*
X312501Y483681D01*
X312517Y483769D01*
X312513Y483839D01*
X312519Y483909D01*
X312503Y483997D01*
X312498Y484087D01*
X312476Y484153D01*
X312464Y484222D01*
X312427Y484304D01*
X312400Y484389D01*
X312362Y484448D01*
X312334Y484512D01*
X312278Y484582D01*
X312230Y484658D01*
X312179Y484706D01*
X312135Y484760D01*
X312063Y484815D01*
X311998Y484876D01*
X311937Y484910D01*
X311881Y484952D01*
X311736Y485023D01*
X309732Y485853D01*
X307017Y488568D01*
X305547Y492116D01*
X305547Y509164D01*
X307017Y512712D01*
X309732Y515427D01*
X313280Y516897D01*
X317120Y516897D01*
X320668Y515427D01*
X323383Y512712D01*
X324853Y509164D01*
X324853Y492116D01*
X323383Y488568D01*
X320668Y485853D01*
X318664Y485023D01*
X318603Y484988D01*
X318538Y484962D01*
X318465Y484910D01*
X318387Y484865D01*
X318337Y484817D01*
X318281Y484776D01*
X318223Y484706D01*
X318159Y484644D01*
X318122Y484584D01*
X318078Y484531D01*
X318040Y484449D01*
X317993Y484373D01*
X317972Y484306D01*
X317942Y484243D01*
X317925Y484155D01*
X317899Y484069D01*
X317896Y483999D01*
X317883Y483930D01*
X317888Y483841D01*
X317884Y483751D01*
X317898Y483683D01*
X317902Y483613D01*
X317930Y483528D01*
X317948Y483440D01*
X317979Y483377D01*
X318000Y483311D01*
X318048Y483235D01*
X318088Y483154D01*
X318133Y483101D01*
X318170Y483042D01*
X318236Y482980D01*
X318294Y482912D01*
X318351Y482872D01*
X318402Y482824D01*
X318481Y482781D01*
X318554Y482729D01*
X318620Y482704D01*
X318681Y482670D01*
X318767Y482648D01*
X318852Y482616D01*
X318921Y482608D01*
X318989Y482591D01*
X319149Y482581D01*
X336651Y482581D01*
X336720Y482589D01*
X336790Y482588D01*
X336877Y482609D01*
X336966Y482621D01*
X337031Y482646D01*
X337099Y482663D01*
X337178Y482705D01*
X337262Y482738D01*
X337318Y482779D01*
X337380Y482811D01*
X337447Y482872D01*
X337519Y482924D01*
X337564Y482978D01*
X337615Y483025D01*
X337665Y483100D01*
X337722Y483169D01*
X337752Y483233D01*
X337790Y483291D01*
X337819Y483376D01*
X337858Y483457D01*
X337871Y483526D01*
X337893Y483592D01*
X337901Y483681D01*
X337917Y483769D01*
X337913Y483839D01*
X337919Y483909D01*
X337903Y483997D01*
X337898Y484087D01*
X337876Y484153D01*
X337864Y484222D01*
X337827Y484304D01*
X337800Y484389D01*
X337762Y484448D01*
X337734Y484512D01*
X337678Y484582D01*
X337630Y484658D01*
X337579Y484706D01*
X337535Y484760D01*
X337463Y484815D01*
X337398Y484876D01*
X337337Y484910D01*
X337281Y484952D01*
X337136Y485023D01*
X335132Y485853D01*
X332417Y488568D01*
X330947Y492116D01*
X330947Y509164D01*
X332417Y512712D01*
X335132Y515427D01*
X338680Y516897D01*
X342520Y516897D01*
X346068Y515427D01*
X348783Y512712D01*
X350253Y509164D01*
X350253Y492116D01*
X348783Y488568D01*
X346068Y485853D01*
X344064Y485023D01*
X344003Y484988D01*
X343938Y484962D01*
X343865Y484910D01*
X343787Y484865D01*
X343737Y484817D01*
X343681Y484776D01*
X343623Y484706D01*
X343559Y484644D01*
X343522Y484584D01*
X343478Y484531D01*
X343440Y484449D01*
X343393Y484373D01*
X343372Y484306D01*
X343342Y484243D01*
X343325Y484155D01*
X343299Y484069D01*
X343296Y483999D01*
X343283Y483930D01*
X343288Y483841D01*
X343284Y483751D01*
X343298Y483683D01*
X343302Y483613D01*
X343330Y483528D01*
X343348Y483440D01*
X343379Y483377D01*
X343400Y483311D01*
X343448Y483235D01*
X343488Y483154D01*
X343533Y483101D01*
X343570Y483042D01*
X343636Y482980D01*
X343694Y482912D01*
X343751Y482872D01*
X343802Y482824D01*
X343881Y482781D01*
X343954Y482729D01*
X344020Y482704D01*
X344081Y482670D01*
X344167Y482648D01*
X344252Y482616D01*
X344321Y482608D01*
X344389Y482591D01*
X344549Y482581D01*
X359650Y482581D01*
X359768Y482596D01*
X359887Y482603D01*
X359925Y482616D01*
X359966Y482621D01*
X360076Y482664D01*
X360189Y482701D01*
X360224Y482723D01*
X360261Y482738D01*
X360357Y482807D01*
X360458Y482871D01*
X360486Y482901D01*
X360519Y482924D01*
X360595Y483016D01*
X360676Y483103D01*
X360696Y483138D01*
X360721Y483169D01*
X360772Y483277D01*
X360830Y483381D01*
X360840Y483421D01*
X360857Y483457D01*
X360879Y483574D01*
X360909Y483689D01*
X360913Y483749D01*
X360917Y483769D01*
X360915Y483790D01*
X360919Y483850D01*
X360919Y484940D01*
X360907Y485038D01*
X360904Y485137D01*
X360887Y485195D01*
X360879Y485255D01*
X360843Y485348D01*
X360815Y485443D01*
X360785Y485495D01*
X360762Y485551D01*
X360704Y485631D01*
X360654Y485717D01*
X360588Y485792D01*
X360576Y485809D01*
X360566Y485816D01*
X360548Y485837D01*
X357817Y488568D01*
X356347Y492116D01*
X356347Y509164D01*
X357817Y512712D01*
X360548Y515443D01*
X360608Y515521D01*
X360676Y515593D01*
X360705Y515646D01*
X360742Y515694D01*
X360782Y515785D01*
X360830Y515871D01*
X360845Y515930D01*
X360869Y515986D01*
X360884Y516084D01*
X360909Y516179D01*
X360915Y516279D01*
X360919Y516300D01*
X360917Y516312D01*
X360919Y516340D01*
X360919Y519298D01*
X363444Y525392D01*
X368108Y530056D01*
X374202Y532581D01*
X488497Y532581D01*
X494959Y529904D01*
X499904Y524959D01*
X502581Y518497D01*
X502581Y515244D01*
X502584Y515215D01*
X502582Y515185D01*
X502604Y515058D01*
X502621Y514929D01*
X502631Y514901D01*
X502636Y514872D01*
X502690Y514753D01*
X502738Y514633D01*
X502755Y514609D01*
X502767Y514582D01*
X502848Y514480D01*
X502924Y514376D01*
X502947Y514357D01*
X502966Y514334D01*
X503069Y514256D01*
X503169Y514173D01*
X503196Y514160D01*
X503220Y514142D01*
X503364Y514071D01*
X503568Y513987D01*
X506283Y511272D01*
X507753Y507724D01*
X507753Y490676D01*
X506283Y487128D01*
X505452Y486297D01*
X505392Y486219D01*
X505324Y486147D01*
X505295Y486094D01*
X505258Y486046D01*
X505218Y485955D01*
X505170Y485869D01*
X505155Y485810D01*
X505131Y485754D01*
X505116Y485656D01*
X505091Y485561D01*
X505085Y485461D01*
X505081Y485440D01*
X505083Y485428D01*
X505081Y485400D01*
X505081Y482500D01*
X505083Y482480D01*
X505087Y482376D01*
X505205Y481176D01*
X505229Y481072D01*
X505243Y480967D01*
X505271Y480887D01*
X505276Y480866D01*
X505283Y480852D01*
X505296Y480814D01*
X506214Y478598D01*
X506218Y478589D01*
X506221Y478581D01*
X506298Y478451D01*
X506371Y478321D01*
X506378Y478315D01*
X506383Y478307D01*
X506489Y478186D01*
X508186Y476489D01*
X508193Y476483D01*
X508199Y476476D01*
X508318Y476386D01*
X508437Y476294D01*
X508446Y476290D01*
X508453Y476285D01*
X508598Y476214D01*
X510814Y475296D01*
X510917Y475267D01*
X511017Y475231D01*
X511100Y475217D01*
X511121Y475212D01*
X511137Y475211D01*
X511176Y475205D01*
X512376Y475087D01*
X512395Y475087D01*
X512500Y475081D01*
X642500Y475081D01*
X642520Y475083D01*
X642625Y475087D01*
X642946Y475119D01*
X643050Y475142D01*
X643155Y475157D01*
X643235Y475184D01*
X643256Y475189D01*
X643271Y475196D01*
X643308Y475209D01*
X643902Y475455D01*
X643910Y475460D01*
X643919Y475463D01*
X644049Y475539D01*
X644179Y475613D01*
X644185Y475619D01*
X644193Y475624D01*
X644314Y475731D01*
X644769Y476186D01*
X644775Y476193D01*
X644782Y476199D01*
X644872Y476319D01*
X644964Y476437D01*
X644968Y476446D01*
X644974Y476453D01*
X645045Y476598D01*
X645291Y477192D01*
X645319Y477295D01*
X645356Y477395D01*
X645369Y477478D01*
X645375Y477499D01*
X645375Y477515D01*
X645381Y477554D01*
X645413Y477876D01*
X645413Y477895D01*
X645419Y478000D01*
X645419Y483500D01*
X645407Y483598D01*
X645404Y483697D01*
X645387Y483755D01*
X645379Y483815D01*
X645343Y483908D01*
X645315Y484003D01*
X645285Y484055D01*
X645262Y484111D01*
X645204Y484191D01*
X645154Y484277D01*
X645088Y484352D01*
X645076Y484369D01*
X645066Y484376D01*
X645048Y484397D01*
X642317Y487128D01*
X640847Y490676D01*
X640847Y507724D01*
X642317Y511272D01*
X644548Y513503D01*
X644608Y513581D01*
X644676Y513653D01*
X644705Y513706D01*
X644742Y513754D01*
X644782Y513845D01*
X644830Y513931D01*
X644845Y513990D01*
X644869Y514046D01*
X644884Y514144D01*
X644909Y514239D01*
X644915Y514339D01*
X644919Y514360D01*
X644917Y514372D01*
X644919Y514400D01*
X644919Y517503D01*
X646835Y522126D01*
X650374Y525665D01*
X654997Y527581D01*
X713000Y527581D01*
X718542Y525285D01*
X722785Y521043D01*
X725081Y515500D01*
X725081Y496996D01*
X725093Y496898D01*
X725096Y496799D01*
X725113Y496741D01*
X725121Y496680D01*
X725157Y496588D01*
X725185Y496493D01*
X725215Y496441D01*
X725238Y496385D01*
X725296Y496305D01*
X725346Y496219D01*
X725412Y496144D01*
X725424Y496127D01*
X725434Y496120D01*
X725452Y496098D01*
X729653Y491898D01*
X729653Y483902D01*
X723998Y478247D01*
X716002Y478247D01*
X710347Y483902D01*
X710347Y491898D01*
X714548Y496098D01*
X714608Y496177D01*
X714676Y496249D01*
X714705Y496302D01*
X714742Y496350D01*
X714782Y496441D01*
X714830Y496527D01*
X714845Y496586D01*
X714869Y496642D01*
X714884Y496740D01*
X714909Y496835D01*
X714915Y496935D01*
X714919Y496956D01*
X714917Y496968D01*
X714919Y496996D01*
X714919Y512500D01*
X714917Y512520D01*
X714913Y512625D01*
X714843Y513336D01*
X714819Y513440D01*
X714805Y513545D01*
X714777Y513625D01*
X714772Y513647D01*
X714765Y513661D01*
X714753Y513698D01*
X714207Y515014D01*
X714203Y515022D01*
X714200Y515031D01*
X714124Y515160D01*
X714050Y515290D01*
X714043Y515296D01*
X714039Y515304D01*
X713932Y515425D01*
X712925Y516432D01*
X712918Y516438D01*
X712912Y516445D01*
X712793Y516535D01*
X712674Y516627D01*
X712665Y516631D01*
X712658Y516637D01*
X712514Y516707D01*
X711198Y517253D01*
X711095Y517281D01*
X710995Y517317D01*
X710912Y517331D01*
X710891Y517336D01*
X710875Y517337D01*
X710836Y517343D01*
X710124Y517413D01*
X710105Y517413D01*
X710000Y517419D01*
X679463Y517419D01*
X679394Y517411D01*
X679324Y517412D01*
X679237Y517391D01*
X679147Y517379D01*
X679082Y517354D01*
X679015Y517337D01*
X678935Y517295D01*
X678852Y517262D01*
X678795Y517221D01*
X678734Y517189D01*
X678667Y517128D01*
X678594Y517076D01*
X678550Y517022D01*
X678498Y516975D01*
X678449Y516900D01*
X678392Y516831D01*
X678362Y516767D01*
X678323Y516709D01*
X678294Y516624D01*
X678256Y516543D01*
X678243Y516474D01*
X678220Y516408D01*
X678213Y516319D01*
X678196Y516231D01*
X678201Y516161D01*
X678195Y516091D01*
X678210Y516003D01*
X678216Y515913D01*
X678238Y515847D01*
X678249Y515778D01*
X678286Y515696D01*
X678314Y515611D01*
X678351Y515552D01*
X678380Y515488D01*
X678436Y515418D01*
X678484Y515342D01*
X678535Y515294D01*
X678579Y515240D01*
X678651Y515185D01*
X678716Y515124D01*
X678777Y515090D01*
X678833Y515048D01*
X678977Y514977D01*
X681368Y513987D01*
X684083Y511272D01*
X685553Y507724D01*
X685553Y490676D01*
X684083Y487128D01*
X681368Y484413D01*
X677820Y482943D01*
X673980Y482943D01*
X670432Y484413D01*
X667717Y487128D01*
X666247Y490676D01*
X666247Y507724D01*
X667717Y511272D01*
X670432Y513987D01*
X672823Y514977D01*
X672883Y515012D01*
X672948Y515038D01*
X673021Y515090D01*
X673099Y515135D01*
X673149Y515183D01*
X673206Y515224D01*
X673263Y515294D01*
X673327Y515356D01*
X673364Y515416D01*
X673408Y515469D01*
X673447Y515551D01*
X673494Y515627D01*
X673514Y515694D01*
X673544Y515757D01*
X673561Y515845D01*
X673587Y515931D01*
X673591Y516001D01*
X673604Y516070D01*
X673598Y516159D01*
X673602Y516249D01*
X673588Y516317D01*
X673584Y516387D01*
X673556Y516472D01*
X673538Y516560D01*
X673507Y516623D01*
X673486Y516689D01*
X673438Y516765D01*
X673398Y516846D01*
X673353Y516899D01*
X673316Y516958D01*
X673250Y517020D01*
X673192Y517088D01*
X673135Y517128D01*
X673084Y517176D01*
X673006Y517219D01*
X672932Y517271D01*
X672867Y517296D01*
X672806Y517330D01*
X672719Y517352D01*
X672635Y517384D01*
X672565Y517392D01*
X672498Y517409D01*
X672337Y517419D01*
X657500Y517419D01*
X657480Y517417D01*
X657376Y517413D01*
X657151Y517391D01*
X657048Y517367D01*
X656942Y517353D01*
X656862Y517325D01*
X656841Y517320D01*
X656827Y517313D01*
X656790Y517301D01*
X656375Y517129D01*
X656367Y517124D01*
X656358Y517122D01*
X656229Y517046D01*
X656099Y516971D01*
X656092Y516965D01*
X656084Y516960D01*
X655964Y516854D01*
X655646Y516536D01*
X655641Y516529D01*
X655633Y516523D01*
X655544Y516404D01*
X655451Y516285D01*
X655448Y516277D01*
X655442Y516269D01*
X655371Y516125D01*
X655199Y515710D01*
X655171Y515608D01*
X655135Y515509D01*
X655121Y515424D01*
X655116Y515403D01*
X655115Y515388D01*
X655109Y515350D01*
X655106Y515320D01*
X655109Y515228D01*
X655101Y515136D01*
X655113Y515070D01*
X655115Y515002D01*
X655140Y514914D01*
X655156Y514823D01*
X655183Y514761D01*
X655202Y514696D01*
X655248Y514617D01*
X655286Y514533D01*
X655328Y514480D01*
X655362Y514422D01*
X655427Y514356D01*
X655485Y514284D01*
X655539Y514244D01*
X655586Y514196D01*
X655665Y514148D01*
X655739Y514093D01*
X655844Y514041D01*
X655859Y514033D01*
X655867Y514030D01*
X655884Y514022D01*
X655968Y513987D01*
X658683Y511272D01*
X660153Y507724D01*
X660153Y490676D01*
X658683Y487128D01*
X655952Y484397D01*
X655892Y484319D01*
X655824Y484247D01*
X655795Y484194D01*
X655758Y484146D01*
X655718Y484055D01*
X655670Y483969D01*
X655655Y483910D01*
X655631Y483854D01*
X655616Y483756D01*
X655591Y483661D01*
X655585Y483561D01*
X655581Y483540D01*
X655583Y483528D01*
X655581Y483500D01*
X655581Y475398D01*
X653589Y470590D01*
X649910Y466911D01*
X645102Y464919D01*
X509003Y464919D01*
X502541Y467596D01*
X497596Y472541D01*
X494919Y479003D01*
X494919Y482617D01*
X494916Y482647D01*
X494918Y482676D01*
X494896Y482804D01*
X494879Y482933D01*
X494869Y482960D01*
X494864Y482989D01*
X494810Y483108D01*
X494762Y483229D01*
X494745Y483252D01*
X494733Y483279D01*
X494652Y483381D01*
X494576Y483486D01*
X494553Y483505D01*
X494534Y483528D01*
X494431Y483606D01*
X494331Y483689D01*
X494304Y483701D01*
X494280Y483719D01*
X494136Y483790D01*
X492632Y484413D01*
X489917Y487128D01*
X488447Y490676D01*
X488447Y507724D01*
X489917Y511272D01*
X492048Y513403D01*
X492108Y513481D01*
X492176Y513553D01*
X492205Y513606D01*
X492242Y513654D01*
X492282Y513745D01*
X492330Y513831D01*
X492345Y513890D01*
X492369Y513946D01*
X492384Y514044D01*
X492409Y514139D01*
X492415Y514239D01*
X492419Y514260D01*
X492417Y514272D01*
X492419Y514300D01*
X492419Y515000D01*
X492417Y515020D01*
X492413Y515124D01*
X492295Y516324D01*
X492271Y516428D01*
X492257Y516533D01*
X492229Y516613D01*
X492224Y516634D01*
X492217Y516648D01*
X492204Y516686D01*
X491286Y518902D01*
X491282Y518911D01*
X491279Y518919D01*
X491203Y519048D01*
X491129Y519179D01*
X491122Y519185D01*
X491117Y519193D01*
X491011Y519314D01*
X489314Y521011D01*
X489307Y521017D01*
X489301Y521024D01*
X489182Y521114D01*
X489063Y521206D01*
X489055Y521210D01*
X489047Y521215D01*
X488903Y521286D01*
X486686Y522204D01*
X486583Y522233D01*
X486483Y522269D01*
X486400Y522283D01*
X486379Y522288D01*
X486363Y522289D01*
X486324Y522295D01*
X485125Y522413D01*
X485105Y522413D01*
X485000Y522419D01*
X377500Y522419D01*
X377480Y522417D01*
X377376Y522413D01*
X376371Y522314D01*
X376267Y522291D01*
X376162Y522276D01*
X376082Y522248D01*
X376061Y522244D01*
X376047Y522236D01*
X376010Y522224D01*
X374153Y521455D01*
X374145Y521450D01*
X374136Y521448D01*
X374007Y521371D01*
X373877Y521297D01*
X373870Y521291D01*
X373862Y521286D01*
X373741Y521180D01*
X372320Y519759D01*
X372315Y519751D01*
X372307Y519746D01*
X372217Y519626D01*
X372125Y519507D01*
X372122Y519499D01*
X372116Y519491D01*
X372045Y519347D01*
X371276Y517490D01*
X371248Y517388D01*
X371212Y517288D01*
X371198Y517205D01*
X371192Y517184D01*
X371192Y517168D01*
X371186Y517129D01*
X371117Y516434D01*
X371117Y516432D01*
X371117Y516430D01*
X371122Y516273D01*
X371126Y516116D01*
X371127Y516114D01*
X371127Y516112D01*
X371170Y515961D01*
X371213Y515810D01*
X371214Y515809D01*
X371215Y515807D01*
X371296Y515670D01*
X371374Y515536D01*
X371376Y515535D01*
X371377Y515533D01*
X371483Y515412D01*
X374183Y512712D01*
X375653Y509164D01*
X375653Y492116D01*
X374183Y488568D01*
X371452Y485837D01*
X371392Y485759D01*
X371324Y485687D01*
X371295Y485634D01*
X371258Y485586D01*
X371218Y485495D01*
X371170Y485409D01*
X371155Y485350D01*
X371131Y485294D01*
X371116Y485196D01*
X371091Y485101D01*
X371085Y485001D01*
X371081Y484980D01*
X371083Y484968D01*
X371081Y484940D01*
X371081Y481296D01*
X369394Y477223D01*
X366277Y474106D01*
X362204Y472419D01*
X217299Y472419D01*
X212620Y475120D01*
X209919Y479799D01*
X209919Y484264D01*
X209916Y484294D01*
X209918Y484323D01*
X209896Y484451D01*
X209879Y484580D01*
X209869Y484607D01*
X209864Y484637D01*
X209810Y484755D01*
X209762Y484876D01*
X209745Y484900D01*
X209733Y484927D01*
X209652Y485028D01*
X209576Y485133D01*
X209553Y485152D01*
X209534Y485175D01*
X209431Y485253D01*
X209331Y485336D01*
X209304Y485348D01*
X209280Y485366D01*
X209136Y485437D01*
X208132Y485853D01*
X205417Y488568D01*
X203947Y492116D01*
X203947Y494290D01*
X203932Y494408D01*
X203925Y494527D01*
X203912Y494565D01*
X203907Y494606D01*
X203864Y494716D01*
X203827Y494829D01*
X203805Y494864D01*
X203790Y494901D01*
X203721Y494997D01*
X203657Y495098D01*
X203627Y495126D01*
X203604Y495159D01*
X203512Y495235D01*
X203425Y495316D01*
X203390Y495336D01*
X203359Y495361D01*
X203251Y495412D01*
X203147Y495470D01*
X203107Y495480D01*
X203071Y495497D01*
X202954Y495519D01*
X202839Y495549D01*
X202779Y495553D01*
X202759Y495557D01*
X202738Y495555D01*
X202678Y495559D01*
X200770Y495559D01*
X200672Y495547D01*
X200573Y495544D01*
X200515Y495527D01*
X200455Y495519D01*
X200363Y495483D01*
X200268Y495455D01*
X200215Y495425D01*
X200159Y495402D01*
X200079Y495344D01*
X199994Y495294D01*
X199918Y495228D01*
X199902Y495216D01*
X199894Y495206D01*
X199873Y495188D01*
X185452Y480767D01*
X185392Y480689D01*
X185324Y480617D01*
X185295Y480564D01*
X185258Y480516D01*
X185218Y480425D01*
X185170Y480338D01*
X185155Y480280D01*
X185131Y480224D01*
X185116Y480126D01*
X185091Y480030D01*
X185085Y479930D01*
X185081Y479910D01*
X185083Y479898D01*
X185081Y479870D01*
X185081Y426819D01*
X184307Y424952D01*
X161874Y402519D01*
X161814Y402441D01*
X161746Y402369D01*
X161717Y402316D01*
X161680Y402268D01*
X161640Y402177D01*
X161592Y402090D01*
X161577Y402032D01*
X161553Y401976D01*
X161538Y401878D01*
X161513Y401782D01*
X161507Y401682D01*
X161503Y401662D01*
X161505Y401650D01*
X161503Y401622D01*
X161503Y395682D01*
X155848Y390027D01*
X147852Y390027D01*
G37*
%LPD*%
%LPC*%
G36*
X597780Y482943D02*
X597780Y482943D01*
X594232Y484413D01*
X591517Y487128D01*
X590047Y490676D01*
X590047Y507724D01*
X591517Y511272D01*
X594232Y513987D01*
X597118Y515182D01*
X597143Y515197D01*
X597171Y515206D01*
X597281Y515276D01*
X597394Y515340D01*
X597415Y515360D01*
X597440Y515376D01*
X597529Y515471D01*
X597622Y515561D01*
X597638Y515586D01*
X597658Y515608D01*
X597721Y515722D01*
X597789Y515832D01*
X597797Y515861D01*
X597812Y515886D01*
X597844Y516012D01*
X597882Y516136D01*
X597884Y516166D01*
X597891Y516194D01*
X597901Y516355D01*
X597901Y535222D01*
X597889Y535320D01*
X597886Y535419D01*
X597869Y535477D01*
X597861Y535538D01*
X597825Y535630D01*
X597797Y535725D01*
X597767Y535777D01*
X597744Y535833D01*
X597686Y535913D01*
X597636Y535999D01*
X597570Y536074D01*
X597558Y536091D01*
X597548Y536098D01*
X597530Y536120D01*
X593339Y540310D01*
X593261Y540370D01*
X593189Y540438D01*
X593136Y540467D01*
X593088Y540504D01*
X592997Y540544D01*
X592911Y540592D01*
X592852Y540607D01*
X592796Y540631D01*
X592698Y540646D01*
X592603Y540671D01*
X592503Y540677D01*
X592482Y540681D01*
X592470Y540679D01*
X592442Y540681D01*
X580711Y540681D01*
X566083Y555310D01*
X566005Y555370D01*
X565932Y555438D01*
X565879Y555467D01*
X565832Y555504D01*
X565741Y555544D01*
X565654Y555592D01*
X565595Y555607D01*
X565540Y555631D01*
X565442Y555646D01*
X565346Y555671D01*
X565246Y555677D01*
X565226Y555681D01*
X565213Y555679D01*
X565185Y555681D01*
X543766Y555681D01*
X543668Y555669D01*
X543569Y555666D01*
X543510Y555649D01*
X543450Y555641D01*
X543358Y555605D01*
X543263Y555577D01*
X543211Y555547D01*
X543155Y555524D01*
X543075Y555466D01*
X542989Y555416D01*
X542914Y555350D01*
X542897Y555338D01*
X542890Y555328D01*
X542868Y555310D01*
X541529Y553970D01*
X538915Y552887D01*
X536085Y552887D01*
X533471Y553970D01*
X531470Y555971D01*
X530387Y558585D01*
X530387Y561415D01*
X531470Y564029D01*
X533471Y566030D01*
X536085Y567113D01*
X538915Y567113D01*
X541529Y566030D01*
X542868Y564690D01*
X542947Y564630D01*
X543019Y564562D01*
X543072Y564533D01*
X543120Y564496D01*
X543211Y564456D01*
X543297Y564408D01*
X543356Y564393D01*
X543412Y564369D01*
X543510Y564354D01*
X543605Y564329D01*
X543705Y564323D01*
X543726Y564319D01*
X543738Y564321D01*
X543766Y564319D01*
X569289Y564319D01*
X583917Y549690D01*
X583995Y549630D01*
X584068Y549562D01*
X584121Y549533D01*
X584168Y549496D01*
X584259Y549456D01*
X584346Y549408D01*
X584405Y549393D01*
X584460Y549369D01*
X584558Y549354D01*
X584654Y549329D01*
X584754Y549323D01*
X584774Y549319D01*
X584787Y549321D01*
X584815Y549319D01*
X592282Y549319D01*
X592380Y549331D01*
X592479Y549334D01*
X592537Y549351D01*
X592598Y549359D01*
X592690Y549395D01*
X592785Y549423D01*
X592837Y549453D01*
X592893Y549476D01*
X592973Y549534D01*
X593059Y549584D01*
X593134Y549650D01*
X593151Y549662D01*
X593158Y549672D01*
X593179Y549690D01*
X598222Y554733D01*
X606218Y554733D01*
X611873Y549078D01*
X611873Y541082D01*
X606910Y536120D01*
X606850Y536041D01*
X606782Y535969D01*
X606753Y535916D01*
X606716Y535868D01*
X606676Y535777D01*
X606628Y535691D01*
X606613Y535632D01*
X606589Y535576D01*
X606574Y535478D01*
X606549Y535383D01*
X606543Y535283D01*
X606539Y535262D01*
X606541Y535250D01*
X606539Y535222D01*
X606539Y513142D01*
X606551Y513044D01*
X606554Y512945D01*
X606571Y512887D01*
X606579Y512827D01*
X606615Y512734D01*
X606643Y512639D01*
X606673Y512587D01*
X606696Y512531D01*
X606754Y512451D01*
X606804Y512365D01*
X606870Y512290D01*
X606882Y512273D01*
X606892Y512266D01*
X606910Y512245D01*
X607883Y511272D01*
X609353Y507724D01*
X609353Y490676D01*
X607883Y487128D01*
X605168Y484413D01*
X601620Y482943D01*
X597780Y482943D01*
G37*
%LPD*%
%LPC*%
G36*
X572380Y482943D02*
X572380Y482943D01*
X568832Y484413D01*
X566117Y487128D01*
X564647Y490676D01*
X564647Y507724D01*
X566117Y511272D01*
X568832Y513987D01*
X569198Y514139D01*
X569223Y514153D01*
X569251Y514162D01*
X569361Y514232D01*
X569474Y514296D01*
X569495Y514317D01*
X569520Y514332D01*
X569609Y514427D01*
X569702Y514517D01*
X569718Y514543D01*
X569738Y514564D01*
X569776Y514632D01*
X569783Y514642D01*
X569798Y514674D01*
X569801Y514678D01*
X569869Y514789D01*
X569877Y514817D01*
X569892Y514843D01*
X569908Y514906D01*
X569919Y514929D01*
X569930Y514988D01*
X569962Y515092D01*
X569964Y515122D01*
X569971Y515151D01*
X569976Y515227D01*
X569979Y515242D01*
X569978Y515256D01*
X569981Y515311D01*
X569981Y523385D01*
X569969Y523484D01*
X569966Y523583D01*
X569949Y523641D01*
X569941Y523701D01*
X569905Y523793D01*
X569877Y523888D01*
X569847Y523940D01*
X569824Y523997D01*
X569766Y524077D01*
X569716Y524162D01*
X569650Y524237D01*
X569638Y524254D01*
X569628Y524262D01*
X569610Y524283D01*
X553583Y540310D01*
X553505Y540370D01*
X553432Y540438D01*
X553379Y540467D01*
X553332Y540504D01*
X553241Y540544D01*
X553154Y540592D01*
X553095Y540607D01*
X553040Y540631D01*
X552942Y540646D01*
X552846Y540671D01*
X552746Y540677D01*
X552726Y540681D01*
X552713Y540679D01*
X552685Y540681D01*
X528211Y540681D01*
X499345Y569548D01*
X499267Y569608D01*
X499194Y569676D01*
X499141Y569705D01*
X499094Y569742D01*
X499003Y569782D01*
X498916Y569830D01*
X498857Y569845D01*
X498802Y569869D01*
X498704Y569884D01*
X498608Y569909D01*
X498508Y569915D01*
X498488Y569919D01*
X498475Y569917D01*
X498447Y569919D01*
X495992Y569919D01*
X493206Y571073D01*
X491073Y573206D01*
X489919Y575992D01*
X489919Y579008D01*
X491073Y581794D01*
X493206Y583927D01*
X495992Y585081D01*
X499008Y585081D01*
X501794Y583927D01*
X503927Y581794D01*
X505081Y579008D01*
X505081Y576553D01*
X505093Y576454D01*
X505096Y576355D01*
X505113Y576297D01*
X505121Y576237D01*
X505157Y576145D01*
X505185Y576050D01*
X505215Y575998D01*
X505238Y575941D01*
X505296Y575861D01*
X505346Y575776D01*
X505412Y575701D01*
X505424Y575684D01*
X505434Y575676D01*
X505452Y575655D01*
X531417Y549690D01*
X531495Y549630D01*
X531568Y549562D01*
X531621Y549533D01*
X531668Y549496D01*
X531759Y549456D01*
X531846Y549408D01*
X531905Y549393D01*
X531960Y549369D01*
X532058Y549354D01*
X532154Y549329D01*
X532254Y549323D01*
X532274Y549319D01*
X532287Y549321D01*
X532315Y549319D01*
X556789Y549319D01*
X578619Y527489D01*
X578619Y515311D01*
X578622Y515282D01*
X578620Y515252D01*
X578637Y515158D01*
X578641Y515085D01*
X578651Y515054D01*
X578659Y514996D01*
X578669Y514968D01*
X578674Y514939D01*
X578724Y514829D01*
X578739Y514783D01*
X578749Y514767D01*
X578776Y514700D01*
X578793Y514676D01*
X578805Y514649D01*
X578886Y514548D01*
X578900Y514529D01*
X578909Y514514D01*
X578914Y514510D01*
X578962Y514443D01*
X578985Y514424D01*
X579004Y514401D01*
X579107Y514323D01*
X579207Y514240D01*
X579234Y514227D01*
X579258Y514210D01*
X579402Y514139D01*
X579768Y513987D01*
X582483Y511272D01*
X583953Y507724D01*
X583953Y490676D01*
X582483Y487128D01*
X579768Y484413D01*
X576220Y482943D01*
X572380Y482943D01*
G37*
%LPD*%
%LPC*%
G36*
X105958Y519231D02*
X105958Y519231D01*
X102037Y520855D01*
X99035Y523857D01*
X97411Y527778D01*
X97411Y532022D01*
X99035Y535943D01*
X102037Y538945D01*
X105958Y540569D01*
X125442Y540569D01*
X129363Y538945D01*
X132365Y535943D01*
X133989Y532022D01*
X133989Y527778D01*
X132365Y523857D01*
X129363Y520855D01*
X125442Y519231D01*
X105958Y519231D01*
G37*
%LPD*%
%LPC*%
G36*
X105958Y493831D02*
X105958Y493831D01*
X102037Y495455D01*
X99035Y498457D01*
X97411Y502378D01*
X97411Y506622D01*
X99035Y510543D01*
X102037Y513545D01*
X105958Y515169D01*
X125442Y515169D01*
X129363Y513545D01*
X132365Y510543D01*
X133989Y506622D01*
X133989Y502378D01*
X132365Y498457D01*
X129363Y495455D01*
X125442Y493831D01*
X105958Y493831D01*
G37*
%LPD*%
%LPC*%
G36*
X105958Y468431D02*
X105958Y468431D01*
X102037Y470055D01*
X99035Y473057D01*
X97411Y476978D01*
X97411Y481222D01*
X99035Y485143D01*
X102037Y488145D01*
X105958Y489769D01*
X125442Y489769D01*
X129363Y488145D01*
X132365Y485143D01*
X133989Y481222D01*
X133989Y476978D01*
X132365Y473057D01*
X129363Y470055D01*
X125442Y468431D01*
X105958Y468431D01*
G37*
%LPD*%
%LPC*%
G36*
X105958Y443031D02*
X105958Y443031D01*
X102037Y444655D01*
X99035Y447657D01*
X97411Y451578D01*
X97411Y455822D01*
X99035Y459743D01*
X102037Y462745D01*
X105958Y464369D01*
X125442Y464369D01*
X129363Y462745D01*
X132365Y459743D01*
X133989Y455822D01*
X133989Y451578D01*
X132365Y447657D01*
X129363Y444655D01*
X125442Y443031D01*
X105958Y443031D01*
G37*
%LPD*%
%LPC*%
G36*
X496180Y406743D02*
X496180Y406743D01*
X492632Y408213D01*
X489917Y410928D01*
X488447Y414476D01*
X488447Y431524D01*
X489917Y435072D01*
X492632Y437787D01*
X496180Y439257D01*
X500020Y439257D01*
X503568Y437787D01*
X506283Y435072D01*
X507753Y431524D01*
X507753Y414476D01*
X506283Y410928D01*
X503568Y408213D01*
X500020Y406743D01*
X496180Y406743D01*
G37*
%LPD*%
%LPC*%
G36*
X572380Y406743D02*
X572380Y406743D01*
X568832Y408213D01*
X566117Y410928D01*
X564647Y414476D01*
X564647Y431524D01*
X566117Y435072D01*
X568832Y437787D01*
X572380Y439257D01*
X576220Y439257D01*
X579768Y437787D01*
X582483Y435072D01*
X583953Y431524D01*
X583953Y414476D01*
X582483Y410928D01*
X579768Y408213D01*
X576220Y406743D01*
X572380Y406743D01*
G37*
%LPD*%
%LPC*%
G36*
X597780Y406743D02*
X597780Y406743D01*
X594232Y408213D01*
X591517Y410928D01*
X590047Y414476D01*
X590047Y431524D01*
X591517Y435072D01*
X594232Y437787D01*
X597780Y439257D01*
X601620Y439257D01*
X605168Y437787D01*
X607883Y435072D01*
X609353Y431524D01*
X609353Y414476D01*
X607883Y410928D01*
X605168Y408213D01*
X601620Y406743D01*
X597780Y406743D01*
G37*
%LPD*%
%LPC*%
G36*
X623180Y406743D02*
X623180Y406743D01*
X619632Y408213D01*
X616917Y410928D01*
X615447Y414476D01*
X615447Y431524D01*
X616917Y435072D01*
X619632Y437787D01*
X623180Y439257D01*
X627020Y439257D01*
X630568Y437787D01*
X633283Y435072D01*
X634753Y431524D01*
X634753Y414476D01*
X633283Y410928D01*
X630568Y408213D01*
X627020Y406743D01*
X623180Y406743D01*
G37*
%LPD*%
%LPC*%
G36*
X389480Y484383D02*
X389480Y484383D01*
X385932Y485853D01*
X383217Y488568D01*
X381747Y492116D01*
X381747Y509164D01*
X383217Y512712D01*
X385932Y515427D01*
X389480Y516897D01*
X393320Y516897D01*
X396868Y515427D01*
X399583Y512712D01*
X401053Y509164D01*
X401053Y492116D01*
X399583Y488568D01*
X396868Y485853D01*
X393320Y484383D01*
X389480Y484383D01*
G37*
%LPD*%
%LPC*%
G36*
X521580Y482943D02*
X521580Y482943D01*
X518032Y484413D01*
X515317Y487128D01*
X513847Y490676D01*
X513847Y507724D01*
X515317Y511272D01*
X518032Y513987D01*
X521580Y515457D01*
X525420Y515457D01*
X528968Y513987D01*
X531683Y511272D01*
X533153Y507724D01*
X533153Y490676D01*
X531683Y487128D01*
X528968Y484413D01*
X525420Y482943D01*
X521580Y482943D01*
G37*
%LPD*%
%LPC*%
G36*
X623180Y482943D02*
X623180Y482943D01*
X619632Y484413D01*
X616917Y487128D01*
X615447Y490676D01*
X615447Y507724D01*
X616917Y511272D01*
X619632Y513987D01*
X623180Y515457D01*
X627020Y515457D01*
X630568Y513987D01*
X633283Y511272D01*
X634753Y507724D01*
X634753Y490676D01*
X633283Y487128D01*
X630568Y484413D01*
X627020Y482943D01*
X623180Y482943D01*
G37*
%LPD*%
%LPC*%
G36*
X546980Y482943D02*
X546980Y482943D01*
X543432Y484413D01*
X540717Y487128D01*
X539247Y490676D01*
X539247Y507724D01*
X540717Y511272D01*
X543432Y513987D01*
X546980Y515457D01*
X550820Y515457D01*
X554368Y513987D01*
X557083Y511272D01*
X558553Y507724D01*
X558553Y490676D01*
X557083Y487128D01*
X554368Y484413D01*
X550820Y482943D01*
X546980Y482943D01*
G37*
%LPD*%
%LPC*%
G36*
X648580Y406743D02*
X648580Y406743D01*
X645032Y408213D01*
X642317Y410928D01*
X640847Y414476D01*
X640847Y431524D01*
X642317Y435072D01*
X645032Y437787D01*
X648580Y439257D01*
X652420Y439257D01*
X655968Y437787D01*
X658683Y435072D01*
X660153Y431524D01*
X660153Y414476D01*
X658683Y410928D01*
X655968Y408213D01*
X652420Y406743D01*
X648580Y406743D01*
G37*
%LPD*%
%LPC*%
G36*
X546980Y406743D02*
X546980Y406743D01*
X543432Y408213D01*
X540717Y410928D01*
X539247Y414476D01*
X539247Y431524D01*
X540717Y435072D01*
X543432Y437787D01*
X546980Y439257D01*
X550820Y439257D01*
X554368Y437787D01*
X557083Y435072D01*
X558553Y431524D01*
X558553Y414476D01*
X557083Y410928D01*
X554368Y408213D01*
X550820Y406743D01*
X546980Y406743D01*
G37*
%LPD*%
%LPC*%
G36*
X313280Y408183D02*
X313280Y408183D01*
X309732Y409653D01*
X307017Y412368D01*
X305547Y415916D01*
X305547Y432964D01*
X307017Y436512D01*
X309732Y439227D01*
X313280Y440697D01*
X317120Y440697D01*
X320668Y439227D01*
X323383Y436512D01*
X324853Y432964D01*
X324853Y415916D01*
X323383Y412368D01*
X320668Y409653D01*
X317120Y408183D01*
X313280Y408183D01*
G37*
%LPD*%
%LPC*%
G36*
X211680Y408183D02*
X211680Y408183D01*
X208132Y409653D01*
X205417Y412368D01*
X203947Y415916D01*
X203947Y432964D01*
X205417Y436512D01*
X208132Y439227D01*
X211680Y440697D01*
X215520Y440697D01*
X219068Y439227D01*
X221783Y436512D01*
X223253Y432964D01*
X223253Y415916D01*
X221783Y412368D01*
X219068Y409653D01*
X215520Y408183D01*
X211680Y408183D01*
G37*
%LPD*%
%LPC*%
G36*
X237080Y408183D02*
X237080Y408183D01*
X233532Y409653D01*
X230817Y412368D01*
X229347Y415916D01*
X229347Y432964D01*
X230817Y436512D01*
X233532Y439227D01*
X237080Y440697D01*
X240920Y440697D01*
X244468Y439227D01*
X247183Y436512D01*
X248653Y432964D01*
X248653Y415916D01*
X247183Y412368D01*
X244468Y409653D01*
X240920Y408183D01*
X237080Y408183D01*
G37*
%LPD*%
%LPC*%
G36*
X364080Y408183D02*
X364080Y408183D01*
X360532Y409653D01*
X357817Y412368D01*
X356347Y415916D01*
X356347Y432964D01*
X357817Y436512D01*
X360532Y439227D01*
X364080Y440697D01*
X367920Y440697D01*
X371468Y439227D01*
X374183Y436512D01*
X375653Y432964D01*
X375653Y415916D01*
X374183Y412368D01*
X371468Y409653D01*
X367920Y408183D01*
X364080Y408183D01*
G37*
%LPD*%
%LPC*%
G36*
X262480Y408183D02*
X262480Y408183D01*
X258932Y409653D01*
X256217Y412368D01*
X254747Y415916D01*
X254747Y432964D01*
X256217Y436512D01*
X258932Y439227D01*
X262480Y440697D01*
X266320Y440697D01*
X269868Y439227D01*
X272583Y436512D01*
X274053Y432964D01*
X274053Y415916D01*
X272583Y412368D01*
X269868Y409653D01*
X266320Y408183D01*
X262480Y408183D01*
G37*
%LPD*%
%LPC*%
G36*
X287880Y408183D02*
X287880Y408183D01*
X284332Y409653D01*
X281617Y412368D01*
X280147Y415916D01*
X280147Y432964D01*
X281617Y436512D01*
X284332Y439227D01*
X287880Y440697D01*
X291720Y440697D01*
X295268Y439227D01*
X297983Y436512D01*
X299453Y432964D01*
X299453Y415916D01*
X297983Y412368D01*
X295268Y409653D01*
X291720Y408183D01*
X287880Y408183D01*
G37*
%LPD*%
%LPC*%
G36*
X338680Y408183D02*
X338680Y408183D01*
X335132Y409653D01*
X332417Y412368D01*
X330947Y415916D01*
X330947Y432964D01*
X332417Y436512D01*
X335132Y439227D01*
X338680Y440697D01*
X342520Y440697D01*
X346068Y439227D01*
X348783Y436512D01*
X350253Y432964D01*
X350253Y415916D01*
X348783Y412368D01*
X346068Y409653D01*
X342520Y408183D01*
X338680Y408183D01*
G37*
%LPD*%
%LPC*%
G36*
X521580Y406743D02*
X521580Y406743D01*
X518032Y408213D01*
X515317Y410928D01*
X513847Y414476D01*
X513847Y431524D01*
X515317Y435072D01*
X518032Y437787D01*
X521580Y439257D01*
X525420Y439257D01*
X528968Y437787D01*
X531683Y435072D01*
X533153Y431524D01*
X533153Y414476D01*
X531683Y410928D01*
X528968Y408213D01*
X525420Y406743D01*
X521580Y406743D01*
G37*
%LPD*%
%LPC*%
G36*
X226002Y63047D02*
X226002Y63047D01*
X220347Y68702D01*
X220347Y76698D01*
X226002Y82353D01*
X233998Y82353D01*
X239653Y76698D01*
X239653Y68702D01*
X233998Y63047D01*
X226002Y63047D01*
G37*
%LPD*%
%LPC*%
G36*
X156002Y63047D02*
X156002Y63047D01*
X150347Y68702D01*
X150347Y76698D01*
X156002Y82353D01*
X163998Y82353D01*
X169653Y76698D01*
X169653Y68702D01*
X163998Y63047D01*
X156002Y63047D01*
G37*
%LPD*%
%LPC*%
G36*
X366002Y60947D02*
X366002Y60947D01*
X360347Y66602D01*
X360347Y74598D01*
X366002Y80253D01*
X373998Y80253D01*
X379653Y74598D01*
X379653Y66602D01*
X373998Y60947D01*
X366002Y60947D01*
G37*
%LPD*%
%LPC*%
G36*
X276002Y259547D02*
X276002Y259547D01*
X270347Y265202D01*
X270347Y273198D01*
X276002Y278853D01*
X283998Y278853D01*
X289653Y273198D01*
X289653Y265202D01*
X283998Y259547D01*
X276002Y259547D01*
G37*
%LPD*%
%LPC*%
G36*
X246002Y259547D02*
X246002Y259547D01*
X240347Y265202D01*
X240347Y273198D01*
X246002Y278853D01*
X253998Y278853D01*
X259653Y273198D01*
X259653Y265202D01*
X253998Y259547D01*
X246002Y259547D01*
G37*
%LPD*%
%LPC*%
G36*
X526002Y259547D02*
X526002Y259547D01*
X520347Y265202D01*
X520347Y273198D01*
X526002Y278853D01*
X533998Y278853D01*
X539653Y273198D01*
X539653Y265202D01*
X533998Y259547D01*
X526002Y259547D01*
G37*
%LPD*%
%LPC*%
G36*
X216002Y259547D02*
X216002Y259547D01*
X210347Y265202D01*
X210347Y273198D01*
X216002Y278853D01*
X223998Y278853D01*
X229653Y273198D01*
X229653Y265202D01*
X223998Y259547D01*
X216002Y259547D01*
G37*
%LPD*%
%LPC*%
G36*
X186002Y259547D02*
X186002Y259547D01*
X180347Y265202D01*
X180347Y273198D01*
X186002Y278853D01*
X193998Y278853D01*
X199653Y273198D01*
X199653Y265202D01*
X193998Y259547D01*
X186002Y259547D01*
G37*
%LPD*%
%LPC*%
G36*
X436002Y259547D02*
X436002Y259547D01*
X430347Y265202D01*
X430347Y273198D01*
X436002Y278853D01*
X443998Y278853D01*
X449653Y273198D01*
X449653Y265202D01*
X443998Y259547D01*
X436002Y259547D01*
G37*
%LPD*%
%LPC*%
G36*
X646002Y259547D02*
X646002Y259547D01*
X640347Y265202D01*
X640347Y273198D01*
X646002Y278853D01*
X653998Y278853D01*
X659653Y273198D01*
X659653Y265202D01*
X653998Y259547D01*
X646002Y259547D01*
G37*
%LPD*%
%LPC*%
G36*
X616002Y259547D02*
X616002Y259547D01*
X610347Y265202D01*
X610347Y273198D01*
X616002Y278853D01*
X623998Y278853D01*
X629653Y273198D01*
X629653Y265202D01*
X623998Y259547D01*
X616002Y259547D01*
G37*
%LPD*%
%LPC*%
G36*
X586002Y259547D02*
X586002Y259547D01*
X580347Y265202D01*
X580347Y273198D01*
X586002Y278853D01*
X593998Y278853D01*
X599653Y273198D01*
X599653Y265202D01*
X593998Y259547D01*
X586002Y259547D01*
G37*
%LPD*%
%LPC*%
G36*
X556002Y259547D02*
X556002Y259547D01*
X550347Y265202D01*
X550347Y273198D01*
X556002Y278853D01*
X563998Y278853D01*
X569653Y273198D01*
X569653Y265202D01*
X563998Y259547D01*
X556002Y259547D01*
G37*
%LPD*%
%LPC*%
G36*
X496002Y259547D02*
X496002Y259547D01*
X490347Y265202D01*
X490347Y273198D01*
X496002Y278853D01*
X503998Y278853D01*
X509653Y273198D01*
X509653Y265202D01*
X503998Y259547D01*
X496002Y259547D01*
G37*
%LPD*%
%LPC*%
G36*
X466002Y259547D02*
X466002Y259547D01*
X460347Y265202D01*
X460347Y273198D01*
X466002Y278853D01*
X473998Y278853D01*
X479653Y273198D01*
X479653Y265202D01*
X473998Y259547D01*
X466002Y259547D01*
G37*
%LPD*%
%LPC*%
G36*
X396002Y259547D02*
X396002Y259547D01*
X390347Y265202D01*
X390347Y273198D01*
X396002Y278853D01*
X403998Y278853D01*
X409653Y273198D01*
X409653Y265202D01*
X403998Y259547D01*
X396002Y259547D01*
G37*
%LPD*%
%LPC*%
G36*
X366002Y259547D02*
X366002Y259547D01*
X360347Y265202D01*
X360347Y273198D01*
X366002Y278853D01*
X373998Y278853D01*
X379653Y273198D01*
X379653Y265202D01*
X373998Y259547D01*
X366002Y259547D01*
G37*
%LPD*%
%LPC*%
G36*
X336002Y259547D02*
X336002Y259547D01*
X330347Y265202D01*
X330347Y273198D01*
X336002Y278853D01*
X343998Y278853D01*
X349653Y273198D01*
X349653Y265202D01*
X343998Y259547D01*
X336002Y259547D01*
G37*
%LPD*%
%LPC*%
G36*
X306002Y259547D02*
X306002Y259547D01*
X300347Y265202D01*
X300347Y273198D01*
X306002Y278853D01*
X313998Y278853D01*
X319653Y273198D01*
X319653Y265202D01*
X313998Y259547D01*
X306002Y259547D01*
G37*
%LPD*%
%LPC*%
G36*
X723302Y247347D02*
X723302Y247347D01*
X717647Y253002D01*
X717647Y260998D01*
X723302Y266653D01*
X731298Y266653D01*
X736953Y260998D01*
X736953Y253002D01*
X731298Y247347D01*
X723302Y247347D01*
G37*
%LPD*%
%LPC*%
G36*
X78702Y247347D02*
X78702Y247347D01*
X73047Y253002D01*
X73047Y260998D01*
X78702Y266653D01*
X86698Y266653D01*
X92353Y260998D01*
X92353Y253002D01*
X86698Y247347D01*
X78702Y247347D01*
G37*
%LPD*%
%LPC*%
G36*
X336002Y361147D02*
X336002Y361147D01*
X330347Y366802D01*
X330347Y374798D01*
X336002Y380453D01*
X343998Y380453D01*
X349653Y374798D01*
X349653Y366802D01*
X343998Y361147D01*
X336002Y361147D01*
G37*
%LPD*%
%LPC*%
G36*
X306002Y361147D02*
X306002Y361147D01*
X300347Y366802D01*
X300347Y374798D01*
X306002Y380453D01*
X313998Y380453D01*
X319653Y374798D01*
X319653Y366802D01*
X313998Y361147D01*
X306002Y361147D01*
G37*
%LPD*%
%LPC*%
G36*
X276002Y361147D02*
X276002Y361147D01*
X270347Y366802D01*
X270347Y374798D01*
X276002Y380453D01*
X283998Y380453D01*
X289653Y374798D01*
X289653Y366802D01*
X283998Y361147D01*
X276002Y361147D01*
G37*
%LPD*%
%LPC*%
G36*
X246002Y361147D02*
X246002Y361147D01*
X240347Y366802D01*
X240347Y374798D01*
X246002Y380453D01*
X253998Y380453D01*
X259653Y374798D01*
X259653Y366802D01*
X253998Y361147D01*
X246002Y361147D01*
G37*
%LPD*%
%LPC*%
G36*
X216002Y361147D02*
X216002Y361147D01*
X210347Y366802D01*
X210347Y374798D01*
X216002Y380453D01*
X223998Y380453D01*
X229653Y374798D01*
X229653Y366802D01*
X223998Y361147D01*
X216002Y361147D01*
G37*
%LPD*%
%LPC*%
G36*
X186002Y361147D02*
X186002Y361147D01*
X180347Y366802D01*
X180347Y374798D01*
X186002Y380453D01*
X193998Y380453D01*
X199653Y374798D01*
X199653Y366802D01*
X193998Y361147D01*
X186002Y361147D01*
G37*
%LPD*%
%LPC*%
G36*
X646002Y361147D02*
X646002Y361147D01*
X640347Y366802D01*
X640347Y374798D01*
X646002Y380453D01*
X653998Y380453D01*
X659653Y374798D01*
X659653Y366802D01*
X653998Y361147D01*
X646002Y361147D01*
G37*
%LPD*%
%LPC*%
G36*
X616002Y361147D02*
X616002Y361147D01*
X610347Y366802D01*
X610347Y374798D01*
X616002Y380453D01*
X623998Y380453D01*
X629653Y374798D01*
X629653Y366802D01*
X623998Y361147D01*
X616002Y361147D01*
G37*
%LPD*%
%LPC*%
G36*
X586002Y361147D02*
X586002Y361147D01*
X580347Y366802D01*
X580347Y374798D01*
X586002Y380453D01*
X593998Y380453D01*
X599653Y374798D01*
X599653Y366802D01*
X593998Y361147D01*
X586002Y361147D01*
G37*
%LPD*%
%LPC*%
G36*
X556002Y361147D02*
X556002Y361147D01*
X550347Y366802D01*
X550347Y374798D01*
X556002Y380453D01*
X563998Y380453D01*
X569653Y374798D01*
X569653Y366802D01*
X563998Y361147D01*
X556002Y361147D01*
G37*
%LPD*%
%LPC*%
G36*
X526002Y361147D02*
X526002Y361147D01*
X520347Y366802D01*
X520347Y374798D01*
X526002Y380453D01*
X533998Y380453D01*
X539653Y374798D01*
X539653Y366802D01*
X533998Y361147D01*
X526002Y361147D01*
G37*
%LPD*%
%LPC*%
G36*
X496002Y361147D02*
X496002Y361147D01*
X490347Y366802D01*
X490347Y374798D01*
X496002Y380453D01*
X503998Y380453D01*
X509653Y374798D01*
X509653Y366802D01*
X503998Y361147D01*
X496002Y361147D01*
G37*
%LPD*%
%LPC*%
G36*
X466002Y361147D02*
X466002Y361147D01*
X460347Y366802D01*
X460347Y374798D01*
X466002Y380453D01*
X473998Y380453D01*
X479653Y374798D01*
X479653Y366802D01*
X473998Y361147D01*
X466002Y361147D01*
G37*
%LPD*%
%LPC*%
G36*
X436002Y361147D02*
X436002Y361147D01*
X430347Y366802D01*
X430347Y374798D01*
X436002Y380453D01*
X443998Y380453D01*
X449653Y374798D01*
X449653Y366802D01*
X443998Y361147D01*
X436002Y361147D01*
G37*
%LPD*%
%LPC*%
G36*
X396002Y361147D02*
X396002Y361147D01*
X390347Y366802D01*
X390347Y374798D01*
X396002Y380453D01*
X403998Y380453D01*
X409653Y374798D01*
X409653Y366802D01*
X403998Y361147D01*
X396002Y361147D01*
G37*
%LPD*%
%LPC*%
G36*
X366002Y361147D02*
X366002Y361147D01*
X360347Y366802D01*
X360347Y374798D01*
X366002Y380453D01*
X373998Y380453D01*
X379653Y374798D01*
X379653Y366802D01*
X373998Y361147D01*
X366002Y361147D01*
G37*
%LPD*%
%LPC*%
G36*
X723302Y177347D02*
X723302Y177347D01*
X717647Y183002D01*
X717647Y190998D01*
X723302Y196653D01*
X731298Y196653D01*
X736953Y190998D01*
X736953Y183002D01*
X731298Y177347D01*
X723302Y177347D01*
G37*
%LPD*%
%LPC*%
G36*
X78702Y177347D02*
X78702Y177347D01*
X73047Y183002D01*
X73047Y190998D01*
X78702Y196653D01*
X86698Y196653D01*
X92353Y190998D01*
X92353Y183002D01*
X86698Y177347D01*
X78702Y177347D01*
G37*
%LPD*%
%LPC*%
G36*
X693302Y107347D02*
X693302Y107347D01*
X687647Y113002D01*
X687647Y120998D01*
X693302Y126653D01*
X701298Y126653D01*
X706953Y120998D01*
X706953Y113002D01*
X701298Y107347D01*
X693302Y107347D01*
G37*
%LPD*%
%LPC*%
G36*
X108702Y107347D02*
X108702Y107347D01*
X103047Y113002D01*
X103047Y120998D01*
X108702Y126653D01*
X116698Y126653D01*
X122353Y120998D01*
X122353Y113002D01*
X116698Y107347D01*
X108702Y107347D01*
G37*
%LPD*%
%LPC*%
G36*
X723302Y317347D02*
X723302Y317347D01*
X717647Y323002D01*
X717647Y330998D01*
X723302Y336653D01*
X731298Y336653D01*
X736953Y330998D01*
X736953Y323002D01*
X731298Y317347D01*
X723302Y317347D01*
G37*
%LPD*%
%LPC*%
G36*
X78702Y317347D02*
X78702Y317347D01*
X73047Y323002D01*
X73047Y330998D01*
X78702Y336653D01*
X86698Y336653D01*
X92353Y330998D01*
X92353Y323002D01*
X86698Y317347D01*
X78702Y317347D01*
G37*
%LPD*%
%LPC*%
G36*
X436002Y64947D02*
X436002Y64947D01*
X430347Y70602D01*
X430347Y78598D01*
X436002Y84253D01*
X443998Y84253D01*
X449653Y78598D01*
X449653Y70602D01*
X443998Y64947D01*
X436002Y64947D01*
G37*
%LPD*%
%LPC*%
G36*
X646002Y63047D02*
X646002Y63047D01*
X640347Y68702D01*
X640347Y76698D01*
X646002Y82353D01*
X653998Y82353D01*
X659653Y76698D01*
X659653Y68702D01*
X653998Y63047D01*
X646002Y63047D01*
G37*
%LPD*%
%LPC*%
G36*
X576002Y63047D02*
X576002Y63047D01*
X570347Y68702D01*
X570347Y76698D01*
X576002Y82353D01*
X583998Y82353D01*
X589653Y76698D01*
X589653Y68702D01*
X583998Y63047D01*
X576002Y63047D01*
G37*
%LPD*%
%LPC*%
G36*
X506002Y63047D02*
X506002Y63047D01*
X500347Y68702D01*
X500347Y76698D01*
X506002Y82353D01*
X513998Y82353D01*
X519653Y76698D01*
X519653Y68702D01*
X513998Y63047D01*
X506002Y63047D01*
G37*
%LPD*%
%LPC*%
G36*
X296002Y63047D02*
X296002Y63047D01*
X290347Y68702D01*
X290347Y76698D01*
X296002Y82353D01*
X303998Y82353D01*
X309653Y76698D01*
X309653Y68702D01*
X303998Y63047D01*
X296002Y63047D01*
G37*
%LPD*%
%LPC*%
G36*
X118239Y430839D02*
X118239Y430839D01*
X118239Y438461D01*
X124120Y438461D01*
X125699Y438211D01*
X127220Y437716D01*
X128645Y436990D01*
X129939Y436050D01*
X131070Y434919D01*
X132010Y433625D01*
X132736Y432200D01*
X133179Y430839D01*
X118239Y430839D01*
G37*
%LPD*%
%LPC*%
G36*
X98221Y430839D02*
X98221Y430839D01*
X98664Y432200D01*
X99390Y433625D01*
X100330Y434919D01*
X101461Y436050D01*
X102755Y436990D01*
X104180Y437716D01*
X105701Y438211D01*
X107280Y438461D01*
X113161Y438461D01*
X113161Y430839D01*
X98221Y430839D01*
G37*
%LPD*%
%LPC*%
G36*
X118239Y418139D02*
X118239Y418139D01*
X118239Y425761D01*
X133179Y425761D01*
X132736Y424400D01*
X132010Y422975D01*
X131070Y421681D01*
X129939Y420550D01*
X128645Y419610D01*
X127220Y418884D01*
X125699Y418389D01*
X124120Y418139D01*
X118239Y418139D01*
G37*
%LPD*%
%LPC*%
G36*
X107280Y418139D02*
X107280Y418139D01*
X105701Y418389D01*
X104180Y418884D01*
X102755Y419610D01*
X101461Y420550D01*
X100330Y421681D01*
X99390Y422975D01*
X98664Y424400D01*
X98221Y425761D01*
X113161Y425761D01*
X113161Y418139D01*
X107280Y418139D01*
G37*
%LPD*%
%LPC*%
G36*
X393431Y426471D02*
X393431Y426471D01*
X393431Y439981D01*
X393541Y439964D01*
X394910Y439519D01*
X396193Y438865D01*
X397357Y438019D01*
X398375Y437001D01*
X399221Y435837D01*
X399875Y434554D01*
X400320Y433185D01*
X400545Y431764D01*
X400545Y426471D01*
X393431Y426471D01*
G37*
%LPD*%
%LPC*%
G36*
X677931Y425031D02*
X677931Y425031D01*
X677931Y438541D01*
X678041Y438524D01*
X679410Y438079D01*
X680693Y437425D01*
X681857Y436579D01*
X682875Y435561D01*
X683721Y434397D01*
X684375Y433114D01*
X684820Y431745D01*
X685045Y430324D01*
X685045Y425031D01*
X677931Y425031D01*
G37*
%LPD*%
%LPC*%
G36*
X677931Y420969D02*
X677931Y420969D01*
X685045Y420969D01*
X685045Y415676D01*
X684820Y414255D01*
X684375Y412886D01*
X683721Y411603D01*
X682875Y410439D01*
X681857Y409421D01*
X680693Y408575D01*
X679410Y407921D01*
X678041Y407476D01*
X677931Y407459D01*
X677931Y420969D01*
G37*
%LPD*%
%LPC*%
G36*
X393431Y422409D02*
X393431Y422409D01*
X400545Y422409D01*
X400545Y417116D01*
X400320Y415695D01*
X399875Y414326D01*
X399221Y413043D01*
X398375Y411879D01*
X397357Y410861D01*
X396193Y410015D01*
X394910Y409361D01*
X393541Y408916D01*
X393431Y408899D01*
X393431Y422409D01*
G37*
%LPD*%
%LPC*%
G36*
X382255Y426471D02*
X382255Y426471D01*
X382255Y431764D01*
X382480Y433185D01*
X382925Y434554D01*
X383579Y435837D01*
X384425Y437001D01*
X385443Y438019D01*
X386607Y438865D01*
X387890Y439519D01*
X389259Y439964D01*
X389369Y439981D01*
X389369Y426471D01*
X382255Y426471D01*
G37*
%LPD*%
%LPC*%
G36*
X666755Y425031D02*
X666755Y425031D01*
X666755Y430324D01*
X666980Y431745D01*
X667425Y433114D01*
X668079Y434397D01*
X668925Y435561D01*
X669943Y436579D01*
X671107Y437425D01*
X672390Y438079D01*
X673759Y438524D01*
X673869Y438541D01*
X673869Y425031D01*
X666755Y425031D01*
G37*
%LPD*%
%LPC*%
G36*
X389259Y408916D02*
X389259Y408916D01*
X387890Y409361D01*
X386607Y410015D01*
X385443Y410861D01*
X384425Y411879D01*
X383579Y413043D01*
X382925Y414326D01*
X382480Y415695D01*
X382255Y417116D01*
X382255Y422409D01*
X389369Y422409D01*
X389369Y408899D01*
X389259Y408916D01*
G37*
%LPD*%
%LPC*%
G36*
X673759Y407476D02*
X673759Y407476D01*
X672390Y407921D01*
X671107Y408575D01*
X669943Y409421D01*
X668925Y410439D01*
X668079Y411603D01*
X667425Y412886D01*
X666980Y414255D01*
X666755Y415676D01*
X666755Y420969D01*
X673869Y420969D01*
X673869Y407459D01*
X673759Y407476D01*
G37*
%LPD*%
%LPC*%
G36*
X59331Y259031D02*
X59331Y259031D01*
X59331Y266145D01*
X61088Y266145D01*
X66445Y260788D01*
X66445Y259031D01*
X59331Y259031D01*
G37*
%LPD*%
%LPC*%
G36*
X512031Y49331D02*
X512031Y49331D01*
X512031Y56445D01*
X513788Y56445D01*
X519145Y51088D01*
X519145Y49331D01*
X512031Y49331D01*
G37*
%LPD*%
%LPC*%
G36*
X722031Y439131D02*
X722031Y439131D01*
X722031Y446245D01*
X723788Y446245D01*
X729145Y440888D01*
X729145Y439131D01*
X722031Y439131D01*
G37*
%LPD*%
%LPC*%
G36*
X754731Y259031D02*
X754731Y259031D01*
X754731Y266145D01*
X756488Y266145D01*
X761845Y260788D01*
X761845Y259031D01*
X754731Y259031D01*
G37*
%LPD*%
%LPC*%
G36*
X655051Y547111D02*
X655051Y547111D01*
X655051Y554225D01*
X656808Y554225D01*
X662165Y548868D01*
X662165Y547111D01*
X655051Y547111D01*
G37*
%LPD*%
%LPC*%
G36*
X582031Y49331D02*
X582031Y49331D01*
X582031Y56445D01*
X583788Y56445D01*
X589145Y51088D01*
X589145Y49331D01*
X582031Y49331D01*
G37*
%LPD*%
%LPC*%
G36*
X652031Y49331D02*
X652031Y49331D01*
X652031Y56445D01*
X653788Y56445D01*
X659145Y51088D01*
X659145Y49331D01*
X652031Y49331D01*
G37*
%LPD*%
%LPC*%
G36*
X153881Y350911D02*
X153881Y350911D01*
X153881Y358025D01*
X155638Y358025D01*
X160995Y352668D01*
X160995Y350911D01*
X153881Y350911D01*
G37*
%LPD*%
%LPC*%
G36*
X162031Y49331D02*
X162031Y49331D01*
X162031Y56445D01*
X163788Y56445D01*
X169145Y51088D01*
X169145Y49331D01*
X162031Y49331D01*
G37*
%LPD*%
%LPC*%
G36*
X724731Y119031D02*
X724731Y119031D01*
X724731Y126145D01*
X726488Y126145D01*
X731845Y120788D01*
X731845Y119031D01*
X724731Y119031D01*
G37*
%LPD*%
%LPC*%
G36*
X89331Y119031D02*
X89331Y119031D01*
X89331Y126145D01*
X91088Y126145D01*
X96445Y120788D01*
X96445Y119031D01*
X89331Y119031D01*
G37*
%LPD*%
%LPC*%
G36*
X754731Y329031D02*
X754731Y329031D01*
X754731Y336145D01*
X756488Y336145D01*
X761845Y330788D01*
X761845Y329031D01*
X754731Y329031D01*
G37*
%LPD*%
%LPC*%
G36*
X59331Y329031D02*
X59331Y329031D01*
X59331Y336145D01*
X61088Y336145D01*
X66445Y330788D01*
X66445Y329031D01*
X59331Y329031D01*
G37*
%LPD*%
%LPC*%
G36*
X232031Y49331D02*
X232031Y49331D01*
X232031Y56445D01*
X233788Y56445D01*
X239145Y51088D01*
X239145Y49331D01*
X232031Y49331D01*
G37*
%LPD*%
%LPC*%
G36*
X302031Y49331D02*
X302031Y49331D01*
X302031Y56445D01*
X303788Y56445D01*
X309145Y51088D01*
X309145Y49331D01*
X302031Y49331D01*
G37*
%LPD*%
%LPC*%
G36*
X754731Y189031D02*
X754731Y189031D01*
X754731Y196145D01*
X756488Y196145D01*
X761845Y190788D01*
X761845Y189031D01*
X754731Y189031D01*
G37*
%LPD*%
%LPC*%
G36*
X59331Y189031D02*
X59331Y189031D01*
X59331Y196145D01*
X61088Y196145D01*
X66445Y190788D01*
X66445Y189031D01*
X59331Y189031D01*
G37*
%LPD*%
%LPC*%
G36*
X442031Y51231D02*
X442031Y51231D01*
X442031Y58345D01*
X443788Y58345D01*
X449145Y52988D01*
X449145Y51231D01*
X442031Y51231D01*
G37*
%LPD*%
%LPC*%
G36*
X372031Y47231D02*
X372031Y47231D01*
X372031Y54345D01*
X373788Y54345D01*
X379145Y48988D01*
X379145Y47231D01*
X372031Y47231D01*
G37*
%LPD*%
%LPC*%
G36*
X500855Y49331D02*
X500855Y49331D01*
X500855Y51088D01*
X506212Y56445D01*
X507969Y56445D01*
X507969Y49331D01*
X500855Y49331D01*
G37*
%LPD*%
%LPC*%
G36*
X640855Y49331D02*
X640855Y49331D01*
X640855Y51088D01*
X646212Y56445D01*
X647969Y56445D01*
X647969Y49331D01*
X640855Y49331D01*
G37*
%LPD*%
%LPC*%
G36*
X570855Y49331D02*
X570855Y49331D01*
X570855Y51088D01*
X576212Y56445D01*
X577969Y56445D01*
X577969Y49331D01*
X570855Y49331D01*
G37*
%LPD*%
%LPC*%
G36*
X150855Y49331D02*
X150855Y49331D01*
X150855Y51088D01*
X156212Y56445D01*
X157969Y56445D01*
X157969Y49331D01*
X150855Y49331D01*
G37*
%LPD*%
%LPC*%
G36*
X220855Y49331D02*
X220855Y49331D01*
X220855Y51088D01*
X226212Y56445D01*
X227969Y56445D01*
X227969Y49331D01*
X220855Y49331D01*
G37*
%LPD*%
%LPC*%
G36*
X290855Y49331D02*
X290855Y49331D01*
X290855Y51088D01*
X296212Y56445D01*
X297969Y56445D01*
X297969Y49331D01*
X290855Y49331D01*
G37*
%LPD*%
%LPC*%
G36*
X360855Y47231D02*
X360855Y47231D01*
X360855Y48988D01*
X366212Y54345D01*
X367969Y54345D01*
X367969Y47231D01*
X360855Y47231D01*
G37*
%LPD*%
%LPC*%
G36*
X142705Y350911D02*
X142705Y350911D01*
X142705Y352668D01*
X148062Y358025D01*
X149819Y358025D01*
X149819Y350911D01*
X142705Y350911D01*
G37*
%LPD*%
%LPC*%
G36*
X743555Y329031D02*
X743555Y329031D01*
X743555Y330788D01*
X748912Y336145D01*
X750669Y336145D01*
X750669Y329031D01*
X743555Y329031D01*
G37*
%LPD*%
%LPC*%
G36*
X48155Y329031D02*
X48155Y329031D01*
X48155Y330788D01*
X53512Y336145D01*
X55269Y336145D01*
X55269Y329031D01*
X48155Y329031D01*
G37*
%LPD*%
%LPC*%
G36*
X743555Y259031D02*
X743555Y259031D01*
X743555Y260788D01*
X748912Y266145D01*
X750669Y266145D01*
X750669Y259031D01*
X743555Y259031D01*
G37*
%LPD*%
%LPC*%
G36*
X48155Y259031D02*
X48155Y259031D01*
X48155Y260788D01*
X53512Y266145D01*
X55269Y266145D01*
X55269Y259031D01*
X48155Y259031D01*
G37*
%LPD*%
%LPC*%
G36*
X713555Y119031D02*
X713555Y119031D01*
X713555Y120788D01*
X718912Y126145D01*
X720669Y126145D01*
X720669Y119031D01*
X713555Y119031D01*
G37*
%LPD*%
%LPC*%
G36*
X78155Y119031D02*
X78155Y119031D01*
X78155Y120788D01*
X83512Y126145D01*
X85269Y126145D01*
X85269Y119031D01*
X78155Y119031D01*
G37*
%LPD*%
%LPC*%
G36*
X743555Y189031D02*
X743555Y189031D01*
X743555Y190788D01*
X748912Y196145D01*
X750669Y196145D01*
X750669Y189031D01*
X743555Y189031D01*
G37*
%LPD*%
%LPC*%
G36*
X48155Y189031D02*
X48155Y189031D01*
X48155Y190788D01*
X53512Y196145D01*
X55269Y196145D01*
X55269Y189031D01*
X48155Y189031D01*
G37*
%LPD*%
%LPC*%
G36*
X430855Y51231D02*
X430855Y51231D01*
X430855Y52988D01*
X436212Y58345D01*
X437969Y58345D01*
X437969Y51231D01*
X430855Y51231D01*
G37*
%LPD*%
%LPC*%
G36*
X643875Y547111D02*
X643875Y547111D01*
X643875Y548868D01*
X649232Y554225D01*
X650989Y554225D01*
X650989Y547111D01*
X643875Y547111D01*
G37*
%LPD*%
%LPC*%
G36*
X710855Y439131D02*
X710855Y439131D01*
X710855Y440888D01*
X716212Y446245D01*
X717969Y446245D01*
X717969Y439131D01*
X710855Y439131D01*
G37*
%LPD*%
%LPC*%
G36*
X754731Y317855D02*
X754731Y317855D01*
X754731Y324969D01*
X761845Y324969D01*
X761845Y323212D01*
X756488Y317855D01*
X754731Y317855D01*
G37*
%LPD*%
%LPC*%
G36*
X59331Y247855D02*
X59331Y247855D01*
X59331Y254969D01*
X66445Y254969D01*
X66445Y253212D01*
X61088Y247855D01*
X59331Y247855D01*
G37*
%LPD*%
%LPC*%
G36*
X655051Y535935D02*
X655051Y535935D01*
X655051Y543049D01*
X662165Y543049D01*
X662165Y541292D01*
X656808Y535935D01*
X655051Y535935D01*
G37*
%LPD*%
%LPC*%
G36*
X754731Y177855D02*
X754731Y177855D01*
X754731Y184969D01*
X761845Y184969D01*
X761845Y183212D01*
X756488Y177855D01*
X754731Y177855D01*
G37*
%LPD*%
%LPC*%
G36*
X59331Y317855D02*
X59331Y317855D01*
X59331Y324969D01*
X66445Y324969D01*
X66445Y323212D01*
X61088Y317855D01*
X59331Y317855D01*
G37*
%LPD*%
%LPC*%
G36*
X89331Y107855D02*
X89331Y107855D01*
X89331Y114969D01*
X96445Y114969D01*
X96445Y113212D01*
X91088Y107855D01*
X89331Y107855D01*
G37*
%LPD*%
%LPC*%
G36*
X722031Y427955D02*
X722031Y427955D01*
X722031Y435069D01*
X729145Y435069D01*
X729145Y433312D01*
X723788Y427955D01*
X722031Y427955D01*
G37*
%LPD*%
%LPC*%
G36*
X59331Y177855D02*
X59331Y177855D01*
X59331Y184969D01*
X66445Y184969D01*
X66445Y183212D01*
X61088Y177855D01*
X59331Y177855D01*
G37*
%LPD*%
%LPC*%
G36*
X724731Y107855D02*
X724731Y107855D01*
X724731Y114969D01*
X731845Y114969D01*
X731845Y113212D01*
X726488Y107855D01*
X724731Y107855D01*
G37*
%LPD*%
%LPC*%
G36*
X153881Y339735D02*
X153881Y339735D01*
X153881Y346849D01*
X160995Y346849D01*
X160995Y345092D01*
X155638Y339735D01*
X153881Y339735D01*
G37*
%LPD*%
%LPC*%
G36*
X754731Y247855D02*
X754731Y247855D01*
X754731Y254969D01*
X761845Y254969D01*
X761845Y253212D01*
X756488Y247855D01*
X754731Y247855D01*
G37*
%LPD*%
%LPC*%
G36*
X442031Y40055D02*
X442031Y40055D01*
X442031Y47169D01*
X449145Y47169D01*
X449145Y45412D01*
X443788Y40055D01*
X442031Y40055D01*
G37*
%LPD*%
%LPC*%
G36*
X652031Y38155D02*
X652031Y38155D01*
X652031Y45269D01*
X659145Y45269D01*
X659145Y43512D01*
X653788Y38155D01*
X652031Y38155D01*
G37*
%LPD*%
%LPC*%
G36*
X582031Y38155D02*
X582031Y38155D01*
X582031Y45269D01*
X589145Y45269D01*
X589145Y43512D01*
X583788Y38155D01*
X582031Y38155D01*
G37*
%LPD*%
%LPC*%
G36*
X512031Y38155D02*
X512031Y38155D01*
X512031Y45269D01*
X519145Y45269D01*
X519145Y43512D01*
X513788Y38155D01*
X512031Y38155D01*
G37*
%LPD*%
%LPC*%
G36*
X302031Y38155D02*
X302031Y38155D01*
X302031Y45269D01*
X309145Y45269D01*
X309145Y43512D01*
X303788Y38155D01*
X302031Y38155D01*
G37*
%LPD*%
%LPC*%
G36*
X232031Y38155D02*
X232031Y38155D01*
X232031Y45269D01*
X239145Y45269D01*
X239145Y43512D01*
X233788Y38155D01*
X232031Y38155D01*
G37*
%LPD*%
%LPC*%
G36*
X162031Y38155D02*
X162031Y38155D01*
X162031Y45269D01*
X169145Y45269D01*
X169145Y43512D01*
X163788Y38155D01*
X162031Y38155D01*
G37*
%LPD*%
%LPC*%
G36*
X372031Y36055D02*
X372031Y36055D01*
X372031Y43169D01*
X379145Y43169D01*
X379145Y41412D01*
X373788Y36055D01*
X372031Y36055D01*
G37*
%LPD*%
%LPC*%
G36*
X649232Y535935D02*
X649232Y535935D01*
X643875Y541292D01*
X643875Y543049D01*
X650989Y543049D01*
X650989Y535935D01*
X649232Y535935D01*
G37*
%LPD*%
%LPC*%
G36*
X748912Y177855D02*
X748912Y177855D01*
X743555Y183212D01*
X743555Y184969D01*
X750669Y184969D01*
X750669Y177855D01*
X748912Y177855D01*
G37*
%LPD*%
%LPC*%
G36*
X748912Y247855D02*
X748912Y247855D01*
X743555Y253212D01*
X743555Y254969D01*
X750669Y254969D01*
X750669Y247855D01*
X748912Y247855D01*
G37*
%LPD*%
%LPC*%
G36*
X53512Y247855D02*
X53512Y247855D01*
X48155Y253212D01*
X48155Y254969D01*
X55269Y254969D01*
X55269Y247855D01*
X53512Y247855D01*
G37*
%LPD*%
%LPC*%
G36*
X436212Y40055D02*
X436212Y40055D01*
X430855Y45412D01*
X430855Y47169D01*
X437969Y47169D01*
X437969Y40055D01*
X436212Y40055D01*
G37*
%LPD*%
%LPC*%
G36*
X53512Y177855D02*
X53512Y177855D01*
X48155Y183212D01*
X48155Y184969D01*
X55269Y184969D01*
X55269Y177855D01*
X53512Y177855D01*
G37*
%LPD*%
%LPC*%
G36*
X646212Y38155D02*
X646212Y38155D01*
X640855Y43512D01*
X640855Y45269D01*
X647969Y45269D01*
X647969Y38155D01*
X646212Y38155D01*
G37*
%LPD*%
%LPC*%
G36*
X83512Y107855D02*
X83512Y107855D01*
X78155Y113212D01*
X78155Y114969D01*
X85269Y114969D01*
X85269Y107855D01*
X83512Y107855D01*
G37*
%LPD*%
%LPC*%
G36*
X576212Y38155D02*
X576212Y38155D01*
X570855Y43512D01*
X570855Y45269D01*
X577969Y45269D01*
X577969Y38155D01*
X576212Y38155D01*
G37*
%LPD*%
%LPC*%
G36*
X748912Y317855D02*
X748912Y317855D01*
X743555Y323212D01*
X743555Y324969D01*
X750669Y324969D01*
X750669Y317855D01*
X748912Y317855D01*
G37*
%LPD*%
%LPC*%
G36*
X506212Y38155D02*
X506212Y38155D01*
X500855Y43512D01*
X500855Y45269D01*
X507969Y45269D01*
X507969Y38155D01*
X506212Y38155D01*
G37*
%LPD*%
%LPC*%
G36*
X53512Y317855D02*
X53512Y317855D01*
X48155Y323212D01*
X48155Y324969D01*
X55269Y324969D01*
X55269Y317855D01*
X53512Y317855D01*
G37*
%LPD*%
%LPC*%
G36*
X296212Y38155D02*
X296212Y38155D01*
X290855Y43512D01*
X290855Y45269D01*
X297969Y45269D01*
X297969Y38155D01*
X296212Y38155D01*
G37*
%LPD*%
%LPC*%
G36*
X148062Y339735D02*
X148062Y339735D01*
X142705Y345092D01*
X142705Y346849D01*
X149819Y346849D01*
X149819Y339735D01*
X148062Y339735D01*
G37*
%LPD*%
%LPC*%
G36*
X226212Y38155D02*
X226212Y38155D01*
X220855Y43512D01*
X220855Y45269D01*
X227969Y45269D01*
X227969Y38155D01*
X226212Y38155D01*
G37*
%LPD*%
%LPC*%
G36*
X716212Y427955D02*
X716212Y427955D01*
X710855Y433312D01*
X710855Y435069D01*
X717969Y435069D01*
X717969Y427955D01*
X716212Y427955D01*
G37*
%LPD*%
%LPC*%
G36*
X156212Y38155D02*
X156212Y38155D01*
X150855Y43512D01*
X150855Y45269D01*
X157969Y45269D01*
X157969Y38155D01*
X156212Y38155D01*
G37*
%LPD*%
%LPC*%
G36*
X718912Y107855D02*
X718912Y107855D01*
X713555Y113212D01*
X713555Y114969D01*
X720669Y114969D01*
X720669Y107855D01*
X718912Y107855D01*
G37*
%LPD*%
%LPC*%
G36*
X366212Y36055D02*
X366212Y36055D01*
X360855Y41412D01*
X360855Y43169D01*
X367969Y43169D01*
X367969Y36055D01*
X366212Y36055D01*
G37*
%LPD*%
%LPC*%
G36*
X115699Y428299D02*
X115699Y428299D01*
X115699Y428301D01*
X115701Y428301D01*
X115701Y428299D01*
X115699Y428299D01*
G37*
%LPD*%
D10*
X213600Y417836D02*
X213600Y431044D01*
X239000Y431044D02*
X239000Y417836D01*
X366000Y417836D02*
X366000Y431044D01*
X391400Y431044D02*
X391400Y417836D01*
X264400Y417836D02*
X264400Y431044D01*
X289800Y431044D02*
X289800Y417836D01*
X340600Y417836D02*
X340600Y431044D01*
X315200Y431044D02*
X315200Y417836D01*
X391400Y494036D02*
X391400Y507244D01*
X366000Y507244D02*
X366000Y494036D01*
X340600Y494036D02*
X340600Y507244D01*
X315200Y507244D02*
X315200Y494036D01*
X289800Y494036D02*
X289800Y507244D01*
X264400Y507244D02*
X264400Y494036D01*
X239000Y494036D02*
X239000Y507244D01*
X213600Y507244D02*
X213600Y494036D01*
D11*
X123320Y402900D02*
X108080Y402900D01*
X108080Y428300D02*
X123320Y428300D01*
X123320Y453700D02*
X108080Y453700D01*
X108080Y479100D02*
X123320Y479100D01*
X123320Y504500D02*
X108080Y504500D01*
X108080Y529900D02*
X123320Y529900D01*
D12*
X151850Y399680D03*
X151850Y348880D03*
X720000Y487900D03*
X720000Y437100D03*
D13*
X602220Y545080D03*
X653020Y545080D03*
D12*
X190000Y370800D03*
X190000Y269200D03*
D14*
X82700Y327000D03*
X57300Y327000D03*
D12*
X220000Y370800D03*
X220000Y269200D03*
X250000Y370800D03*
X250000Y269200D03*
X280000Y370800D03*
X280000Y269200D03*
X310000Y370800D03*
X310000Y269200D03*
X340000Y370800D03*
X340000Y269200D03*
X370000Y370800D03*
X370000Y269200D03*
X400000Y370800D03*
X400000Y269200D03*
D14*
X82700Y257000D03*
X57300Y257000D03*
X82700Y187000D03*
X57300Y187000D03*
X112700Y117000D03*
X87300Y117000D03*
D12*
X160000Y72700D03*
X160000Y47300D03*
X230000Y72700D03*
X230000Y47300D03*
X300000Y72700D03*
X300000Y47300D03*
D10*
X498100Y416396D02*
X498100Y429604D01*
X523500Y429604D02*
X523500Y416396D01*
X650500Y416396D02*
X650500Y429604D01*
X675900Y429604D02*
X675900Y416396D01*
X548900Y416396D02*
X548900Y429604D01*
X574300Y429604D02*
X574300Y416396D01*
X625100Y416396D02*
X625100Y429604D01*
X599700Y429604D02*
X599700Y416396D01*
X675900Y492596D02*
X675900Y505804D01*
X650500Y505804D02*
X650500Y492596D01*
X625100Y492596D02*
X625100Y505804D01*
X599700Y505804D02*
X599700Y492596D01*
X574300Y492596D02*
X574300Y505804D01*
X548900Y505804D02*
X548900Y492596D01*
X523500Y492596D02*
X523500Y505804D01*
X498100Y505804D02*
X498100Y492596D01*
D12*
X440000Y370800D03*
X440000Y269200D03*
X370000Y70600D03*
X370000Y45200D03*
X470000Y370800D03*
X470000Y269200D03*
X500000Y370800D03*
X500000Y269200D03*
X530000Y370800D03*
X530000Y269200D03*
X560000Y370800D03*
X560000Y269200D03*
X590000Y370800D03*
X590000Y269200D03*
X620000Y370800D03*
X620000Y269200D03*
X650000Y370800D03*
X650000Y269200D03*
X440000Y74600D03*
X440000Y49200D03*
X510000Y72700D03*
X510000Y47300D03*
X580000Y72700D03*
X580000Y47300D03*
X650000Y72700D03*
X650000Y47300D03*
D13*
X697300Y117000D03*
X722700Y117000D03*
X727300Y187000D03*
X752700Y187000D03*
X727300Y257000D03*
X752700Y257000D03*
X727300Y327000D03*
X752700Y327000D03*
D15*
X151850Y399680D02*
X148630Y402900D01*
X115700Y402900D01*
X151850Y399680D02*
X180000Y427830D01*
X180000Y482500D01*
X198140Y500640D01*
X213600Y500640D01*
X377500Y527500D02*
X485000Y527500D01*
X485302Y527496D01*
X485604Y527485D01*
X485905Y527467D01*
X486206Y527442D01*
X486507Y527409D01*
X486806Y527369D01*
X487104Y527322D01*
X487402Y527267D01*
X487697Y527206D01*
X487991Y527137D01*
X488284Y527061D01*
X488574Y526978D01*
X488863Y526888D01*
X489149Y526791D01*
X489433Y526688D01*
X489714Y526577D01*
X489992Y526460D01*
X490268Y526336D01*
X490540Y526205D01*
X490809Y526068D01*
X491075Y525925D01*
X491337Y525775D01*
X491596Y525618D01*
X491850Y525456D01*
X492101Y525287D01*
X492347Y525113D01*
X492590Y524932D01*
X492827Y524746D01*
X493061Y524554D01*
X493289Y524356D01*
X493513Y524153D01*
X493731Y523945D01*
X493945Y523731D01*
X494153Y523513D01*
X494356Y523289D01*
X494554Y523061D01*
X494746Y522827D01*
X494932Y522590D01*
X495113Y522347D01*
X495287Y522101D01*
X495456Y521850D01*
X495618Y521596D01*
X495775Y521337D01*
X495925Y521075D01*
X496068Y520809D01*
X496205Y520540D01*
X496336Y520268D01*
X496460Y519992D01*
X496577Y519714D01*
X496688Y519433D01*
X496791Y519149D01*
X496888Y518863D01*
X496978Y518574D01*
X497061Y518284D01*
X497137Y517991D01*
X497206Y517697D01*
X497267Y517402D01*
X497322Y517104D01*
X497369Y516806D01*
X497409Y516507D01*
X497442Y516206D01*
X497467Y515905D01*
X497485Y515604D01*
X497496Y515302D01*
X497500Y515000D01*
X497500Y499800D01*
X497502Y499753D01*
X497507Y499706D01*
X497517Y499660D01*
X497529Y499615D01*
X497546Y499570D01*
X497565Y499528D01*
X497588Y499487D01*
X497615Y499447D01*
X497644Y499410D01*
X497676Y499376D01*
X497710Y499344D01*
X497747Y499315D01*
X497787Y499288D01*
X497828Y499265D01*
X497870Y499246D01*
X497915Y499229D01*
X497960Y499217D01*
X498006Y499207D01*
X498053Y499202D01*
X498100Y499200D01*
X650500Y499200D02*
X650500Y478000D01*
X650498Y477807D01*
X650491Y477613D01*
X650479Y477421D01*
X650463Y477228D01*
X650442Y477036D01*
X650416Y476844D01*
X650386Y476653D01*
X650351Y476463D01*
X650312Y476274D01*
X650268Y476085D01*
X650219Y475898D01*
X650166Y475712D01*
X650108Y475528D01*
X650046Y475345D01*
X649980Y475163D01*
X649909Y474983D01*
X649834Y474805D01*
X649755Y474629D01*
X649671Y474454D01*
X649584Y474282D01*
X649492Y474112D01*
X649396Y473944D01*
X649296Y473779D01*
X649192Y473616D01*
X649084Y473455D01*
X648972Y473298D01*
X648857Y473143D01*
X648737Y472991D01*
X648615Y472841D01*
X648488Y472695D01*
X648358Y472552D01*
X648225Y472412D01*
X648088Y472275D01*
X647948Y472142D01*
X647805Y472012D01*
X647659Y471885D01*
X647509Y471763D01*
X647357Y471643D01*
X647202Y471528D01*
X647045Y471416D01*
X646884Y471308D01*
X646721Y471204D01*
X646556Y471104D01*
X646388Y471008D01*
X646218Y470916D01*
X646046Y470829D01*
X645871Y470745D01*
X645695Y470666D01*
X645517Y470591D01*
X645337Y470520D01*
X645155Y470454D01*
X644972Y470392D01*
X644788Y470334D01*
X644602Y470281D01*
X644415Y470232D01*
X644226Y470188D01*
X644037Y470149D01*
X643847Y470114D01*
X643656Y470084D01*
X643464Y470058D01*
X643272Y470037D01*
X643079Y470021D01*
X642887Y470009D01*
X642693Y470002D01*
X642500Y470000D01*
X512500Y470000D01*
X512198Y470004D01*
X511896Y470015D01*
X511595Y470033D01*
X511294Y470058D01*
X510993Y470091D01*
X510694Y470131D01*
X510396Y470178D01*
X510098Y470233D01*
X509803Y470294D01*
X509509Y470363D01*
X509216Y470439D01*
X508926Y470522D01*
X508637Y470612D01*
X508351Y470709D01*
X508067Y470812D01*
X507786Y470923D01*
X507508Y471040D01*
X507232Y471164D01*
X506960Y471295D01*
X506691Y471432D01*
X506425Y471575D01*
X506163Y471725D01*
X505904Y471882D01*
X505650Y472044D01*
X505399Y472213D01*
X505153Y472387D01*
X504910Y472568D01*
X504673Y472754D01*
X504439Y472946D01*
X504211Y473144D01*
X503987Y473347D01*
X503769Y473555D01*
X503555Y473769D01*
X503347Y473987D01*
X503144Y474211D01*
X502946Y474439D01*
X502754Y474673D01*
X502568Y474910D01*
X502387Y475153D01*
X502213Y475399D01*
X502044Y475650D01*
X501882Y475904D01*
X501725Y476163D01*
X501575Y476425D01*
X501432Y476691D01*
X501295Y476960D01*
X501164Y477232D01*
X501040Y477508D01*
X500923Y477786D01*
X500812Y478067D01*
X500709Y478351D01*
X500612Y478637D01*
X500522Y478926D01*
X500439Y479216D01*
X500363Y479509D01*
X500294Y479803D01*
X500233Y480098D01*
X500178Y480396D01*
X500131Y480694D01*
X500091Y480993D01*
X500058Y481294D01*
X500033Y481595D01*
X500015Y481896D01*
X500004Y482198D01*
X500000Y482500D01*
X500000Y497300D01*
X499998Y497385D01*
X499992Y497470D01*
X499983Y497555D01*
X499969Y497639D01*
X499952Y497723D01*
X499932Y497805D01*
X499907Y497887D01*
X499879Y497968D01*
X499847Y498047D01*
X499812Y498124D01*
X499773Y498200D01*
X499731Y498275D01*
X499686Y498347D01*
X499637Y498417D01*
X499585Y498485D01*
X499531Y498550D01*
X499473Y498613D01*
X499413Y498673D01*
X499350Y498731D01*
X499285Y498785D01*
X499217Y498837D01*
X499147Y498886D01*
X499075Y498931D01*
X499000Y498973D01*
X498924Y499012D01*
X498847Y499047D01*
X498768Y499079D01*
X498687Y499107D01*
X498605Y499132D01*
X498523Y499152D01*
X498439Y499169D01*
X498355Y499183D01*
X498270Y499192D01*
X498185Y499198D01*
X498100Y499200D01*
X720000Y487900D02*
X720000Y512500D01*
X719997Y512742D01*
X719988Y512983D01*
X719974Y513224D01*
X719953Y513465D01*
X719927Y513705D01*
X719895Y513945D01*
X719857Y514184D01*
X719814Y514421D01*
X719764Y514658D01*
X719709Y514893D01*
X719649Y515127D01*
X719582Y515359D01*
X719511Y515590D01*
X719433Y515819D01*
X719350Y516046D01*
X719262Y516271D01*
X719168Y516494D01*
X719069Y516714D01*
X718964Y516932D01*
X718855Y517147D01*
X718740Y517360D01*
X718620Y517570D01*
X718495Y517776D01*
X718365Y517980D01*
X718230Y518181D01*
X718090Y518378D01*
X717946Y518572D01*
X717797Y518762D01*
X717643Y518948D01*
X717485Y519131D01*
X717323Y519310D01*
X717156Y519485D01*
X716985Y519656D01*
X716810Y519823D01*
X716631Y519985D01*
X716448Y520143D01*
X716262Y520297D01*
X716072Y520446D01*
X715878Y520590D01*
X715681Y520730D01*
X715480Y520865D01*
X715276Y520995D01*
X715070Y521120D01*
X714860Y521240D01*
X714647Y521355D01*
X714432Y521464D01*
X714214Y521569D01*
X713994Y521668D01*
X713771Y521762D01*
X713546Y521850D01*
X713319Y521933D01*
X713090Y522011D01*
X712859Y522082D01*
X712627Y522149D01*
X712393Y522209D01*
X712158Y522264D01*
X711921Y522314D01*
X711684Y522357D01*
X711445Y522395D01*
X711205Y522427D01*
X710965Y522453D01*
X710724Y522474D01*
X710483Y522488D01*
X710242Y522497D01*
X710000Y522500D01*
X657500Y522500D01*
X657319Y522498D01*
X657138Y522491D01*
X656957Y522480D01*
X656776Y522465D01*
X656596Y522445D01*
X656416Y522421D01*
X656237Y522393D01*
X656059Y522360D01*
X655882Y522323D01*
X655705Y522282D01*
X655530Y522237D01*
X655355Y522187D01*
X655182Y522133D01*
X655011Y522075D01*
X654840Y522013D01*
X654672Y521946D01*
X654505Y521876D01*
X654339Y521802D01*
X654176Y521723D01*
X654015Y521641D01*
X653855Y521555D01*
X653698Y521465D01*
X653543Y521371D01*
X653390Y521274D01*
X653240Y521172D01*
X653092Y521068D01*
X652946Y520959D01*
X652804Y520848D01*
X652664Y520732D01*
X652527Y520614D01*
X652392Y520492D01*
X652261Y520367D01*
X652133Y520239D01*
X652008Y520108D01*
X651886Y519973D01*
X651768Y519836D01*
X651652Y519696D01*
X651541Y519554D01*
X651432Y519408D01*
X651328Y519260D01*
X651226Y519110D01*
X651129Y518957D01*
X651035Y518802D01*
X650945Y518645D01*
X650859Y518485D01*
X650777Y518324D01*
X650698Y518161D01*
X650624Y517995D01*
X650554Y517828D01*
X650487Y517660D01*
X650425Y517489D01*
X650367Y517318D01*
X650313Y517145D01*
X650263Y516970D01*
X650218Y516795D01*
X650177Y516618D01*
X650140Y516441D01*
X650107Y516263D01*
X650079Y516084D01*
X650055Y515904D01*
X650035Y515724D01*
X650020Y515543D01*
X650009Y515362D01*
X650002Y515181D01*
X650000Y515000D01*
X650000Y499700D01*
X650002Y499656D01*
X650008Y499613D01*
X650017Y499571D01*
X650030Y499529D01*
X650047Y499489D01*
X650067Y499450D01*
X650090Y499413D01*
X650117Y499379D01*
X650146Y499346D01*
X650179Y499317D01*
X650213Y499290D01*
X650250Y499267D01*
X650289Y499247D01*
X650329Y499230D01*
X650371Y499217D01*
X650413Y499208D01*
X650456Y499202D01*
X650500Y499200D01*
X377500Y527500D02*
X377222Y527497D01*
X376944Y527487D01*
X376667Y527470D01*
X376390Y527446D01*
X376114Y527416D01*
X375838Y527379D01*
X375564Y527336D01*
X375291Y527286D01*
X375018Y527229D01*
X374748Y527166D01*
X374479Y527096D01*
X374212Y527020D01*
X373946Y526937D01*
X373683Y526848D01*
X373422Y526753D01*
X373163Y526651D01*
X372907Y526543D01*
X372654Y526429D01*
X372403Y526309D01*
X372156Y526183D01*
X371911Y526051D01*
X371670Y525913D01*
X371432Y525769D01*
X371198Y525619D01*
X370967Y525464D01*
X370740Y525304D01*
X370518Y525138D01*
X370299Y524966D01*
X370084Y524790D01*
X369874Y524608D01*
X369668Y524421D01*
X369467Y524229D01*
X369271Y524033D01*
X369079Y523832D01*
X368892Y523626D01*
X368710Y523416D01*
X368534Y523201D01*
X368362Y522982D01*
X368196Y522760D01*
X368036Y522533D01*
X367881Y522302D01*
X367731Y522068D01*
X367587Y521830D01*
X367449Y521589D01*
X367317Y521344D01*
X367191Y521097D01*
X367071Y520846D01*
X366957Y520593D01*
X366849Y520337D01*
X366747Y520078D01*
X366652Y519817D01*
X366563Y519554D01*
X366480Y519288D01*
X366404Y519021D01*
X366334Y518752D01*
X366271Y518482D01*
X366214Y518209D01*
X366164Y517936D01*
X366121Y517662D01*
X366084Y517386D01*
X366054Y517110D01*
X366030Y516833D01*
X366013Y516556D01*
X366003Y516278D01*
X366000Y516000D01*
X366000Y500640D01*
X366000Y483500D01*
X365998Y483348D01*
X365992Y483196D01*
X365983Y483044D01*
X365969Y482893D01*
X365952Y482742D01*
X365931Y482591D01*
X365906Y482441D01*
X365877Y482292D01*
X365845Y482144D01*
X365808Y481996D01*
X365769Y481849D01*
X365725Y481704D01*
X365677Y481559D01*
X365627Y481416D01*
X365572Y481274D01*
X365514Y481134D01*
X365452Y480995D01*
X365387Y480858D01*
X365318Y480722D01*
X365246Y480588D01*
X365171Y480456D01*
X365092Y480326D01*
X365010Y480198D01*
X364925Y480072D01*
X364836Y479949D01*
X364745Y479827D01*
X364650Y479708D01*
X364553Y479592D01*
X364452Y479478D01*
X364349Y479366D01*
X364243Y479257D01*
X364134Y479151D01*
X364022Y479048D01*
X363908Y478947D01*
X363792Y478850D01*
X363673Y478755D01*
X363551Y478664D01*
X363428Y478575D01*
X363302Y478490D01*
X363174Y478408D01*
X363044Y478329D01*
X362912Y478254D01*
X362778Y478182D01*
X362642Y478113D01*
X362505Y478048D01*
X362366Y477986D01*
X362226Y477928D01*
X362084Y477873D01*
X361941Y477823D01*
X361796Y477775D01*
X361651Y477731D01*
X361504Y477692D01*
X361356Y477655D01*
X361208Y477623D01*
X361059Y477594D01*
X360909Y477569D01*
X360758Y477548D01*
X360607Y477531D01*
X360456Y477517D01*
X360304Y477508D01*
X360152Y477502D01*
X360000Y477500D01*
X220000Y477500D01*
X219860Y477502D01*
X219720Y477508D01*
X219580Y477518D01*
X219440Y477531D01*
X219301Y477549D01*
X219162Y477571D01*
X219025Y477596D01*
X218887Y477625D01*
X218751Y477658D01*
X218616Y477695D01*
X218482Y477736D01*
X218349Y477781D01*
X218217Y477829D01*
X218087Y477881D01*
X217958Y477936D01*
X217831Y477995D01*
X217705Y478058D01*
X217581Y478124D01*
X217460Y478193D01*
X217340Y478266D01*
X217222Y478343D01*
X217107Y478422D01*
X216993Y478505D01*
X216883Y478591D01*
X216774Y478680D01*
X216668Y478772D01*
X216565Y478867D01*
X216464Y478964D01*
X216367Y479065D01*
X216272Y479168D01*
X216180Y479274D01*
X216091Y479383D01*
X216005Y479493D01*
X215922Y479607D01*
X215843Y479722D01*
X215766Y479840D01*
X215693Y479960D01*
X215624Y480081D01*
X215558Y480205D01*
X215495Y480331D01*
X215436Y480458D01*
X215381Y480587D01*
X215329Y480717D01*
X215281Y480849D01*
X215236Y480982D01*
X215195Y481116D01*
X215158Y481251D01*
X215125Y481387D01*
X215096Y481525D01*
X215071Y481662D01*
X215049Y481801D01*
X215031Y481940D01*
X215018Y482080D01*
X215008Y482220D01*
X215002Y482360D01*
X215000Y482500D01*
X215000Y499240D01*
X214998Y499313D01*
X214992Y499386D01*
X214983Y499459D01*
X214969Y499531D01*
X214952Y499602D01*
X214931Y499673D01*
X214907Y499742D01*
X214879Y499809D01*
X214847Y499876D01*
X214812Y499940D01*
X214774Y500002D01*
X214733Y500063D01*
X214688Y500121D01*
X214640Y500177D01*
X214590Y500230D01*
X214537Y500280D01*
X214481Y500328D01*
X214423Y500373D01*
X214362Y500414D01*
X214300Y500452D01*
X214236Y500487D01*
X214169Y500519D01*
X214102Y500547D01*
X214033Y500571D01*
X213962Y500592D01*
X213891Y500609D01*
X213819Y500623D01*
X213746Y500632D01*
X213673Y500638D01*
X213600Y500640D01*
D16*
X239000Y500640D02*
X239000Y513500D01*
X227500Y525000D01*
X155000Y437500D02*
X160000Y432500D01*
D17*
X160000Y432500D03*
D16*
X155000Y504880D02*
X175120Y525000D01*
X227500Y525000D01*
X155000Y504880D02*
X155000Y437500D01*
X567500Y560000D02*
X582500Y545000D01*
X602140Y545000D01*
X602220Y545080D01*
X602220Y501720D01*
X599700Y499200D01*
D18*
X537500Y560000D03*
D16*
X567500Y560000D01*
D17*
X497500Y577500D03*
D16*
X530000Y545000D01*
X555000Y545000D01*
X574300Y525700D01*
X574300Y499200D01*
M02*
