G04 EAGLE Gerber RS-274X export*
G75*
%MOMM*%
%FSLAX34Y34*%
%LPD*%
%INTop Copper*%
%IPPOS*%
%AMOC8*
5,1,8,0,0,1.08239X$1,22.5*%
G01*
%ADD10C,1.320800*%
%ADD11C,1.524000*%
%ADD12P,1.429621X8X292.500000*%
%ADD13P,1.429621X8X22.500000*%
%ADD14P,1.429621X8X202.500000*%
%ADD15C,0.906400*%
%ADD16C,0.254000*%
%ADD17C,0.812800*%

G36*
X731733Y10163D02*
X731733Y10163D01*
X731778Y10162D01*
X737351Y10436D01*
X737364Y10438D01*
X737377Y10438D01*
X737536Y10459D01*
X748467Y12633D01*
X748509Y12647D01*
X748553Y12653D01*
X748705Y12705D01*
X759002Y16971D01*
X759041Y16993D01*
X759083Y17007D01*
X759222Y17088D01*
X768489Y23280D01*
X768522Y23309D01*
X768560Y23331D01*
X768681Y23438D01*
X776562Y31319D01*
X776589Y31354D01*
X776622Y31383D01*
X776720Y31511D01*
X782912Y40778D01*
X782932Y40818D01*
X782958Y40853D01*
X783029Y40998D01*
X787295Y51295D01*
X787306Y51337D01*
X787325Y51377D01*
X787367Y51533D01*
X789541Y62464D01*
X789542Y62477D01*
X789546Y62489D01*
X789564Y62649D01*
X789838Y68222D01*
X789836Y68239D01*
X789839Y68284D01*
X789839Y531716D01*
X789837Y531733D01*
X789838Y531778D01*
X789564Y537351D01*
X789562Y537364D01*
X789562Y537377D01*
X789541Y537536D01*
X787367Y548467D01*
X787353Y548509D01*
X787347Y548553D01*
X787295Y548705D01*
X783029Y559002D01*
X783023Y559014D01*
X783022Y559016D01*
X783016Y559027D01*
X783007Y559041D01*
X782993Y559083D01*
X782912Y559222D01*
X776720Y568489D01*
X776691Y568522D01*
X776669Y568560D01*
X776562Y568681D01*
X768681Y576562D01*
X768646Y576589D01*
X768617Y576622D01*
X768489Y576720D01*
X759222Y582912D01*
X759182Y582932D01*
X759147Y582958D01*
X759002Y583029D01*
X748705Y587295D01*
X748663Y587306D01*
X748623Y587325D01*
X748467Y587367D01*
X737536Y589541D01*
X737523Y589542D01*
X737511Y589546D01*
X737351Y589564D01*
X731778Y589838D01*
X731761Y589836D01*
X731716Y589839D01*
X68284Y589839D01*
X68267Y589837D01*
X68222Y589838D01*
X62649Y589564D01*
X62636Y589562D01*
X62623Y589562D01*
X62464Y589541D01*
X51533Y587367D01*
X51491Y587353D01*
X51447Y587347D01*
X51295Y587295D01*
X40998Y583029D01*
X40959Y583007D01*
X40917Y582993D01*
X40778Y582912D01*
X31511Y576720D01*
X31478Y576691D01*
X31440Y576669D01*
X31319Y576562D01*
X23438Y568681D01*
X23411Y568646D01*
X23378Y568617D01*
X23280Y568489D01*
X17088Y559222D01*
X17068Y559182D01*
X17042Y559147D01*
X16971Y559002D01*
X12705Y548705D01*
X12694Y548663D01*
X12675Y548623D01*
X12633Y548467D01*
X10459Y537536D01*
X10458Y537523D01*
X10454Y537511D01*
X10436Y537351D01*
X10162Y531778D01*
X10164Y531761D01*
X10161Y531716D01*
X10161Y68284D01*
X10163Y68267D01*
X10162Y68222D01*
X10436Y62649D01*
X10438Y62636D01*
X10438Y62623D01*
X10459Y62464D01*
X12633Y51533D01*
X12647Y51491D01*
X12653Y51447D01*
X12705Y51295D01*
X16971Y40998D01*
X16993Y40959D01*
X17007Y40917D01*
X17088Y40778D01*
X23280Y31511D01*
X23309Y31478D01*
X23331Y31440D01*
X23438Y31319D01*
X31319Y23438D01*
X31354Y23411D01*
X31383Y23378D01*
X31511Y23280D01*
X40778Y17088D01*
X40818Y17068D01*
X40853Y17042D01*
X40998Y16971D01*
X51295Y12705D01*
X51337Y12694D01*
X51377Y12675D01*
X51533Y12633D01*
X62464Y10459D01*
X62477Y10458D01*
X62489Y10454D01*
X62649Y10436D01*
X68222Y10162D01*
X68239Y10164D01*
X68284Y10161D01*
X731716Y10161D01*
X731733Y10163D01*
G37*
%LPC*%
G36*
X105958Y443031D02*
X105958Y443031D01*
X102037Y444655D01*
X99035Y447657D01*
X97411Y451578D01*
X97411Y455822D01*
X99035Y459743D01*
X102037Y462745D01*
X105958Y464369D01*
X125442Y464369D01*
X129363Y462745D01*
X132365Y459743D01*
X132754Y458802D01*
X132769Y458777D01*
X132778Y458749D01*
X132847Y458639D01*
X132912Y458526D01*
X132932Y458505D01*
X132948Y458480D01*
X133043Y458391D01*
X133133Y458298D01*
X133158Y458282D01*
X133180Y458262D01*
X133294Y458199D01*
X133404Y458131D01*
X133432Y458123D01*
X133458Y458108D01*
X133584Y458076D01*
X133708Y458038D01*
X133738Y458036D01*
X133766Y458029D01*
X133927Y458019D01*
X190309Y458019D01*
X190447Y458036D01*
X190586Y458049D01*
X190605Y458056D01*
X190625Y458059D01*
X190754Y458110D01*
X190885Y458157D01*
X190902Y458168D01*
X190921Y458176D01*
X191033Y458257D01*
X191148Y458335D01*
X191162Y458351D01*
X191178Y458362D01*
X191267Y458470D01*
X191359Y458574D01*
X191368Y458592D01*
X191381Y458607D01*
X191440Y458733D01*
X191503Y458857D01*
X191508Y458877D01*
X191516Y458895D01*
X191542Y459031D01*
X191573Y459167D01*
X191572Y459188D01*
X191576Y459207D01*
X191567Y459346D01*
X191563Y459485D01*
X191558Y459505D01*
X191556Y459525D01*
X191514Y459657D01*
X191475Y459791D01*
X191465Y459808D01*
X191458Y459827D01*
X191384Y459945D01*
X191313Y460065D01*
X191295Y460086D01*
X191288Y460096D01*
X191273Y460110D01*
X191207Y460185D01*
X176983Y474410D01*
X176905Y474470D01*
X176832Y474538D01*
X176779Y474567D01*
X176732Y474604D01*
X176641Y474644D01*
X176554Y474692D01*
X176495Y474707D01*
X176440Y474731D01*
X176342Y474746D01*
X176246Y474771D01*
X176146Y474777D01*
X176126Y474781D01*
X176113Y474779D01*
X176085Y474781D01*
X133927Y474781D01*
X133898Y474778D01*
X133868Y474780D01*
X133740Y474758D01*
X133611Y474741D01*
X133584Y474731D01*
X133555Y474726D01*
X133436Y474672D01*
X133316Y474624D01*
X133292Y474607D01*
X133265Y474595D01*
X133163Y474514D01*
X133058Y474438D01*
X133040Y474415D01*
X133016Y474396D01*
X132938Y474293D01*
X132856Y474193D01*
X132843Y474166D01*
X132825Y474142D01*
X132754Y473998D01*
X132365Y473057D01*
X129363Y470055D01*
X125442Y468431D01*
X105958Y468431D01*
X102037Y470055D01*
X99035Y473057D01*
X97411Y476978D01*
X97411Y481222D01*
X99035Y485143D01*
X102037Y488145D01*
X105958Y489769D01*
X125442Y489769D01*
X129363Y488145D01*
X132365Y485143D01*
X132754Y484202D01*
X132769Y484177D01*
X132778Y484149D01*
X132847Y484039D01*
X132912Y483926D01*
X132932Y483905D01*
X132948Y483880D01*
X133043Y483791D01*
X133133Y483698D01*
X133158Y483682D01*
X133180Y483662D01*
X133294Y483599D01*
X133404Y483531D01*
X133432Y483523D01*
X133458Y483508D01*
X133584Y483476D01*
X133708Y483438D01*
X133738Y483436D01*
X133766Y483429D01*
X133927Y483419D01*
X174909Y483419D01*
X175047Y483436D01*
X175186Y483449D01*
X175205Y483456D01*
X175225Y483459D01*
X175354Y483510D01*
X175485Y483557D01*
X175502Y483568D01*
X175521Y483576D01*
X175633Y483657D01*
X175748Y483735D01*
X175762Y483751D01*
X175778Y483762D01*
X175867Y483870D01*
X175959Y483974D01*
X175968Y483992D01*
X175981Y484007D01*
X176040Y484133D01*
X176103Y484257D01*
X176108Y484277D01*
X176116Y484295D01*
X176142Y484431D01*
X176173Y484567D01*
X176172Y484588D01*
X176176Y484607D01*
X176167Y484746D01*
X176163Y484885D01*
X176158Y484905D01*
X176156Y484925D01*
X176114Y485057D01*
X176075Y485191D01*
X176065Y485208D01*
X176058Y485227D01*
X175984Y485345D01*
X175913Y485465D01*
X175895Y485486D01*
X175888Y485496D01*
X175873Y485510D01*
X175807Y485585D01*
X161583Y499810D01*
X161505Y499870D01*
X161432Y499938D01*
X161379Y499967D01*
X161332Y500004D01*
X161241Y500044D01*
X161154Y500092D01*
X161095Y500107D01*
X161040Y500131D01*
X160942Y500146D01*
X160846Y500171D01*
X160746Y500177D01*
X160726Y500181D01*
X160713Y500179D01*
X160685Y500181D01*
X133927Y500181D01*
X133898Y500178D01*
X133868Y500180D01*
X133740Y500158D01*
X133611Y500141D01*
X133584Y500131D01*
X133555Y500126D01*
X133436Y500072D01*
X133316Y500024D01*
X133292Y500007D01*
X133265Y499995D01*
X133163Y499914D01*
X133058Y499838D01*
X133040Y499815D01*
X133016Y499796D01*
X132938Y499693D01*
X132856Y499593D01*
X132843Y499566D01*
X132825Y499542D01*
X132754Y499398D01*
X132365Y498457D01*
X129363Y495455D01*
X125442Y493831D01*
X105958Y493831D01*
X102037Y495455D01*
X99035Y498457D01*
X97411Y502378D01*
X97411Y506622D01*
X99035Y510543D01*
X102037Y513545D01*
X105958Y515169D01*
X125442Y515169D01*
X129363Y513545D01*
X132365Y510543D01*
X132754Y509602D01*
X132769Y509577D01*
X132778Y509549D01*
X132847Y509439D01*
X132912Y509326D01*
X132932Y509305D01*
X132948Y509280D01*
X133043Y509191D01*
X133133Y509098D01*
X133158Y509082D01*
X133180Y509062D01*
X133294Y508999D01*
X133404Y508931D01*
X133432Y508923D01*
X133458Y508908D01*
X133584Y508876D01*
X133708Y508838D01*
X133738Y508836D01*
X133766Y508829D01*
X133927Y508819D01*
X164789Y508819D01*
X201417Y472190D01*
X201495Y472130D01*
X201568Y472062D01*
X201621Y472033D01*
X201668Y471996D01*
X201759Y471956D01*
X201846Y471908D01*
X201905Y471893D01*
X201960Y471869D01*
X202058Y471854D01*
X202154Y471829D01*
X202254Y471823D01*
X202274Y471819D01*
X202287Y471821D01*
X202315Y471819D01*
X275185Y471819D01*
X275284Y471831D01*
X275383Y471834D01*
X275441Y471851D01*
X275501Y471859D01*
X275593Y471895D01*
X275688Y471923D01*
X275740Y471953D01*
X275797Y471976D01*
X275877Y472034D01*
X275962Y472084D01*
X276037Y472150D01*
X276054Y472162D01*
X276062Y472172D01*
X276083Y472190D01*
X285310Y481417D01*
X285370Y481495D01*
X285438Y481568D01*
X285467Y481621D01*
X285482Y481640D01*
X285483Y481641D01*
X285484Y481641D01*
X285504Y481668D01*
X285544Y481759D01*
X285592Y481846D01*
X285606Y481901D01*
X285619Y481929D01*
X285620Y481936D01*
X285631Y481960D01*
X285646Y482058D01*
X285671Y482154D01*
X285676Y482225D01*
X285679Y482241D01*
X285678Y482256D01*
X285681Y482274D01*
X285679Y482287D01*
X285681Y482315D01*
X285681Y484446D01*
X285678Y484475D01*
X285680Y484505D01*
X285658Y484633D01*
X285641Y484761D01*
X285631Y484789D01*
X285626Y484818D01*
X285572Y484937D01*
X285524Y485057D01*
X285507Y485081D01*
X285495Y485108D01*
X285414Y485210D01*
X285338Y485314D01*
X285315Y485333D01*
X285296Y485356D01*
X285193Y485434D01*
X285093Y485517D01*
X285066Y485530D01*
X285042Y485548D01*
X284898Y485619D01*
X284332Y485853D01*
X281617Y488568D01*
X280147Y492116D01*
X280147Y509164D01*
X281617Y512712D01*
X284332Y515427D01*
X284698Y515579D01*
X284723Y515593D01*
X284751Y515602D01*
X284861Y515672D01*
X284974Y515736D01*
X284995Y515757D01*
X285020Y515772D01*
X285109Y515867D01*
X285202Y515957D01*
X285218Y515983D01*
X285238Y516004D01*
X285301Y516118D01*
X285369Y516229D01*
X285377Y516257D01*
X285392Y516283D01*
X285424Y516408D01*
X285462Y516532D01*
X285464Y516562D01*
X285471Y516591D01*
X285481Y516751D01*
X285481Y536589D01*
X330711Y581819D01*
X490572Y581819D01*
X490670Y581831D01*
X490769Y581834D01*
X490828Y581851D01*
X490888Y581859D01*
X490980Y581895D01*
X491075Y581923D01*
X491127Y581953D01*
X491183Y581976D01*
X491263Y582034D01*
X491349Y582084D01*
X491424Y582150D01*
X491441Y582162D01*
X491449Y582172D01*
X491470Y582190D01*
X493206Y583927D01*
X495992Y585081D01*
X499008Y585081D01*
X501794Y583927D01*
X503927Y581794D01*
X505081Y579008D01*
X505081Y575992D01*
X503927Y573206D01*
X501794Y571073D01*
X499008Y569919D01*
X495992Y569919D01*
X493206Y571073D01*
X491470Y572810D01*
X491391Y572870D01*
X491319Y572938D01*
X491266Y572967D01*
X491218Y573004D01*
X491127Y573044D01*
X491041Y573092D01*
X490982Y573107D01*
X490927Y573131D01*
X490829Y573146D01*
X490733Y573171D01*
X490633Y573177D01*
X490612Y573181D01*
X490600Y573179D01*
X490572Y573181D01*
X334815Y573181D01*
X334716Y573169D01*
X334617Y573166D01*
X334559Y573149D01*
X334499Y573141D01*
X334407Y573105D01*
X334312Y573077D01*
X334260Y573047D01*
X334203Y573024D01*
X334123Y572966D01*
X334038Y572916D01*
X333963Y572850D01*
X333946Y572838D01*
X333938Y572828D01*
X333917Y572810D01*
X294490Y533383D01*
X294430Y533305D01*
X294362Y533232D01*
X294333Y533179D01*
X294296Y533132D01*
X294256Y533041D01*
X294208Y532954D01*
X294193Y532895D01*
X294169Y532840D01*
X294154Y532742D01*
X294129Y532646D01*
X294123Y532546D01*
X294119Y532526D01*
X294121Y532513D01*
X294119Y532485D01*
X294119Y516751D01*
X294122Y516722D01*
X294120Y516692D01*
X294142Y516565D01*
X294159Y516436D01*
X294169Y516408D01*
X294174Y516379D01*
X294228Y516260D01*
X294276Y516140D01*
X294293Y516116D01*
X294305Y516089D01*
X294386Y515988D01*
X294462Y515883D01*
X294485Y515864D01*
X294504Y515841D01*
X294607Y515763D01*
X294707Y515680D01*
X294734Y515667D01*
X294758Y515650D01*
X294902Y515579D01*
X295268Y515427D01*
X297983Y512712D01*
X299453Y509164D01*
X299453Y492116D01*
X297983Y488568D01*
X295268Y485853D01*
X295102Y485784D01*
X295077Y485770D01*
X295049Y485761D01*
X294939Y485691D01*
X294826Y485627D01*
X294805Y485606D01*
X294780Y485590D01*
X294691Y485496D01*
X294598Y485405D01*
X294582Y485380D01*
X294562Y485359D01*
X294499Y485245D01*
X294431Y485134D01*
X294423Y485106D01*
X294408Y485080D01*
X294376Y484955D01*
X294338Y484830D01*
X294336Y484801D01*
X294329Y484772D01*
X294319Y484612D01*
X294319Y478211D01*
X291417Y475310D01*
X282593Y466485D01*
X282508Y466376D01*
X282419Y466269D01*
X282411Y466250D01*
X282398Y466234D01*
X282343Y466106D01*
X282284Y465981D01*
X282280Y465961D01*
X282272Y465942D01*
X282250Y465804D01*
X282224Y465668D01*
X282225Y465648D01*
X282222Y465628D01*
X282235Y465489D01*
X282244Y465351D01*
X282250Y465332D01*
X282252Y465312D01*
X282299Y465180D01*
X282342Y465049D01*
X282352Y465031D01*
X282359Y465012D01*
X282437Y464897D01*
X282512Y464780D01*
X282527Y464766D01*
X282538Y464749D01*
X282642Y464657D01*
X282743Y464562D01*
X282761Y464552D01*
X282776Y464539D01*
X282900Y464475D01*
X283022Y464408D01*
X283042Y464403D01*
X283060Y464394D01*
X283195Y464364D01*
X283330Y464329D01*
X283358Y464327D01*
X283370Y464324D01*
X283390Y464325D01*
X283491Y464319D01*
X292685Y464319D01*
X292784Y464331D01*
X292883Y464334D01*
X292941Y464351D01*
X293001Y464359D01*
X293093Y464395D01*
X293188Y464423D01*
X293240Y464453D01*
X293297Y464476D01*
X293377Y464534D01*
X293462Y464584D01*
X293537Y464650D01*
X293554Y464662D01*
X293562Y464672D01*
X293583Y464690D01*
X310510Y481617D01*
X310570Y481695D01*
X310638Y481768D01*
X310667Y481821D01*
X310704Y481868D01*
X310744Y481959D01*
X310792Y482046D01*
X310807Y482105D01*
X310831Y482160D01*
X310846Y482258D01*
X310871Y482354D01*
X310877Y482454D01*
X310881Y482474D01*
X310879Y482487D01*
X310881Y482515D01*
X310881Y484529D01*
X310878Y484558D01*
X310880Y484588D01*
X310858Y484715D01*
X310841Y484844D01*
X310831Y484872D01*
X310826Y484901D01*
X310772Y485020D01*
X310724Y485140D01*
X310707Y485164D01*
X310695Y485191D01*
X310614Y485292D01*
X310538Y485397D01*
X310515Y485416D01*
X310496Y485439D01*
X310393Y485517D01*
X310293Y485600D01*
X310266Y485613D01*
X310242Y485630D01*
X310098Y485701D01*
X309732Y485853D01*
X307017Y488568D01*
X305547Y492116D01*
X305547Y509164D01*
X307017Y512712D01*
X309732Y515427D01*
X310098Y515579D01*
X310123Y515593D01*
X310151Y515602D01*
X310261Y515672D01*
X310374Y515736D01*
X310395Y515757D01*
X310420Y515772D01*
X310509Y515867D01*
X310602Y515957D01*
X310618Y515983D01*
X310638Y516004D01*
X310701Y516118D01*
X310769Y516229D01*
X310777Y516257D01*
X310792Y516283D01*
X310824Y516408D01*
X310862Y516532D01*
X310864Y516562D01*
X310871Y516591D01*
X310881Y516751D01*
X310881Y536989D01*
X338211Y564319D01*
X531234Y564319D01*
X531332Y564331D01*
X531431Y564334D01*
X531490Y564351D01*
X531550Y564359D01*
X531642Y564395D01*
X531737Y564423D01*
X531789Y564453D01*
X531845Y564476D01*
X531925Y564534D01*
X532011Y564584D01*
X532086Y564650D01*
X532103Y564662D01*
X532110Y564672D01*
X532132Y564690D01*
X533471Y566030D01*
X536085Y567113D01*
X538915Y567113D01*
X541529Y566030D01*
X543530Y564029D01*
X544613Y561415D01*
X544613Y558585D01*
X543530Y555971D01*
X541529Y553970D01*
X538915Y552887D01*
X536085Y552887D01*
X533471Y553970D01*
X532132Y555310D01*
X532053Y555370D01*
X531981Y555438D01*
X531928Y555467D01*
X531880Y555504D01*
X531789Y555544D01*
X531703Y555592D01*
X531644Y555607D01*
X531588Y555631D01*
X531490Y555646D01*
X531395Y555671D01*
X531295Y555677D01*
X531274Y555681D01*
X531262Y555679D01*
X531234Y555681D01*
X342315Y555681D01*
X342216Y555669D01*
X342117Y555666D01*
X342059Y555649D01*
X341999Y555641D01*
X341907Y555605D01*
X341812Y555577D01*
X341760Y555547D01*
X341703Y555524D01*
X341623Y555466D01*
X341538Y555416D01*
X341463Y555350D01*
X341446Y555338D01*
X341438Y555328D01*
X341417Y555310D01*
X319890Y533783D01*
X319830Y533705D01*
X319762Y533632D01*
X319733Y533579D01*
X319696Y533532D01*
X319656Y533441D01*
X319608Y533354D01*
X319593Y533295D01*
X319569Y533240D01*
X319554Y533142D01*
X319529Y533046D01*
X319523Y532946D01*
X319519Y532926D01*
X319521Y532913D01*
X319519Y532885D01*
X319519Y516751D01*
X319522Y516722D01*
X319520Y516692D01*
X319542Y516565D01*
X319559Y516436D01*
X319569Y516408D01*
X319574Y516379D01*
X319628Y516260D01*
X319676Y516140D01*
X319693Y516116D01*
X319705Y516089D01*
X319786Y515988D01*
X319862Y515883D01*
X319885Y515864D01*
X319904Y515841D01*
X320007Y515763D01*
X320107Y515680D01*
X320134Y515667D01*
X320158Y515650D01*
X320302Y515579D01*
X320668Y515427D01*
X323383Y512712D01*
X324853Y509164D01*
X324853Y492116D01*
X323383Y488568D01*
X320668Y485853D01*
X320302Y485701D01*
X320277Y485687D01*
X320249Y485678D01*
X320139Y485608D01*
X320026Y485544D01*
X320005Y485523D01*
X319980Y485508D01*
X319891Y485413D01*
X319798Y485323D01*
X319782Y485297D01*
X319762Y485276D01*
X319699Y485162D01*
X319631Y485051D01*
X319623Y485023D01*
X319608Y484997D01*
X319576Y484872D01*
X319538Y484748D01*
X319536Y484718D01*
X319529Y484689D01*
X319519Y484529D01*
X319519Y478411D01*
X301293Y460185D01*
X301208Y460076D01*
X301119Y459969D01*
X301111Y459950D01*
X301098Y459934D01*
X301043Y459806D01*
X300984Y459681D01*
X300980Y459661D01*
X300972Y459642D01*
X300950Y459504D01*
X300924Y459368D01*
X300925Y459348D01*
X300922Y459328D01*
X300935Y459189D01*
X300944Y459051D01*
X300950Y459032D01*
X300952Y459012D01*
X300999Y458880D01*
X301042Y458749D01*
X301052Y458731D01*
X301059Y458712D01*
X301137Y458597D01*
X301212Y458480D01*
X301227Y458466D01*
X301238Y458449D01*
X301342Y458357D01*
X301443Y458262D01*
X301461Y458252D01*
X301476Y458239D01*
X301600Y458175D01*
X301722Y458108D01*
X301742Y458103D01*
X301760Y458094D01*
X301895Y458064D01*
X302030Y458029D01*
X302058Y458027D01*
X302070Y458024D01*
X302090Y458025D01*
X302191Y458019D01*
X311385Y458019D01*
X311484Y458031D01*
X311583Y458034D01*
X311641Y458051D01*
X311701Y458059D01*
X311793Y458095D01*
X311888Y458123D01*
X311940Y458153D01*
X311997Y458176D01*
X312077Y458234D01*
X312162Y458284D01*
X312237Y458350D01*
X312254Y458362D01*
X312262Y458372D01*
X312283Y458390D01*
X335910Y482017D01*
X335970Y482095D01*
X336038Y482168D01*
X336067Y482221D01*
X336104Y482268D01*
X336144Y482359D01*
X336192Y482446D01*
X336207Y482505D01*
X336231Y482560D01*
X336246Y482658D01*
X336271Y482754D01*
X336277Y482854D01*
X336281Y482874D01*
X336279Y482887D01*
X336281Y482915D01*
X336281Y484529D01*
X336278Y484558D01*
X336280Y484588D01*
X336258Y484715D01*
X336241Y484844D01*
X336231Y484872D01*
X336226Y484901D01*
X336172Y485020D01*
X336124Y485140D01*
X336107Y485164D01*
X336095Y485191D01*
X336014Y485292D01*
X335938Y485397D01*
X335915Y485416D01*
X335896Y485439D01*
X335793Y485517D01*
X335693Y485600D01*
X335666Y485613D01*
X335642Y485630D01*
X335498Y485701D01*
X335132Y485853D01*
X332417Y488568D01*
X330947Y492116D01*
X330947Y509164D01*
X332417Y512712D01*
X335132Y515427D01*
X335498Y515579D01*
X335523Y515593D01*
X335551Y515602D01*
X335661Y515672D01*
X335774Y515736D01*
X335795Y515757D01*
X335820Y515772D01*
X335909Y515867D01*
X336002Y515957D01*
X336018Y515983D01*
X336038Y516004D01*
X336101Y516118D01*
X336169Y516229D01*
X336177Y516257D01*
X336192Y516283D01*
X336224Y516408D01*
X336262Y516532D01*
X336264Y516562D01*
X336271Y516591D01*
X336281Y516751D01*
X336281Y529889D01*
X350310Y543917D01*
X353211Y546819D01*
X555185Y546819D01*
X555284Y546831D01*
X555383Y546834D01*
X555441Y546851D01*
X555501Y546859D01*
X555593Y546895D01*
X555688Y546923D01*
X555740Y546953D01*
X555797Y546976D01*
X555877Y547034D01*
X555962Y547084D01*
X556037Y547150D01*
X556054Y547162D01*
X556062Y547172D01*
X556083Y547190D01*
X575711Y566819D01*
X614289Y566819D01*
X629419Y551689D01*
X629419Y515311D01*
X629422Y515282D01*
X629420Y515252D01*
X629437Y515158D01*
X629441Y515085D01*
X629451Y515054D01*
X629459Y514996D01*
X629469Y514968D01*
X629474Y514939D01*
X629524Y514829D01*
X629539Y514783D01*
X629549Y514767D01*
X629576Y514700D01*
X629593Y514676D01*
X629605Y514649D01*
X629686Y514548D01*
X629700Y514529D01*
X629709Y514514D01*
X629714Y514510D01*
X629762Y514443D01*
X629785Y514424D01*
X629804Y514401D01*
X629907Y514323D01*
X630007Y514240D01*
X630034Y514227D01*
X630058Y514210D01*
X630202Y514139D01*
X630568Y513987D01*
X633283Y511272D01*
X634753Y507724D01*
X634753Y490676D01*
X633283Y487128D01*
X630568Y484413D01*
X627020Y482943D01*
X623180Y482943D01*
X619632Y484413D01*
X616917Y487128D01*
X615447Y490676D01*
X615447Y507724D01*
X616917Y511272D01*
X619632Y513987D01*
X619998Y514139D01*
X620023Y514153D01*
X620051Y514162D01*
X620161Y514232D01*
X620274Y514296D01*
X620295Y514317D01*
X620320Y514332D01*
X620409Y514427D01*
X620502Y514517D01*
X620518Y514543D01*
X620538Y514564D01*
X620576Y514632D01*
X620583Y514642D01*
X620598Y514674D01*
X620601Y514678D01*
X620669Y514789D01*
X620677Y514817D01*
X620692Y514843D01*
X620708Y514906D01*
X620719Y514929D01*
X620730Y514988D01*
X620762Y515092D01*
X620764Y515122D01*
X620771Y515151D01*
X620776Y515227D01*
X620779Y515242D01*
X620778Y515256D01*
X620781Y515311D01*
X620781Y547585D01*
X620769Y547684D01*
X620766Y547783D01*
X620749Y547841D01*
X620741Y547901D01*
X620705Y547993D01*
X620677Y548088D01*
X620647Y548140D01*
X620624Y548197D01*
X620566Y548277D01*
X620516Y548362D01*
X620450Y548437D01*
X620438Y548454D01*
X620428Y548462D01*
X620410Y548483D01*
X611083Y557810D01*
X611005Y557870D01*
X610932Y557938D01*
X610879Y557967D01*
X610832Y558004D01*
X610741Y558044D01*
X610654Y558092D01*
X610595Y558107D01*
X610540Y558131D01*
X610442Y558146D01*
X610346Y558171D01*
X610246Y558177D01*
X610226Y558181D01*
X610213Y558179D01*
X610185Y558181D01*
X579815Y558181D01*
X579716Y558169D01*
X579617Y558166D01*
X579559Y558149D01*
X579499Y558141D01*
X579407Y558105D01*
X579312Y558077D01*
X579260Y558047D01*
X579203Y558024D01*
X579123Y557966D01*
X579038Y557916D01*
X578963Y557850D01*
X578946Y557838D01*
X578938Y557828D01*
X578917Y557810D01*
X559289Y538181D01*
X357315Y538181D01*
X357216Y538169D01*
X357117Y538166D01*
X357059Y538149D01*
X356999Y538141D01*
X356907Y538105D01*
X356812Y538077D01*
X356760Y538047D01*
X356703Y538024D01*
X356623Y537966D01*
X356538Y537916D01*
X356463Y537850D01*
X356446Y537838D01*
X356439Y537829D01*
X356434Y537825D01*
X356430Y537821D01*
X356417Y537810D01*
X345290Y526683D01*
X345230Y526605D01*
X345162Y526532D01*
X345133Y526479D01*
X345096Y526432D01*
X345056Y526341D01*
X345008Y526254D01*
X344993Y526195D01*
X344969Y526140D01*
X344954Y526042D01*
X344929Y525946D01*
X344923Y525846D01*
X344919Y525826D01*
X344921Y525813D01*
X344919Y525785D01*
X344919Y516751D01*
X344922Y516722D01*
X344920Y516692D01*
X344942Y516565D01*
X344959Y516436D01*
X344969Y516408D01*
X344974Y516379D01*
X345028Y516260D01*
X345076Y516140D01*
X345093Y516116D01*
X345105Y516089D01*
X345186Y515988D01*
X345262Y515883D01*
X345285Y515864D01*
X345304Y515841D01*
X345407Y515763D01*
X345507Y515680D01*
X345534Y515667D01*
X345558Y515650D01*
X345702Y515579D01*
X346068Y515427D01*
X348783Y512712D01*
X350253Y509164D01*
X350253Y492116D01*
X348783Y488568D01*
X346068Y485853D01*
X345702Y485701D01*
X345677Y485687D01*
X345649Y485678D01*
X345539Y485608D01*
X345426Y485544D01*
X345405Y485523D01*
X345380Y485508D01*
X345291Y485413D01*
X345198Y485323D01*
X345182Y485297D01*
X345162Y485276D01*
X345099Y485162D01*
X345031Y485051D01*
X345023Y485023D01*
X345008Y484997D01*
X344976Y484872D01*
X344938Y484748D01*
X344936Y484718D01*
X344929Y484689D01*
X344919Y484529D01*
X344919Y478811D01*
X315489Y449381D01*
X133927Y449381D01*
X133898Y449378D01*
X133868Y449380D01*
X133740Y449358D01*
X133611Y449341D01*
X133584Y449331D01*
X133555Y449326D01*
X133436Y449272D01*
X133316Y449224D01*
X133292Y449207D01*
X133265Y449195D01*
X133163Y449114D01*
X133058Y449038D01*
X133040Y449015D01*
X133016Y448996D01*
X132938Y448893D01*
X132856Y448793D01*
X132843Y448766D01*
X132825Y448742D01*
X132754Y448598D01*
X132365Y447657D01*
X129363Y444655D01*
X125442Y443031D01*
X105958Y443031D01*
G37*
%LPD*%
%LPC*%
G36*
X156002Y63047D02*
X156002Y63047D01*
X150347Y68702D01*
X150347Y76698D01*
X156002Y82353D01*
X163019Y82353D01*
X163118Y82365D01*
X163217Y82368D01*
X163275Y82385D01*
X163335Y82393D01*
X163427Y82429D01*
X163522Y82457D01*
X163574Y82487D01*
X163631Y82510D01*
X163711Y82568D01*
X163796Y82618D01*
X163871Y82684D01*
X163888Y82696D01*
X163896Y82706D01*
X163917Y82724D01*
X305310Y224117D01*
X305370Y224195D01*
X305438Y224268D01*
X305467Y224321D01*
X305504Y224368D01*
X305544Y224459D01*
X305592Y224546D01*
X305607Y224605D01*
X305631Y224660D01*
X305646Y224758D01*
X305671Y224854D01*
X305677Y224954D01*
X305681Y224974D01*
X305679Y224987D01*
X305681Y225015D01*
X305681Y259342D01*
X305669Y259440D01*
X305666Y259539D01*
X305649Y259597D01*
X305641Y259658D01*
X305605Y259750D01*
X305577Y259845D01*
X305547Y259897D01*
X305524Y259953D01*
X305466Y260033D01*
X305416Y260119D01*
X305350Y260194D01*
X305338Y260211D01*
X305328Y260218D01*
X305310Y260240D01*
X300347Y265202D01*
X300347Y273198D01*
X306002Y278853D01*
X313998Y278853D01*
X319653Y273198D01*
X319653Y265202D01*
X314690Y260240D01*
X314630Y260161D01*
X314562Y260089D01*
X314533Y260036D01*
X314496Y259988D01*
X314456Y259897D01*
X314408Y259811D01*
X314393Y259752D01*
X314369Y259696D01*
X314354Y259598D01*
X314329Y259503D01*
X314323Y259403D01*
X314319Y259382D01*
X314321Y259370D01*
X314319Y259342D01*
X314319Y220911D01*
X170024Y76617D01*
X169964Y76539D01*
X169896Y76466D01*
X169867Y76413D01*
X169830Y76366D01*
X169790Y76275D01*
X169742Y76188D01*
X169727Y76129D01*
X169703Y76074D01*
X169688Y75976D01*
X169663Y75880D01*
X169657Y75780D01*
X169653Y75760D01*
X169655Y75747D01*
X169653Y75719D01*
X169653Y68702D01*
X163998Y63047D01*
X156002Y63047D01*
G37*
%LPD*%
%LPC*%
G36*
X546980Y482943D02*
X546980Y482943D01*
X543432Y484413D01*
X540717Y487128D01*
X539247Y490676D01*
X539247Y507724D01*
X540717Y511272D01*
X543432Y513987D01*
X543798Y514139D01*
X543823Y514153D01*
X543851Y514162D01*
X543961Y514232D01*
X544074Y514296D01*
X544095Y514317D01*
X544120Y514332D01*
X544209Y514427D01*
X544302Y514517D01*
X544318Y514543D01*
X544338Y514564D01*
X544376Y514632D01*
X544383Y514642D01*
X544398Y514674D01*
X544401Y514678D01*
X544469Y514789D01*
X544477Y514817D01*
X544492Y514843D01*
X544508Y514906D01*
X544519Y514929D01*
X544530Y514988D01*
X544562Y515092D01*
X544564Y515122D01*
X544571Y515151D01*
X544576Y515227D01*
X544579Y515242D01*
X544578Y515256D01*
X544581Y515311D01*
X544581Y518785D01*
X544569Y518884D01*
X544566Y518983D01*
X544549Y519041D01*
X544541Y519101D01*
X544505Y519193D01*
X544477Y519288D01*
X544447Y519340D01*
X544424Y519397D01*
X544366Y519477D01*
X544316Y519562D01*
X544250Y519637D01*
X544238Y519654D01*
X544228Y519662D01*
X544210Y519683D01*
X538583Y525310D01*
X538505Y525370D01*
X538432Y525438D01*
X538379Y525467D01*
X538332Y525504D01*
X538241Y525544D01*
X538154Y525592D01*
X538095Y525607D01*
X538040Y525631D01*
X537942Y525646D01*
X537846Y525671D01*
X537746Y525677D01*
X537726Y525681D01*
X537713Y525679D01*
X537685Y525681D01*
X397315Y525681D01*
X397216Y525669D01*
X397117Y525666D01*
X397059Y525649D01*
X396999Y525641D01*
X396907Y525605D01*
X396812Y525577D01*
X396760Y525547D01*
X396703Y525524D01*
X396623Y525466D01*
X396538Y525416D01*
X396463Y525350D01*
X396446Y525338D01*
X396438Y525328D01*
X396417Y525309D01*
X396090Y524983D01*
X396030Y524905D01*
X395962Y524832D01*
X395933Y524779D01*
X395896Y524732D01*
X395856Y524641D01*
X395808Y524554D01*
X395793Y524495D01*
X395769Y524440D01*
X395754Y524342D01*
X395729Y524246D01*
X395723Y524146D01*
X395719Y524126D01*
X395721Y524113D01*
X395719Y524085D01*
X395719Y516751D01*
X395722Y516722D01*
X395720Y516692D01*
X395742Y516565D01*
X395759Y516436D01*
X395769Y516408D01*
X395774Y516379D01*
X395828Y516260D01*
X395876Y516140D01*
X395893Y516116D01*
X395905Y516089D01*
X395986Y515988D01*
X396062Y515883D01*
X396085Y515864D01*
X396104Y515841D01*
X396207Y515763D01*
X396307Y515680D01*
X396334Y515667D01*
X396358Y515650D01*
X396502Y515579D01*
X396868Y515427D01*
X399583Y512712D01*
X401053Y509164D01*
X401053Y492116D01*
X399583Y488568D01*
X396868Y485853D01*
X393320Y484383D01*
X389480Y484383D01*
X385932Y485853D01*
X383217Y488568D01*
X381747Y492116D01*
X381747Y509164D01*
X383217Y512712D01*
X385932Y515427D01*
X386298Y515579D01*
X386323Y515593D01*
X386351Y515602D01*
X386461Y515672D01*
X386574Y515736D01*
X386595Y515757D01*
X386620Y515772D01*
X386709Y515867D01*
X386802Y515957D01*
X386818Y515983D01*
X386838Y516004D01*
X386901Y516118D01*
X386969Y516229D01*
X386977Y516257D01*
X386992Y516283D01*
X387024Y516408D01*
X387062Y516532D01*
X387064Y516562D01*
X387071Y516591D01*
X387081Y516751D01*
X387081Y528189D01*
X390310Y531417D01*
X393211Y534319D01*
X541789Y534319D01*
X553219Y522889D01*
X553219Y515311D01*
X553222Y515282D01*
X553220Y515252D01*
X553237Y515158D01*
X553241Y515085D01*
X553251Y515054D01*
X553259Y514996D01*
X553269Y514968D01*
X553274Y514939D01*
X553324Y514829D01*
X553339Y514783D01*
X553349Y514767D01*
X553376Y514700D01*
X553393Y514676D01*
X553405Y514649D01*
X553486Y514548D01*
X553500Y514529D01*
X553509Y514514D01*
X553514Y514510D01*
X553562Y514443D01*
X553585Y514424D01*
X553604Y514401D01*
X553707Y514323D01*
X553807Y514240D01*
X553834Y514227D01*
X553858Y514210D01*
X554002Y514139D01*
X554368Y513987D01*
X557083Y511272D01*
X558553Y507724D01*
X558553Y490676D01*
X557083Y487128D01*
X554368Y484413D01*
X550820Y482943D01*
X546980Y482943D01*
G37*
%LPD*%
%LPC*%
G36*
X646002Y63047D02*
X646002Y63047D01*
X640347Y68702D01*
X640347Y75719D01*
X640335Y75818D01*
X640332Y75917D01*
X640315Y75975D01*
X640307Y76035D01*
X640271Y76127D01*
X640243Y76222D01*
X640213Y76274D01*
X640190Y76331D01*
X640132Y76411D01*
X640082Y76496D01*
X640016Y76571D01*
X640004Y76588D01*
X639994Y76596D01*
X639976Y76617D01*
X525681Y190911D01*
X525681Y259342D01*
X525669Y259440D01*
X525666Y259539D01*
X525649Y259597D01*
X525641Y259658D01*
X525605Y259750D01*
X525577Y259845D01*
X525547Y259897D01*
X525524Y259953D01*
X525466Y260033D01*
X525416Y260119D01*
X525350Y260194D01*
X525338Y260211D01*
X525328Y260218D01*
X525310Y260240D01*
X520347Y265202D01*
X520347Y273198D01*
X526002Y278853D01*
X533998Y278853D01*
X539653Y273198D01*
X539653Y265202D01*
X534690Y260240D01*
X534630Y260161D01*
X534562Y260089D01*
X534533Y260036D01*
X534496Y259988D01*
X534456Y259897D01*
X534408Y259811D01*
X534393Y259752D01*
X534369Y259696D01*
X534354Y259598D01*
X534329Y259503D01*
X534323Y259403D01*
X534319Y259382D01*
X534321Y259370D01*
X534319Y259342D01*
X534319Y195015D01*
X534331Y194916D01*
X534334Y194817D01*
X534351Y194759D01*
X534359Y194699D01*
X534395Y194607D01*
X534423Y194512D01*
X534453Y194460D01*
X534476Y194403D01*
X534534Y194323D01*
X534584Y194238D01*
X534650Y194163D01*
X534662Y194146D01*
X534672Y194138D01*
X534690Y194117D01*
X646083Y82724D01*
X646161Y82664D01*
X646234Y82596D01*
X646287Y82567D01*
X646334Y82530D01*
X646425Y82490D01*
X646512Y82442D01*
X646571Y82427D01*
X646626Y82403D01*
X646724Y82388D01*
X646820Y82363D01*
X646920Y82357D01*
X646940Y82353D01*
X646953Y82355D01*
X646981Y82353D01*
X653998Y82353D01*
X659653Y76698D01*
X659653Y68702D01*
X653998Y63047D01*
X646002Y63047D01*
G37*
%LPD*%
%LPC*%
G36*
X226002Y63047D02*
X226002Y63047D01*
X220347Y68702D01*
X220347Y76698D01*
X226002Y82353D01*
X233019Y82353D01*
X233118Y82365D01*
X233217Y82368D01*
X233275Y82385D01*
X233335Y82393D01*
X233427Y82429D01*
X233522Y82457D01*
X233574Y82487D01*
X233631Y82510D01*
X233711Y82568D01*
X233796Y82618D01*
X233871Y82684D01*
X233888Y82696D01*
X233896Y82706D01*
X233917Y82724D01*
X335310Y184117D01*
X335370Y184195D01*
X335438Y184268D01*
X335467Y184321D01*
X335504Y184368D01*
X335544Y184459D01*
X335592Y184546D01*
X335607Y184605D01*
X335631Y184660D01*
X335646Y184758D01*
X335671Y184854D01*
X335677Y184954D01*
X335681Y184974D01*
X335679Y184987D01*
X335681Y185015D01*
X335681Y259342D01*
X335669Y259440D01*
X335666Y259539D01*
X335649Y259597D01*
X335641Y259658D01*
X335605Y259750D01*
X335577Y259845D01*
X335547Y259897D01*
X335524Y259953D01*
X335466Y260033D01*
X335416Y260119D01*
X335350Y260194D01*
X335338Y260211D01*
X335328Y260218D01*
X335310Y260240D01*
X330347Y265202D01*
X330347Y273198D01*
X336002Y278853D01*
X343998Y278853D01*
X349653Y273198D01*
X349653Y265202D01*
X344690Y260240D01*
X344630Y260161D01*
X344562Y260089D01*
X344533Y260036D01*
X344496Y259988D01*
X344456Y259897D01*
X344408Y259811D01*
X344393Y259752D01*
X344369Y259696D01*
X344354Y259598D01*
X344329Y259503D01*
X344323Y259403D01*
X344319Y259382D01*
X344321Y259370D01*
X344319Y259342D01*
X344319Y180911D01*
X240024Y76617D01*
X239964Y76539D01*
X239896Y76466D01*
X239867Y76413D01*
X239830Y76366D01*
X239790Y76275D01*
X239742Y76188D01*
X239727Y76129D01*
X239703Y76074D01*
X239688Y75976D01*
X239663Y75880D01*
X239657Y75780D01*
X239653Y75760D01*
X239655Y75747D01*
X239653Y75719D01*
X239653Y68702D01*
X233998Y63047D01*
X226002Y63047D01*
G37*
%LPD*%
%LPC*%
G36*
X262480Y484383D02*
X262480Y484383D01*
X258932Y485853D01*
X256217Y488568D01*
X254747Y492116D01*
X254747Y509164D01*
X256217Y512712D01*
X258932Y515427D01*
X259898Y515827D01*
X259923Y515842D01*
X259951Y515851D01*
X260061Y515920D01*
X260174Y515985D01*
X260195Y516005D01*
X260220Y516021D01*
X260309Y516116D01*
X260402Y516206D01*
X260418Y516231D01*
X260438Y516253D01*
X260501Y516366D01*
X260569Y516477D01*
X260577Y516505D01*
X260592Y516531D01*
X260624Y516657D01*
X260662Y516781D01*
X260664Y516811D01*
X260671Y516839D01*
X260681Y517000D01*
X260681Y520185D01*
X260669Y520284D01*
X260666Y520383D01*
X260649Y520441D01*
X260641Y520501D01*
X260605Y520593D01*
X260577Y520688D01*
X260547Y520740D01*
X260524Y520797D01*
X260466Y520877D01*
X260416Y520962D01*
X260350Y521037D01*
X260338Y521054D01*
X260328Y521062D01*
X260310Y521083D01*
X253583Y527810D01*
X253505Y527870D01*
X253432Y527938D01*
X253379Y527967D01*
X253332Y528004D01*
X253241Y528044D01*
X253154Y528092D01*
X253095Y528107D01*
X253040Y528131D01*
X252942Y528146D01*
X252846Y528171D01*
X252746Y528177D01*
X252726Y528181D01*
X252713Y528179D01*
X252685Y528181D01*
X135004Y528181D01*
X134975Y528178D01*
X134945Y528180D01*
X134817Y528158D01*
X134688Y528141D01*
X134661Y528131D01*
X134632Y528126D01*
X134513Y528072D01*
X134393Y528024D01*
X134369Y528007D01*
X134342Y527995D01*
X134240Y527914D01*
X134135Y527838D01*
X134117Y527815D01*
X134093Y527796D01*
X134015Y527693D01*
X133933Y527593D01*
X133920Y527566D01*
X133902Y527542D01*
X133831Y527398D01*
X132365Y523857D01*
X129363Y520855D01*
X125442Y519231D01*
X105958Y519231D01*
X102037Y520855D01*
X99035Y523857D01*
X97411Y527778D01*
X97411Y532022D01*
X99035Y535943D01*
X102037Y538945D01*
X105958Y540569D01*
X125442Y540569D01*
X129363Y538945D01*
X131117Y537190D01*
X131196Y537130D01*
X131268Y537062D01*
X131321Y537033D01*
X131369Y536996D01*
X131460Y536956D01*
X131546Y536908D01*
X131605Y536893D01*
X131660Y536869D01*
X131758Y536854D01*
X131854Y536829D01*
X131954Y536823D01*
X131975Y536819D01*
X131987Y536821D01*
X132015Y536819D01*
X256789Y536819D01*
X269319Y524289D01*
X269319Y516502D01*
X269331Y516404D01*
X269334Y516305D01*
X269351Y516247D01*
X269359Y516187D01*
X269395Y516094D01*
X269423Y515999D01*
X269453Y515947D01*
X269476Y515891D01*
X269534Y515811D01*
X269584Y515725D01*
X269650Y515650D01*
X269662Y515633D01*
X269672Y515626D01*
X269690Y515605D01*
X272583Y512712D01*
X274053Y509164D01*
X274053Y492116D01*
X272583Y488568D01*
X269868Y485853D01*
X266320Y484383D01*
X262480Y484383D01*
G37*
%LPD*%
%LPC*%
G36*
X108702Y107347D02*
X108702Y107347D01*
X103047Y113002D01*
X103047Y120998D01*
X108702Y126653D01*
X116698Y126653D01*
X121661Y121690D01*
X121739Y121630D01*
X121811Y121562D01*
X121864Y121533D01*
X121912Y121496D01*
X122003Y121456D01*
X122089Y121408D01*
X122148Y121393D01*
X122204Y121369D01*
X122302Y121354D01*
X122397Y121329D01*
X122497Y121323D01*
X122518Y121319D01*
X122530Y121321D01*
X122558Y121319D01*
X125485Y121319D01*
X125584Y121331D01*
X125683Y121334D01*
X125741Y121351D01*
X125801Y121359D01*
X125893Y121395D01*
X125988Y121423D01*
X126040Y121453D01*
X126097Y121476D01*
X126177Y121534D01*
X126262Y121584D01*
X126337Y121650D01*
X126354Y121662D01*
X126362Y121672D01*
X126383Y121690D01*
X269976Y265283D01*
X270036Y265361D01*
X270104Y265434D01*
X270133Y265487D01*
X270170Y265534D01*
X270210Y265625D01*
X270258Y265712D01*
X270273Y265771D01*
X270297Y265826D01*
X270312Y265924D01*
X270337Y266020D01*
X270343Y266120D01*
X270347Y266140D01*
X270345Y266153D01*
X270347Y266181D01*
X270347Y273198D01*
X276002Y278853D01*
X283998Y278853D01*
X289653Y273198D01*
X289653Y265202D01*
X283998Y259547D01*
X276981Y259547D01*
X276882Y259535D01*
X276783Y259532D01*
X276725Y259515D01*
X276665Y259507D01*
X276573Y259471D01*
X276478Y259443D01*
X276426Y259413D01*
X276369Y259390D01*
X276289Y259332D01*
X276204Y259282D01*
X276129Y259216D01*
X276112Y259204D01*
X276104Y259194D01*
X276083Y259176D01*
X129589Y112681D01*
X122558Y112681D01*
X122460Y112669D01*
X122361Y112666D01*
X122303Y112649D01*
X122242Y112641D01*
X122150Y112605D01*
X122055Y112577D01*
X122003Y112547D01*
X121947Y112524D01*
X121867Y112466D01*
X121781Y112416D01*
X121706Y112350D01*
X121689Y112338D01*
X121682Y112328D01*
X121661Y112310D01*
X116698Y107347D01*
X108702Y107347D01*
G37*
%LPD*%
%LPC*%
G36*
X576002Y63047D02*
X576002Y63047D01*
X570347Y68702D01*
X570347Y75719D01*
X570335Y75818D01*
X570332Y75917D01*
X570315Y75975D01*
X570307Y76035D01*
X570271Y76127D01*
X570243Y76222D01*
X570213Y76274D01*
X570190Y76331D01*
X570132Y76411D01*
X570082Y76496D01*
X570016Y76571D01*
X570004Y76588D01*
X569994Y76596D01*
X569976Y76617D01*
X495681Y150911D01*
X495681Y259342D01*
X495669Y259440D01*
X495666Y259539D01*
X495649Y259597D01*
X495641Y259658D01*
X495605Y259750D01*
X495577Y259845D01*
X495547Y259897D01*
X495524Y259953D01*
X495466Y260033D01*
X495416Y260119D01*
X495350Y260194D01*
X495338Y260211D01*
X495328Y260218D01*
X495310Y260240D01*
X490347Y265202D01*
X490347Y273198D01*
X496002Y278853D01*
X503998Y278853D01*
X509653Y273198D01*
X509653Y265202D01*
X504690Y260240D01*
X504630Y260161D01*
X504562Y260089D01*
X504533Y260036D01*
X504496Y259988D01*
X504456Y259897D01*
X504408Y259811D01*
X504393Y259752D01*
X504369Y259696D01*
X504354Y259598D01*
X504329Y259503D01*
X504323Y259403D01*
X504319Y259382D01*
X504321Y259370D01*
X504319Y259342D01*
X504319Y155015D01*
X504331Y154916D01*
X504334Y154817D01*
X504351Y154759D01*
X504359Y154699D01*
X504395Y154607D01*
X504423Y154512D01*
X504453Y154460D01*
X504476Y154403D01*
X504534Y154323D01*
X504584Y154238D01*
X504650Y154163D01*
X504662Y154146D01*
X504672Y154138D01*
X504690Y154117D01*
X576083Y82724D01*
X576161Y82664D01*
X576234Y82596D01*
X576287Y82567D01*
X576334Y82530D01*
X576425Y82490D01*
X576512Y82442D01*
X576571Y82427D01*
X576626Y82403D01*
X576724Y82388D01*
X576820Y82363D01*
X576920Y82357D01*
X576940Y82353D01*
X576953Y82355D01*
X576981Y82353D01*
X583998Y82353D01*
X589653Y76698D01*
X589653Y68702D01*
X583998Y63047D01*
X576002Y63047D01*
G37*
%LPD*%
%LPC*%
G36*
X296002Y63047D02*
X296002Y63047D01*
X290347Y68702D01*
X290347Y76698D01*
X296002Y82353D01*
X303019Y82353D01*
X303118Y82365D01*
X303217Y82368D01*
X303275Y82385D01*
X303335Y82393D01*
X303427Y82429D01*
X303522Y82457D01*
X303574Y82487D01*
X303631Y82510D01*
X303711Y82568D01*
X303796Y82618D01*
X303871Y82684D01*
X303888Y82696D01*
X303896Y82706D01*
X303917Y82724D01*
X365310Y144117D01*
X365370Y144195D01*
X365438Y144268D01*
X365467Y144321D01*
X365504Y144368D01*
X365544Y144459D01*
X365592Y144546D01*
X365607Y144605D01*
X365631Y144660D01*
X365646Y144758D01*
X365671Y144854D01*
X365677Y144954D01*
X365681Y144974D01*
X365679Y144987D01*
X365681Y145015D01*
X365681Y259342D01*
X365669Y259440D01*
X365666Y259539D01*
X365649Y259597D01*
X365641Y259658D01*
X365605Y259750D01*
X365577Y259845D01*
X365547Y259897D01*
X365524Y259953D01*
X365466Y260033D01*
X365416Y260119D01*
X365350Y260194D01*
X365338Y260211D01*
X365328Y260218D01*
X365310Y260240D01*
X360347Y265202D01*
X360347Y273198D01*
X366002Y278853D01*
X373998Y278853D01*
X379653Y273198D01*
X379653Y265202D01*
X374690Y260240D01*
X374630Y260161D01*
X374562Y260089D01*
X374533Y260036D01*
X374496Y259988D01*
X374456Y259897D01*
X374408Y259811D01*
X374393Y259752D01*
X374369Y259696D01*
X374354Y259598D01*
X374329Y259503D01*
X374323Y259403D01*
X374319Y259382D01*
X374321Y259370D01*
X374319Y259342D01*
X374319Y140911D01*
X310024Y76617D01*
X309964Y76539D01*
X309896Y76466D01*
X309867Y76413D01*
X309830Y76366D01*
X309790Y76275D01*
X309742Y76188D01*
X309727Y76129D01*
X309703Y76074D01*
X309688Y75976D01*
X309663Y75880D01*
X309657Y75780D01*
X309653Y75760D01*
X309655Y75747D01*
X309653Y75719D01*
X309653Y68702D01*
X303998Y63047D01*
X296002Y63047D01*
G37*
%LPD*%
%LPC*%
G36*
X506002Y63047D02*
X506002Y63047D01*
X500347Y68702D01*
X500347Y75719D01*
X500335Y75818D01*
X500332Y75917D01*
X500315Y75975D01*
X500307Y76035D01*
X500271Y76127D01*
X500243Y76222D01*
X500213Y76274D01*
X500190Y76331D01*
X500132Y76411D01*
X500082Y76496D01*
X500016Y76571D01*
X500004Y76588D01*
X499994Y76596D01*
X499976Y76617D01*
X465681Y110911D01*
X465681Y259342D01*
X465669Y259440D01*
X465666Y259539D01*
X465649Y259597D01*
X465641Y259658D01*
X465605Y259750D01*
X465577Y259845D01*
X465547Y259897D01*
X465524Y259953D01*
X465466Y260033D01*
X465416Y260119D01*
X465350Y260194D01*
X465338Y260211D01*
X465328Y260218D01*
X465310Y260240D01*
X460347Y265202D01*
X460347Y273198D01*
X466002Y278853D01*
X473998Y278853D01*
X479653Y273198D01*
X479653Y265202D01*
X474690Y260240D01*
X474630Y260161D01*
X474562Y260089D01*
X474533Y260036D01*
X474496Y259988D01*
X474456Y259897D01*
X474408Y259811D01*
X474393Y259752D01*
X474369Y259696D01*
X474354Y259598D01*
X474329Y259503D01*
X474323Y259403D01*
X474319Y259382D01*
X474321Y259370D01*
X474319Y259342D01*
X474319Y115015D01*
X474331Y114916D01*
X474334Y114817D01*
X474351Y114759D01*
X474359Y114699D01*
X474395Y114607D01*
X474423Y114512D01*
X474453Y114460D01*
X474476Y114403D01*
X474534Y114323D01*
X474584Y114238D01*
X474650Y114163D01*
X474662Y114146D01*
X474672Y114138D01*
X474690Y114117D01*
X506083Y82724D01*
X506161Y82664D01*
X506234Y82596D01*
X506287Y82567D01*
X506334Y82530D01*
X506425Y82490D01*
X506512Y82442D01*
X506571Y82427D01*
X506626Y82403D01*
X506724Y82388D01*
X506820Y82363D01*
X506920Y82357D01*
X506940Y82353D01*
X506953Y82355D01*
X506981Y82353D01*
X513998Y82353D01*
X519653Y76698D01*
X519653Y68702D01*
X513998Y63047D01*
X506002Y63047D01*
G37*
%LPD*%
%LPC*%
G36*
X366002Y60947D02*
X366002Y60947D01*
X360347Y66602D01*
X360347Y74598D01*
X366002Y80253D01*
X373019Y80253D01*
X373118Y80265D01*
X373217Y80268D01*
X373275Y80285D01*
X373335Y80293D01*
X373427Y80329D01*
X373522Y80357D01*
X373574Y80387D01*
X373631Y80410D01*
X373711Y80468D01*
X373796Y80518D01*
X373871Y80584D01*
X373888Y80596D01*
X373896Y80606D01*
X373917Y80624D01*
X395310Y102017D01*
X395370Y102095D01*
X395438Y102168D01*
X395467Y102221D01*
X395504Y102268D01*
X395544Y102359D01*
X395592Y102446D01*
X395607Y102505D01*
X395631Y102560D01*
X395646Y102658D01*
X395671Y102754D01*
X395677Y102854D01*
X395681Y102874D01*
X395679Y102887D01*
X395681Y102915D01*
X395681Y259342D01*
X395669Y259440D01*
X395666Y259539D01*
X395649Y259597D01*
X395641Y259658D01*
X395605Y259750D01*
X395577Y259845D01*
X395547Y259897D01*
X395524Y259953D01*
X395466Y260033D01*
X395416Y260119D01*
X395350Y260194D01*
X395338Y260211D01*
X395328Y260218D01*
X395310Y260240D01*
X390347Y265202D01*
X390347Y273198D01*
X396002Y278853D01*
X403998Y278853D01*
X409653Y273198D01*
X409653Y265202D01*
X404690Y260240D01*
X404630Y260161D01*
X404562Y260089D01*
X404533Y260036D01*
X404496Y259988D01*
X404456Y259897D01*
X404408Y259811D01*
X404393Y259752D01*
X404369Y259696D01*
X404354Y259598D01*
X404329Y259503D01*
X404323Y259403D01*
X404319Y259382D01*
X404321Y259370D01*
X404319Y259342D01*
X404319Y98811D01*
X380024Y74517D01*
X379964Y74439D01*
X379896Y74366D01*
X379875Y74329D01*
X379854Y74304D01*
X379847Y74288D01*
X379830Y74266D01*
X379790Y74175D01*
X379742Y74088D01*
X379730Y74039D01*
X379719Y74016D01*
X379717Y74005D01*
X379703Y73974D01*
X379688Y73876D01*
X379663Y73780D01*
X379657Y73680D01*
X379653Y73660D01*
X379655Y73647D01*
X379653Y73619D01*
X379653Y66602D01*
X373998Y60947D01*
X366002Y60947D01*
G37*
%LPD*%
%LPC*%
G36*
X693302Y107347D02*
X693302Y107347D01*
X687647Y113002D01*
X687647Y120019D01*
X687635Y120118D01*
X687632Y120217D01*
X687615Y120275D01*
X687607Y120335D01*
X687571Y120427D01*
X687543Y120522D01*
X687513Y120574D01*
X687490Y120631D01*
X687432Y120711D01*
X687382Y120796D01*
X687316Y120871D01*
X687304Y120888D01*
X687294Y120896D01*
X687276Y120917D01*
X555681Y252511D01*
X555681Y259342D01*
X555669Y259440D01*
X555666Y259539D01*
X555649Y259597D01*
X555641Y259658D01*
X555605Y259750D01*
X555577Y259845D01*
X555547Y259897D01*
X555524Y259953D01*
X555466Y260033D01*
X555416Y260119D01*
X555350Y260194D01*
X555338Y260211D01*
X555328Y260218D01*
X555310Y260240D01*
X550347Y265202D01*
X550347Y273198D01*
X556002Y278853D01*
X563998Y278853D01*
X569653Y273198D01*
X569653Y265202D01*
X564690Y260240D01*
X564630Y260161D01*
X564562Y260089D01*
X564533Y260036D01*
X564496Y259988D01*
X564456Y259897D01*
X564408Y259811D01*
X564393Y259752D01*
X564369Y259696D01*
X564354Y259598D01*
X564329Y259503D01*
X564323Y259403D01*
X564319Y259382D01*
X564321Y259370D01*
X564319Y259342D01*
X564319Y256615D01*
X564331Y256516D01*
X564334Y256417D01*
X564351Y256359D01*
X564359Y256299D01*
X564395Y256207D01*
X564423Y256112D01*
X564453Y256060D01*
X564476Y256003D01*
X564534Y255923D01*
X564584Y255838D01*
X564650Y255763D01*
X564662Y255746D01*
X564672Y255738D01*
X564690Y255717D01*
X693383Y127024D01*
X693461Y126964D01*
X693534Y126896D01*
X693587Y126867D01*
X693634Y126830D01*
X693725Y126790D01*
X693812Y126742D01*
X693871Y126727D01*
X693926Y126703D01*
X694024Y126688D01*
X694120Y126663D01*
X694220Y126657D01*
X694240Y126653D01*
X694253Y126655D01*
X694281Y126653D01*
X701298Y126653D01*
X706953Y120998D01*
X706953Y113002D01*
X701298Y107347D01*
X693302Y107347D01*
G37*
%LPD*%
%LPC*%
G36*
X78702Y177347D02*
X78702Y177347D01*
X73047Y183002D01*
X73047Y190998D01*
X78702Y196653D01*
X86698Y196653D01*
X91660Y191690D01*
X91739Y191630D01*
X91811Y191562D01*
X91864Y191533D01*
X91912Y191496D01*
X92003Y191456D01*
X92089Y191408D01*
X92148Y191393D01*
X92204Y191369D01*
X92302Y191354D01*
X92397Y191329D01*
X92497Y191323D01*
X92518Y191319D01*
X92530Y191321D01*
X92558Y191319D01*
X165485Y191319D01*
X165584Y191331D01*
X165683Y191334D01*
X165741Y191351D01*
X165801Y191359D01*
X165893Y191395D01*
X165988Y191423D01*
X166040Y191453D01*
X166097Y191476D01*
X166177Y191534D01*
X166262Y191584D01*
X166337Y191650D01*
X166354Y191662D01*
X166362Y191672D01*
X166383Y191690D01*
X239976Y265283D01*
X240036Y265361D01*
X240104Y265433D01*
X240133Y265486D01*
X240170Y265534D01*
X240210Y265625D01*
X240258Y265712D01*
X240273Y265771D01*
X240297Y265826D01*
X240312Y265924D01*
X240337Y266020D01*
X240343Y266120D01*
X240347Y266140D01*
X240345Y266153D01*
X240347Y266181D01*
X240347Y273198D01*
X246002Y278853D01*
X253998Y278853D01*
X259653Y273198D01*
X259653Y265202D01*
X253998Y259547D01*
X246981Y259547D01*
X246882Y259535D01*
X246783Y259532D01*
X246725Y259515D01*
X246665Y259507D01*
X246573Y259471D01*
X246478Y259443D01*
X246426Y259413D01*
X246369Y259390D01*
X246289Y259332D01*
X246204Y259282D01*
X246129Y259216D01*
X246112Y259204D01*
X246104Y259194D01*
X246083Y259176D01*
X172490Y185583D01*
X169589Y182681D01*
X92558Y182681D01*
X92460Y182669D01*
X92361Y182666D01*
X92303Y182649D01*
X92242Y182641D01*
X92150Y182605D01*
X92055Y182577D01*
X92003Y182547D01*
X91947Y182524D01*
X91867Y182466D01*
X91781Y182416D01*
X91706Y182350D01*
X91689Y182338D01*
X91682Y182328D01*
X91660Y182310D01*
X86698Y177347D01*
X78702Y177347D01*
G37*
%LPD*%
%LPC*%
G36*
X436002Y64947D02*
X436002Y64947D01*
X430347Y70602D01*
X430347Y78598D01*
X435310Y83561D01*
X435370Y83639D01*
X435438Y83711D01*
X435467Y83764D01*
X435504Y83812D01*
X435544Y83903D01*
X435592Y83989D01*
X435607Y84048D01*
X435631Y84104D01*
X435646Y84202D01*
X435671Y84297D01*
X435677Y84397D01*
X435681Y84418D01*
X435679Y84430D01*
X435681Y84458D01*
X435681Y259342D01*
X435669Y259440D01*
X435666Y259539D01*
X435649Y259597D01*
X435641Y259658D01*
X435605Y259750D01*
X435577Y259845D01*
X435547Y259897D01*
X435524Y259953D01*
X435466Y260033D01*
X435416Y260119D01*
X435350Y260194D01*
X435338Y260211D01*
X435328Y260218D01*
X435310Y260239D01*
X430347Y265202D01*
X430347Y273198D01*
X436002Y278853D01*
X443998Y278853D01*
X449653Y273198D01*
X449653Y265202D01*
X444690Y260239D01*
X444630Y260161D01*
X444562Y260089D01*
X444533Y260036D01*
X444496Y259988D01*
X444456Y259897D01*
X444408Y259811D01*
X444393Y259752D01*
X444369Y259696D01*
X444354Y259598D01*
X444329Y259503D01*
X444323Y259403D01*
X444319Y259382D01*
X444321Y259370D01*
X444319Y259342D01*
X444319Y84458D01*
X444331Y84360D01*
X444334Y84261D01*
X444351Y84203D01*
X444359Y84142D01*
X444395Y84050D01*
X444423Y83955D01*
X444453Y83903D01*
X444476Y83847D01*
X444534Y83767D01*
X444584Y83681D01*
X444650Y83606D01*
X444662Y83589D01*
X444672Y83582D01*
X444690Y83561D01*
X449653Y78598D01*
X449653Y70602D01*
X443998Y64947D01*
X436002Y64947D01*
G37*
%LPD*%
%LPC*%
G36*
X436002Y361147D02*
X436002Y361147D01*
X430347Y366802D01*
X430347Y374798D01*
X435310Y379761D01*
X435370Y379839D01*
X435438Y379911D01*
X435467Y379964D01*
X435504Y380012D01*
X435544Y380103D01*
X435592Y380189D01*
X435607Y380248D01*
X435631Y380304D01*
X435646Y380402D01*
X435671Y380497D01*
X435677Y380597D01*
X435681Y380618D01*
X435679Y380630D01*
X435681Y380658D01*
X435681Y410885D01*
X513724Y488927D01*
X513742Y488951D01*
X513764Y488970D01*
X513839Y489076D01*
X513919Y489178D01*
X513930Y489206D01*
X513947Y489230D01*
X513993Y489351D01*
X514045Y489470D01*
X514049Y489500D01*
X514060Y489527D01*
X514074Y489656D01*
X514095Y489784D01*
X514092Y489814D01*
X514095Y489843D01*
X514077Y489972D01*
X514065Y490101D01*
X514055Y490129D01*
X514051Y490158D01*
X513999Y490310D01*
X513847Y490676D01*
X513847Y507724D01*
X515317Y511272D01*
X518032Y513987D01*
X521580Y515457D01*
X525420Y515457D01*
X528968Y513987D01*
X531683Y511272D01*
X533153Y507724D01*
X533153Y490676D01*
X531683Y487128D01*
X528968Y484413D01*
X525420Y482943D01*
X521580Y482943D01*
X521214Y483095D01*
X521186Y483103D01*
X521160Y483116D01*
X521033Y483144D01*
X520908Y483179D01*
X520878Y483179D01*
X520849Y483186D01*
X520720Y483182D01*
X520590Y483184D01*
X520561Y483177D01*
X520531Y483176D01*
X520407Y483140D01*
X520280Y483110D01*
X520254Y483096D01*
X520226Y483088D01*
X520114Y483022D01*
X519999Y482961D01*
X519977Y482941D01*
X519952Y482926D01*
X519831Y482820D01*
X444690Y407679D01*
X444630Y407601D01*
X444562Y407528D01*
X444533Y407475D01*
X444496Y407428D01*
X444456Y407337D01*
X444408Y407250D01*
X444393Y407191D01*
X444369Y407136D01*
X444354Y407038D01*
X444329Y406942D01*
X444323Y406842D01*
X444319Y406822D01*
X444321Y406809D01*
X444319Y406781D01*
X444319Y380658D01*
X444331Y380560D01*
X444334Y380461D01*
X444351Y380403D01*
X444359Y380342D01*
X444395Y380250D01*
X444423Y380155D01*
X444453Y380103D01*
X444476Y380047D01*
X444534Y379967D01*
X444584Y379881D01*
X444650Y379806D01*
X444662Y379789D01*
X444672Y379782D01*
X444690Y379761D01*
X449653Y374798D01*
X449653Y366802D01*
X443998Y361147D01*
X436002Y361147D01*
G37*
%LPD*%
%LPC*%
G36*
X723302Y177347D02*
X723302Y177347D01*
X718340Y182310D01*
X718261Y182370D01*
X718189Y182438D01*
X718136Y182467D01*
X718088Y182504D01*
X717997Y182544D01*
X717911Y182592D01*
X717852Y182607D01*
X717796Y182631D01*
X717698Y182646D01*
X717603Y182671D01*
X717503Y182677D01*
X717482Y182681D01*
X717470Y182679D01*
X717442Y182681D01*
X670411Y182681D01*
X593917Y259176D01*
X593839Y259236D01*
X593766Y259304D01*
X593713Y259333D01*
X593666Y259370D01*
X593575Y259410D01*
X593488Y259458D01*
X593429Y259473D01*
X593374Y259497D01*
X593276Y259512D01*
X593180Y259537D01*
X593080Y259543D01*
X593060Y259547D01*
X593047Y259545D01*
X593019Y259547D01*
X586002Y259547D01*
X580347Y265202D01*
X580347Y273198D01*
X586002Y278853D01*
X593998Y278853D01*
X599653Y273198D01*
X599653Y266181D01*
X599665Y266082D01*
X599668Y265983D01*
X599685Y265925D01*
X599693Y265865D01*
X599729Y265773D01*
X599757Y265678D01*
X599787Y265626D01*
X599810Y265569D01*
X599868Y265489D01*
X599918Y265404D01*
X599984Y265329D01*
X599996Y265312D01*
X600006Y265304D01*
X600024Y265283D01*
X673617Y191690D01*
X673695Y191630D01*
X673768Y191562D01*
X673821Y191533D01*
X673868Y191496D01*
X673959Y191456D01*
X674046Y191408D01*
X674105Y191393D01*
X674160Y191369D01*
X674258Y191354D01*
X674354Y191329D01*
X674454Y191323D01*
X674474Y191319D01*
X674487Y191321D01*
X674515Y191319D01*
X717442Y191319D01*
X717540Y191331D01*
X717639Y191334D01*
X717697Y191351D01*
X717758Y191359D01*
X717850Y191395D01*
X717945Y191423D01*
X717997Y191453D01*
X718053Y191476D01*
X718133Y191534D01*
X718219Y191584D01*
X718294Y191650D01*
X718311Y191662D01*
X718318Y191672D01*
X718340Y191690D01*
X723302Y196653D01*
X731298Y196653D01*
X736953Y190998D01*
X736953Y183002D01*
X731298Y177347D01*
X723302Y177347D01*
G37*
%LPD*%
%LPC*%
G36*
X111961Y236931D02*
X111961Y236931D01*
X96583Y252310D01*
X96505Y252370D01*
X96432Y252438D01*
X96379Y252467D01*
X96332Y252504D01*
X96241Y252544D01*
X96154Y252592D01*
X96095Y252607D01*
X96040Y252631D01*
X95942Y252646D01*
X95846Y252671D01*
X95746Y252677D01*
X95726Y252681D01*
X95713Y252679D01*
X95685Y252681D01*
X92558Y252681D01*
X92460Y252669D01*
X92361Y252666D01*
X92303Y252649D01*
X92242Y252641D01*
X92150Y252605D01*
X92055Y252577D01*
X92003Y252547D01*
X91947Y252524D01*
X91867Y252466D01*
X91781Y252416D01*
X91706Y252350D01*
X91689Y252338D01*
X91682Y252328D01*
X91660Y252310D01*
X86698Y247347D01*
X78702Y247347D01*
X73047Y253002D01*
X73047Y260998D01*
X78702Y266653D01*
X86698Y266653D01*
X91660Y261690D01*
X91739Y261630D01*
X91811Y261562D01*
X91864Y261533D01*
X91912Y261496D01*
X92003Y261456D01*
X92089Y261408D01*
X92148Y261393D01*
X92204Y261369D01*
X92302Y261354D01*
X92397Y261329D01*
X92497Y261323D01*
X92518Y261319D01*
X92530Y261321D01*
X92558Y261319D01*
X94685Y261319D01*
X94784Y261331D01*
X94883Y261334D01*
X94941Y261351D01*
X95001Y261359D01*
X95093Y261395D01*
X95188Y261423D01*
X95240Y261453D01*
X95297Y261476D01*
X95377Y261534D01*
X95462Y261584D01*
X95537Y261650D01*
X95554Y261662D01*
X95562Y261672D01*
X95583Y261690D01*
X95711Y261819D01*
X99289Y261819D01*
X115167Y245940D01*
X115245Y245880D01*
X115318Y245812D01*
X115371Y245783D01*
X115418Y245746D01*
X115509Y245706D01*
X115596Y245658D01*
X115655Y245643D01*
X115710Y245619D01*
X115808Y245604D01*
X115904Y245579D01*
X116004Y245573D01*
X116024Y245569D01*
X116037Y245571D01*
X116065Y245569D01*
X189735Y245569D01*
X189834Y245581D01*
X189933Y245584D01*
X189991Y245601D01*
X190051Y245609D01*
X190143Y245645D01*
X190238Y245673D01*
X190290Y245703D01*
X190347Y245726D01*
X190427Y245784D01*
X190512Y245834D01*
X190587Y245900D01*
X190604Y245912D01*
X190612Y245922D01*
X190633Y245940D01*
X209976Y265283D01*
X210036Y265361D01*
X210104Y265433D01*
X210133Y265486D01*
X210170Y265534D01*
X210210Y265625D01*
X210258Y265712D01*
X210273Y265771D01*
X210297Y265826D01*
X210312Y265924D01*
X210337Y266020D01*
X210343Y266120D01*
X210347Y266140D01*
X210345Y266153D01*
X210347Y266181D01*
X210347Y273198D01*
X216002Y278853D01*
X223998Y278853D01*
X229653Y273198D01*
X229653Y265202D01*
X223998Y259547D01*
X216981Y259547D01*
X216882Y259535D01*
X216783Y259532D01*
X216725Y259515D01*
X216665Y259507D01*
X216573Y259471D01*
X216478Y259443D01*
X216426Y259413D01*
X216369Y259390D01*
X216289Y259332D01*
X216204Y259282D01*
X216129Y259216D01*
X216112Y259204D01*
X216104Y259194D01*
X216083Y259176D01*
X193839Y236931D01*
X111961Y236931D01*
G37*
%LPD*%
%LPC*%
G36*
X186002Y259547D02*
X186002Y259547D01*
X181039Y264510D01*
X180961Y264570D01*
X180889Y264638D01*
X180836Y264667D01*
X180788Y264704D01*
X180697Y264744D01*
X180611Y264792D01*
X180552Y264807D01*
X180496Y264831D01*
X180398Y264846D01*
X180303Y264871D01*
X180203Y264877D01*
X180182Y264881D01*
X180170Y264879D01*
X180142Y264881D01*
X138711Y264881D01*
X86617Y316976D01*
X86539Y317036D01*
X86467Y317104D01*
X86414Y317133D01*
X86366Y317170D01*
X86275Y317210D01*
X86188Y317258D01*
X86129Y317273D01*
X86074Y317297D01*
X85976Y317312D01*
X85880Y317337D01*
X85780Y317343D01*
X85760Y317347D01*
X85747Y317345D01*
X85719Y317347D01*
X78702Y317347D01*
X73047Y323002D01*
X73047Y330998D01*
X78702Y336653D01*
X86698Y336653D01*
X92353Y330998D01*
X92353Y323981D01*
X92365Y323882D01*
X92368Y323783D01*
X92385Y323725D01*
X92393Y323665D01*
X92429Y323573D01*
X92457Y323478D01*
X92487Y323426D01*
X92510Y323369D01*
X92568Y323289D01*
X92618Y323204D01*
X92684Y323129D01*
X92696Y323112D01*
X92706Y323104D01*
X92724Y323083D01*
X141917Y273890D01*
X141995Y273830D01*
X142068Y273762D01*
X142121Y273733D01*
X142168Y273696D01*
X142259Y273656D01*
X142346Y273608D01*
X142405Y273593D01*
X142460Y273569D01*
X142558Y273554D01*
X142654Y273529D01*
X142754Y273523D01*
X142774Y273519D01*
X142787Y273521D01*
X142815Y273519D01*
X180142Y273519D01*
X180240Y273531D01*
X180339Y273534D01*
X180397Y273551D01*
X180458Y273559D01*
X180550Y273595D01*
X180645Y273623D01*
X180697Y273653D01*
X180753Y273676D01*
X180833Y273734D01*
X180919Y273784D01*
X180994Y273850D01*
X181011Y273862D01*
X181018Y273872D01*
X181039Y273890D01*
X186002Y278853D01*
X193998Y278853D01*
X199653Y273198D01*
X199653Y265202D01*
X193998Y259547D01*
X186002Y259547D01*
G37*
%LPD*%
%LPC*%
G36*
X643211Y235681D02*
X643211Y235681D01*
X619717Y259176D01*
X619639Y259236D01*
X619566Y259304D01*
X619513Y259333D01*
X619466Y259370D01*
X619375Y259410D01*
X619288Y259458D01*
X619229Y259473D01*
X619174Y259497D01*
X619076Y259512D01*
X618980Y259537D01*
X618880Y259543D01*
X618860Y259547D01*
X618847Y259545D01*
X618819Y259547D01*
X616002Y259547D01*
X610347Y265202D01*
X610347Y273198D01*
X616002Y278853D01*
X623998Y278853D01*
X629653Y273198D01*
X629653Y265202D01*
X628677Y264226D01*
X628604Y264132D01*
X628525Y264043D01*
X628507Y264006D01*
X628482Y263975D01*
X628435Y263865D01*
X628380Y263759D01*
X628372Y263720D01*
X628356Y263683D01*
X628337Y263565D01*
X628311Y263449D01*
X628312Y263409D01*
X628306Y263369D01*
X628317Y263250D01*
X628320Y263131D01*
X628332Y263092D01*
X628335Y263052D01*
X628376Y262940D01*
X628409Y262826D01*
X628429Y262791D01*
X628443Y262753D01*
X628510Y262654D01*
X628570Y262552D01*
X628610Y262506D01*
X628622Y262490D01*
X628637Y262476D01*
X628677Y262431D01*
X646417Y244690D01*
X646495Y244630D01*
X646568Y244562D01*
X646621Y244533D01*
X646668Y244496D01*
X646759Y244456D01*
X646846Y244408D01*
X646905Y244393D01*
X646960Y244369D01*
X647058Y244354D01*
X647154Y244329D01*
X647254Y244323D01*
X647274Y244319D01*
X647287Y244321D01*
X647315Y244319D01*
X710185Y244319D01*
X710284Y244331D01*
X710383Y244334D01*
X710441Y244351D01*
X710501Y244359D01*
X710593Y244395D01*
X710688Y244423D01*
X710740Y244453D01*
X710797Y244476D01*
X710877Y244534D01*
X710962Y244584D01*
X711037Y244650D01*
X711054Y244662D01*
X711062Y244672D01*
X711083Y244690D01*
X717623Y251231D01*
X717696Y251325D01*
X717775Y251414D01*
X717793Y251450D01*
X717818Y251482D01*
X717865Y251591D01*
X717920Y251697D01*
X717928Y251737D01*
X717944Y251774D01*
X717963Y251892D01*
X717989Y252008D01*
X717988Y252048D01*
X717994Y252088D01*
X717983Y252207D01*
X717980Y252326D01*
X717968Y252364D01*
X717965Y252405D01*
X717924Y252517D01*
X717891Y252631D01*
X717871Y252666D01*
X717857Y252704D01*
X717790Y252802D01*
X717730Y252905D01*
X717690Y252950D01*
X717678Y252967D01*
X717663Y252981D01*
X717647Y252998D01*
X717647Y260998D01*
X723302Y266653D01*
X731298Y266653D01*
X736953Y260998D01*
X736953Y253002D01*
X731298Y247347D01*
X726481Y247347D01*
X726382Y247335D01*
X726283Y247332D01*
X726225Y247315D01*
X726165Y247307D01*
X726073Y247271D01*
X725978Y247243D01*
X725926Y247213D01*
X725869Y247190D01*
X725789Y247132D01*
X725704Y247082D01*
X725629Y247016D01*
X725612Y247004D01*
X725604Y246994D01*
X725583Y246976D01*
X714289Y235681D01*
X643211Y235681D01*
G37*
%LPD*%
%LPC*%
G36*
X646002Y259547D02*
X646002Y259547D01*
X640347Y265202D01*
X640347Y273198D01*
X646002Y278853D01*
X653019Y278853D01*
X653118Y278865D01*
X653217Y278868D01*
X653275Y278885D01*
X653335Y278893D01*
X653427Y278929D01*
X653522Y278957D01*
X653574Y278987D01*
X653631Y279010D01*
X653711Y279068D01*
X653796Y279118D01*
X653871Y279184D01*
X653888Y279196D01*
X653896Y279206D01*
X653917Y279224D01*
X706011Y331319D01*
X717442Y331319D01*
X717540Y331331D01*
X717639Y331334D01*
X717697Y331351D01*
X717758Y331359D01*
X717850Y331395D01*
X717945Y331423D01*
X717997Y331453D01*
X718053Y331476D01*
X718133Y331534D01*
X718219Y331584D01*
X718294Y331650D01*
X718311Y331662D01*
X718318Y331672D01*
X718339Y331690D01*
X723302Y336653D01*
X731298Y336653D01*
X736953Y330998D01*
X736953Y323002D01*
X731298Y317347D01*
X723302Y317347D01*
X718339Y322310D01*
X718261Y322370D01*
X718189Y322438D01*
X718136Y322467D01*
X718088Y322504D01*
X717997Y322544D01*
X717911Y322592D01*
X717852Y322607D01*
X717796Y322631D01*
X717698Y322646D01*
X717603Y322671D01*
X717503Y322677D01*
X717482Y322681D01*
X717470Y322679D01*
X717442Y322681D01*
X710115Y322681D01*
X710016Y322669D01*
X709917Y322666D01*
X709859Y322649D01*
X709799Y322641D01*
X709707Y322605D01*
X709612Y322577D01*
X709560Y322547D01*
X709503Y322524D01*
X709423Y322466D01*
X709338Y322416D01*
X709263Y322350D01*
X709246Y322338D01*
X709238Y322328D01*
X709217Y322310D01*
X660024Y273117D01*
X659964Y273039D01*
X659896Y272967D01*
X659867Y272914D01*
X659830Y272866D01*
X659790Y272775D01*
X659742Y272688D01*
X659727Y272629D01*
X659703Y272574D01*
X659688Y272476D01*
X659663Y272380D01*
X659657Y272280D01*
X659653Y272260D01*
X659655Y272247D01*
X659653Y272219D01*
X659653Y265202D01*
X653998Y259547D01*
X646002Y259547D01*
G37*
%LPD*%
%LPC*%
G36*
X396002Y361147D02*
X396002Y361147D01*
X390347Y366802D01*
X390347Y374798D01*
X395310Y379760D01*
X395370Y379839D01*
X395438Y379911D01*
X395467Y379964D01*
X395504Y380012D01*
X395544Y380103D01*
X395592Y380189D01*
X395607Y380248D01*
X395631Y380304D01*
X395646Y380402D01*
X395671Y380497D01*
X395677Y380597D01*
X395681Y380618D01*
X395679Y380630D01*
X395681Y380658D01*
X395681Y381521D01*
X395669Y381620D01*
X395666Y381719D01*
X395649Y381777D01*
X395641Y381837D01*
X395605Y381929D01*
X395577Y382024D01*
X395547Y382076D01*
X395524Y382133D01*
X395466Y382213D01*
X395416Y382298D01*
X395350Y382373D01*
X395338Y382390D01*
X395328Y382398D01*
X395310Y382419D01*
X369669Y408060D01*
X369645Y408078D01*
X369626Y408100D01*
X369520Y408175D01*
X369418Y408255D01*
X369390Y408266D01*
X369366Y408283D01*
X369245Y408329D01*
X369126Y408381D01*
X369096Y408385D01*
X369069Y408396D01*
X368940Y408410D01*
X368812Y408431D01*
X368782Y408428D01*
X368753Y408431D01*
X368624Y408413D01*
X368495Y408401D01*
X368467Y408391D01*
X368438Y408387D01*
X368286Y408335D01*
X367920Y408183D01*
X364080Y408183D01*
X360532Y409653D01*
X357817Y412368D01*
X356347Y415916D01*
X356347Y432964D01*
X357817Y436512D01*
X360532Y439227D01*
X364080Y440697D01*
X367920Y440697D01*
X371468Y439227D01*
X374183Y436512D01*
X375653Y432964D01*
X375653Y415916D01*
X375501Y415550D01*
X375493Y415522D01*
X375480Y415496D01*
X375452Y415369D01*
X375417Y415244D01*
X375417Y415214D01*
X375410Y415185D01*
X375414Y415056D01*
X375412Y414926D01*
X375419Y414897D01*
X375420Y414867D01*
X375456Y414743D01*
X375486Y414616D01*
X375500Y414590D01*
X375508Y414562D01*
X375574Y414450D01*
X375635Y414335D01*
X375655Y414313D01*
X375670Y414288D01*
X375706Y414247D01*
X375708Y414243D01*
X375714Y414238D01*
X375776Y414167D01*
X404319Y385625D01*
X404319Y380658D01*
X404331Y380560D01*
X404334Y380461D01*
X404351Y380403D01*
X404359Y380342D01*
X404395Y380250D01*
X404423Y380155D01*
X404453Y380103D01*
X404476Y380047D01*
X404534Y379967D01*
X404584Y379881D01*
X404650Y379806D01*
X404662Y379789D01*
X404672Y379782D01*
X404690Y379760D01*
X409653Y374798D01*
X409653Y366802D01*
X403998Y361147D01*
X396002Y361147D01*
G37*
%LPD*%
%LPC*%
G36*
X366002Y361147D02*
X366002Y361147D01*
X360347Y366802D01*
X360347Y374798D01*
X365310Y379760D01*
X365370Y379839D01*
X365438Y379911D01*
X365467Y379964D01*
X365504Y380012D01*
X365544Y380103D01*
X365592Y380189D01*
X365607Y380248D01*
X365631Y380304D01*
X365646Y380402D01*
X365671Y380497D01*
X365677Y380597D01*
X365681Y380618D01*
X365679Y380630D01*
X365681Y380658D01*
X365681Y386121D01*
X365669Y386220D01*
X365666Y386319D01*
X365649Y386377D01*
X365641Y386437D01*
X365605Y386529D01*
X365577Y386624D01*
X365547Y386676D01*
X365524Y386733D01*
X365466Y386813D01*
X365416Y386898D01*
X365350Y386973D01*
X365338Y386990D01*
X365328Y386998D01*
X365310Y387019D01*
X344269Y408060D01*
X344245Y408078D01*
X344226Y408100D01*
X344120Y408175D01*
X344018Y408255D01*
X343990Y408266D01*
X343966Y408283D01*
X343845Y408329D01*
X343726Y408381D01*
X343696Y408385D01*
X343669Y408396D01*
X343540Y408410D01*
X343412Y408431D01*
X343382Y408428D01*
X343353Y408431D01*
X343224Y408413D01*
X343095Y408401D01*
X343067Y408391D01*
X343038Y408387D01*
X342886Y408335D01*
X342520Y408183D01*
X338680Y408183D01*
X335132Y409653D01*
X332417Y412368D01*
X330947Y415916D01*
X330947Y432964D01*
X332417Y436512D01*
X335132Y439227D01*
X338680Y440697D01*
X342520Y440697D01*
X346068Y439227D01*
X348783Y436512D01*
X350253Y432964D01*
X350253Y415916D01*
X350101Y415550D01*
X350093Y415522D01*
X350080Y415496D01*
X350052Y415369D01*
X350017Y415244D01*
X350017Y415214D01*
X350010Y415185D01*
X350014Y415056D01*
X350012Y414926D01*
X350019Y414897D01*
X350020Y414867D01*
X350056Y414743D01*
X350086Y414616D01*
X350100Y414590D01*
X350108Y414562D01*
X350174Y414450D01*
X350235Y414335D01*
X350255Y414313D01*
X350270Y414288D01*
X350306Y414247D01*
X350308Y414243D01*
X350314Y414238D01*
X350376Y414167D01*
X374319Y390225D01*
X374319Y380658D01*
X374331Y380560D01*
X374334Y380461D01*
X374351Y380403D01*
X374359Y380342D01*
X374395Y380250D01*
X374423Y380155D01*
X374453Y380103D01*
X374476Y380047D01*
X374534Y379967D01*
X374584Y379881D01*
X374650Y379806D01*
X374662Y379789D01*
X374672Y379782D01*
X374690Y379760D01*
X379653Y374798D01*
X379653Y366802D01*
X373998Y361147D01*
X366002Y361147D01*
G37*
%LPD*%
%LPC*%
G36*
X336002Y361147D02*
X336002Y361147D01*
X330347Y366802D01*
X330347Y374798D01*
X335310Y379760D01*
X335370Y379839D01*
X335438Y379911D01*
X335467Y379964D01*
X335504Y380012D01*
X335544Y380103D01*
X335592Y380189D01*
X335607Y380248D01*
X335631Y380304D01*
X335646Y380402D01*
X335671Y380497D01*
X335677Y380597D01*
X335681Y380618D01*
X335679Y380630D01*
X335681Y380658D01*
X335681Y390721D01*
X335669Y390820D01*
X335666Y390919D01*
X335649Y390977D01*
X335641Y391037D01*
X335605Y391129D01*
X335577Y391224D01*
X335547Y391276D01*
X335524Y391333D01*
X335466Y391413D01*
X335416Y391498D01*
X335350Y391573D01*
X335338Y391590D01*
X335328Y391598D01*
X335310Y391619D01*
X318869Y408060D01*
X318845Y408078D01*
X318826Y408100D01*
X318720Y408175D01*
X318618Y408255D01*
X318590Y408266D01*
X318566Y408283D01*
X318445Y408329D01*
X318326Y408381D01*
X318296Y408385D01*
X318269Y408396D01*
X318140Y408410D01*
X318012Y408431D01*
X317982Y408428D01*
X317953Y408431D01*
X317824Y408413D01*
X317695Y408401D01*
X317667Y408391D01*
X317638Y408387D01*
X317486Y408335D01*
X317120Y408183D01*
X313280Y408183D01*
X309732Y409653D01*
X307017Y412368D01*
X305547Y415916D01*
X305547Y432964D01*
X307017Y436512D01*
X309732Y439227D01*
X313280Y440697D01*
X317120Y440697D01*
X320668Y439227D01*
X323383Y436512D01*
X324853Y432964D01*
X324853Y415916D01*
X324701Y415550D01*
X324693Y415522D01*
X324680Y415496D01*
X324652Y415369D01*
X324617Y415244D01*
X324617Y415214D01*
X324610Y415185D01*
X324614Y415056D01*
X324612Y414926D01*
X324619Y414897D01*
X324620Y414867D01*
X324656Y414743D01*
X324686Y414616D01*
X324700Y414590D01*
X324708Y414562D01*
X324774Y414450D01*
X324835Y414335D01*
X324855Y414313D01*
X324870Y414288D01*
X324906Y414247D01*
X324908Y414243D01*
X324914Y414238D01*
X324976Y414167D01*
X344319Y394825D01*
X344319Y380658D01*
X344331Y380560D01*
X344334Y380461D01*
X344351Y380403D01*
X344359Y380342D01*
X344395Y380250D01*
X344423Y380155D01*
X344453Y380103D01*
X344476Y380047D01*
X344534Y379967D01*
X344584Y379881D01*
X344650Y379806D01*
X344662Y379789D01*
X344672Y379782D01*
X344690Y379760D01*
X349653Y374798D01*
X349653Y366802D01*
X343998Y361147D01*
X336002Y361147D01*
G37*
%LPD*%
%LPC*%
G36*
X466002Y361147D02*
X466002Y361147D01*
X460347Y366802D01*
X460347Y374798D01*
X465310Y379761D01*
X465370Y379839D01*
X465438Y379911D01*
X465467Y379964D01*
X465504Y380012D01*
X465544Y380103D01*
X465592Y380189D01*
X465607Y380248D01*
X465631Y380304D01*
X465646Y380402D01*
X465671Y380497D01*
X465677Y380597D01*
X465681Y380618D01*
X465679Y380630D01*
X465681Y380658D01*
X465681Y390085D01*
X488324Y412727D01*
X488342Y412751D01*
X488364Y412770D01*
X488439Y412876D01*
X488519Y412978D01*
X488530Y413006D01*
X488547Y413030D01*
X488593Y413151D01*
X488645Y413270D01*
X488649Y413300D01*
X488660Y413327D01*
X488674Y413456D01*
X488695Y413584D01*
X488692Y413614D01*
X488695Y413643D01*
X488677Y413772D01*
X488665Y413901D01*
X488655Y413929D01*
X488651Y413958D01*
X488599Y414110D01*
X488447Y414476D01*
X488447Y431524D01*
X489917Y435072D01*
X492632Y437787D01*
X496180Y439257D01*
X500020Y439257D01*
X503568Y437787D01*
X506283Y435072D01*
X507753Y431524D01*
X507753Y414476D01*
X506283Y410928D01*
X503568Y408213D01*
X500020Y406743D01*
X496180Y406743D01*
X495814Y406895D01*
X495786Y406903D01*
X495760Y406916D01*
X495633Y406944D01*
X495508Y406979D01*
X495478Y406979D01*
X495449Y406986D01*
X495320Y406982D01*
X495190Y406984D01*
X495161Y406977D01*
X495131Y406976D01*
X495007Y406940D01*
X494880Y406910D01*
X494854Y406896D01*
X494826Y406888D01*
X494714Y406822D01*
X494599Y406761D01*
X494577Y406741D01*
X494552Y406726D01*
X494431Y406620D01*
X474690Y386879D01*
X474630Y386801D01*
X474562Y386728D01*
X474533Y386675D01*
X474496Y386628D01*
X474456Y386537D01*
X474408Y386450D01*
X474393Y386391D01*
X474369Y386336D01*
X474354Y386238D01*
X474329Y386142D01*
X474323Y386042D01*
X474319Y386022D01*
X474321Y386009D01*
X474319Y385981D01*
X474319Y380658D01*
X474331Y380560D01*
X474334Y380461D01*
X474351Y380403D01*
X474359Y380342D01*
X474395Y380250D01*
X474423Y380155D01*
X474453Y380103D01*
X474476Y380047D01*
X474534Y379967D01*
X474584Y379881D01*
X474650Y379806D01*
X474662Y379789D01*
X474672Y379782D01*
X474690Y379761D01*
X479653Y374798D01*
X479653Y366802D01*
X473998Y361147D01*
X466002Y361147D01*
G37*
%LPD*%
%LPC*%
G36*
X306002Y361147D02*
X306002Y361147D01*
X300347Y366802D01*
X300347Y374798D01*
X305310Y379760D01*
X305370Y379839D01*
X305438Y379911D01*
X305467Y379964D01*
X305504Y380012D01*
X305544Y380103D01*
X305592Y380189D01*
X305607Y380248D01*
X305631Y380304D01*
X305646Y380402D01*
X305671Y380497D01*
X305677Y380597D01*
X305681Y380618D01*
X305679Y380630D01*
X305681Y380658D01*
X305681Y395321D01*
X305669Y395420D01*
X305666Y395519D01*
X305649Y395577D01*
X305641Y395637D01*
X305605Y395729D01*
X305577Y395824D01*
X305547Y395876D01*
X305524Y395933D01*
X305466Y396013D01*
X305416Y396098D01*
X305350Y396173D01*
X305338Y396190D01*
X305328Y396198D01*
X305310Y396219D01*
X293469Y408060D01*
X293445Y408078D01*
X293426Y408100D01*
X293320Y408175D01*
X293218Y408255D01*
X293190Y408266D01*
X293166Y408283D01*
X293045Y408329D01*
X292926Y408381D01*
X292896Y408385D01*
X292869Y408396D01*
X292740Y408410D01*
X292612Y408431D01*
X292582Y408428D01*
X292553Y408431D01*
X292424Y408413D01*
X292295Y408401D01*
X292267Y408391D01*
X292238Y408387D01*
X292086Y408335D01*
X291720Y408183D01*
X287880Y408183D01*
X284332Y409653D01*
X281617Y412368D01*
X280147Y415916D01*
X280147Y432964D01*
X281617Y436512D01*
X284332Y439227D01*
X287880Y440697D01*
X291720Y440697D01*
X295268Y439227D01*
X297983Y436512D01*
X299453Y432964D01*
X299453Y415916D01*
X299301Y415550D01*
X299293Y415522D01*
X299280Y415496D01*
X299252Y415369D01*
X299217Y415244D01*
X299217Y415214D01*
X299210Y415185D01*
X299214Y415056D01*
X299212Y414926D01*
X299219Y414897D01*
X299220Y414867D01*
X299256Y414743D01*
X299286Y414616D01*
X299300Y414590D01*
X299308Y414562D01*
X299374Y414450D01*
X299435Y414335D01*
X299455Y414313D01*
X299470Y414288D01*
X299506Y414247D01*
X299508Y414243D01*
X299514Y414238D01*
X299576Y414167D01*
X314319Y399425D01*
X314319Y380658D01*
X314331Y380560D01*
X314334Y380461D01*
X314351Y380403D01*
X314359Y380342D01*
X314395Y380250D01*
X314423Y380155D01*
X314453Y380103D01*
X314476Y380047D01*
X314534Y379967D01*
X314584Y379881D01*
X314650Y379806D01*
X314662Y379789D01*
X314672Y379782D01*
X314690Y379760D01*
X319653Y374798D01*
X319653Y366802D01*
X313998Y361147D01*
X306002Y361147D01*
G37*
%LPD*%
%LPC*%
G36*
X496002Y361147D02*
X496002Y361147D01*
X490347Y366802D01*
X490347Y374798D01*
X496002Y380453D01*
X503019Y380453D01*
X503118Y380465D01*
X503217Y380468D01*
X503275Y380485D01*
X503335Y380493D01*
X503427Y380529D01*
X503522Y380557D01*
X503574Y380587D01*
X503631Y380610D01*
X503711Y380668D01*
X503796Y380718D01*
X503871Y380784D01*
X503888Y380796D01*
X503896Y380806D01*
X503917Y380824D01*
X518810Y395717D01*
X518870Y395795D01*
X518938Y395868D01*
X518967Y395921D01*
X519004Y395968D01*
X519044Y396059D01*
X519092Y396146D01*
X519107Y396205D01*
X519131Y396260D01*
X519146Y396358D01*
X519171Y396454D01*
X519177Y396554D01*
X519181Y396574D01*
X519179Y396587D01*
X519181Y396615D01*
X519181Y406889D01*
X519178Y406918D01*
X519180Y406948D01*
X519158Y407075D01*
X519141Y407204D01*
X519131Y407232D01*
X519126Y407261D01*
X519072Y407380D01*
X519024Y407500D01*
X519007Y407524D01*
X518995Y407551D01*
X518914Y407652D01*
X518838Y407757D01*
X518815Y407776D01*
X518796Y407799D01*
X518693Y407877D01*
X518593Y407960D01*
X518566Y407973D01*
X518542Y407990D01*
X518398Y408061D01*
X518032Y408213D01*
X515317Y410928D01*
X513847Y414476D01*
X513847Y431524D01*
X515317Y435072D01*
X518032Y437787D01*
X521580Y439257D01*
X525420Y439257D01*
X528968Y437787D01*
X531683Y435072D01*
X533153Y431524D01*
X533153Y414476D01*
X531683Y410928D01*
X528968Y408213D01*
X528602Y408061D01*
X528577Y408047D01*
X528549Y408038D01*
X528439Y407968D01*
X528326Y407904D01*
X528305Y407883D01*
X528280Y407868D01*
X528191Y407773D01*
X528098Y407683D01*
X528082Y407657D01*
X528062Y407636D01*
X527999Y407522D01*
X527931Y407411D01*
X527923Y407383D01*
X527908Y407357D01*
X527876Y407232D01*
X527838Y407108D01*
X527836Y407078D01*
X527829Y407049D01*
X527819Y406889D01*
X527819Y392511D01*
X510024Y374717D01*
X509964Y374639D01*
X509896Y374566D01*
X509867Y374513D01*
X509830Y374466D01*
X509790Y374375D01*
X509742Y374288D01*
X509727Y374229D01*
X509703Y374174D01*
X509688Y374076D01*
X509663Y373980D01*
X509657Y373880D01*
X509653Y373860D01*
X509655Y373847D01*
X509653Y373819D01*
X509653Y366802D01*
X503998Y361147D01*
X496002Y361147D01*
G37*
%LPD*%
%LPC*%
G36*
X276002Y361147D02*
X276002Y361147D01*
X270347Y366802D01*
X270347Y373819D01*
X270335Y373918D01*
X270332Y374017D01*
X270315Y374075D01*
X270307Y374135D01*
X270271Y374227D01*
X270243Y374322D01*
X270213Y374374D01*
X270190Y374431D01*
X270132Y374511D01*
X270082Y374596D01*
X270016Y374671D01*
X270004Y374688D01*
X269994Y374696D01*
X269976Y374717D01*
X262983Y381710D01*
X260081Y384611D01*
X260081Y408329D01*
X260078Y408358D01*
X260080Y408388D01*
X260058Y408515D01*
X260041Y408644D01*
X260031Y408672D01*
X260026Y408701D01*
X259972Y408820D01*
X259924Y408940D01*
X259907Y408964D01*
X259895Y408991D01*
X259814Y409092D01*
X259738Y409197D01*
X259715Y409216D01*
X259696Y409239D01*
X259593Y409317D01*
X259493Y409400D01*
X259466Y409413D01*
X259442Y409430D01*
X259298Y409501D01*
X258932Y409653D01*
X256217Y412368D01*
X254747Y415916D01*
X254747Y432964D01*
X256217Y436512D01*
X258932Y439227D01*
X262480Y440697D01*
X266320Y440697D01*
X269868Y439227D01*
X272583Y436512D01*
X274053Y432964D01*
X274053Y415916D01*
X272583Y412368D01*
X269868Y409653D01*
X269502Y409501D01*
X269477Y409487D01*
X269449Y409478D01*
X269339Y409408D01*
X269226Y409344D01*
X269205Y409323D01*
X269180Y409308D01*
X269091Y409213D01*
X268998Y409123D01*
X268982Y409097D01*
X268962Y409076D01*
X268899Y408962D01*
X268831Y408851D01*
X268823Y408823D01*
X268808Y408797D01*
X268776Y408672D01*
X268738Y408548D01*
X268736Y408518D01*
X268729Y408489D01*
X268719Y408329D01*
X268719Y388715D01*
X268731Y388616D01*
X268734Y388517D01*
X268751Y388459D01*
X268759Y388399D01*
X268795Y388307D01*
X268823Y388212D01*
X268853Y388160D01*
X268876Y388103D01*
X268934Y388023D01*
X268984Y387938D01*
X269050Y387863D01*
X269062Y387846D01*
X269072Y387838D01*
X269090Y387817D01*
X276083Y380824D01*
X276161Y380764D01*
X276233Y380696D01*
X276286Y380667D01*
X276334Y380630D01*
X276425Y380590D01*
X276512Y380542D01*
X276571Y380527D01*
X276626Y380503D01*
X276724Y380488D01*
X276820Y380463D01*
X276920Y380457D01*
X276940Y380453D01*
X276953Y380455D01*
X276981Y380453D01*
X283998Y380453D01*
X289653Y374798D01*
X289653Y366802D01*
X283998Y361147D01*
X276002Y361147D01*
G37*
%LPD*%
%LPC*%
G36*
X526002Y361147D02*
X526002Y361147D01*
X520347Y366802D01*
X520347Y374798D01*
X526002Y380453D01*
X533019Y380453D01*
X533118Y380465D01*
X533217Y380468D01*
X533275Y380485D01*
X533335Y380493D01*
X533427Y380529D01*
X533522Y380557D01*
X533574Y380587D01*
X533631Y380610D01*
X533711Y380668D01*
X533796Y380718D01*
X533871Y380784D01*
X533888Y380796D01*
X533896Y380806D01*
X533917Y380824D01*
X544210Y391117D01*
X544270Y391195D01*
X544338Y391268D01*
X544367Y391321D01*
X544404Y391368D01*
X544444Y391459D01*
X544492Y391546D01*
X544507Y391605D01*
X544531Y391660D01*
X544546Y391758D01*
X544571Y391854D01*
X544577Y391954D01*
X544581Y391974D01*
X544579Y391987D01*
X544581Y392015D01*
X544581Y406889D01*
X544578Y406918D01*
X544580Y406948D01*
X544558Y407075D01*
X544541Y407204D01*
X544531Y407232D01*
X544526Y407261D01*
X544472Y407380D01*
X544424Y407500D01*
X544407Y407524D01*
X544395Y407551D01*
X544314Y407652D01*
X544238Y407757D01*
X544215Y407776D01*
X544196Y407799D01*
X544093Y407877D01*
X543993Y407960D01*
X543966Y407973D01*
X543942Y407990D01*
X543798Y408061D01*
X543432Y408213D01*
X540717Y410928D01*
X539247Y414476D01*
X539247Y431524D01*
X540717Y435072D01*
X543432Y437787D01*
X546980Y439257D01*
X550820Y439257D01*
X554368Y437787D01*
X557083Y435072D01*
X558553Y431524D01*
X558553Y414476D01*
X557083Y410928D01*
X554368Y408213D01*
X554002Y408061D01*
X553977Y408047D01*
X553949Y408038D01*
X553839Y407968D01*
X553726Y407904D01*
X553705Y407883D01*
X553680Y407868D01*
X553591Y407773D01*
X553498Y407683D01*
X553482Y407657D01*
X553462Y407636D01*
X553399Y407522D01*
X553331Y407411D01*
X553323Y407383D01*
X553308Y407357D01*
X553276Y407232D01*
X553238Y407108D01*
X553236Y407078D01*
X553229Y407049D01*
X553219Y406889D01*
X553219Y387911D01*
X540024Y374717D01*
X539964Y374639D01*
X539896Y374566D01*
X539867Y374513D01*
X539830Y374466D01*
X539790Y374375D01*
X539742Y374288D01*
X539727Y374229D01*
X539703Y374174D01*
X539688Y374076D01*
X539663Y373980D01*
X539657Y373880D01*
X539653Y373860D01*
X539655Y373847D01*
X539653Y373819D01*
X539653Y366802D01*
X533998Y361147D01*
X526002Y361147D01*
G37*
%LPD*%
%LPC*%
G36*
X246002Y361147D02*
X246002Y361147D01*
X240347Y366802D01*
X240347Y373819D01*
X240335Y373918D01*
X240332Y374017D01*
X240315Y374075D01*
X240307Y374135D01*
X240271Y374227D01*
X240243Y374322D01*
X240213Y374374D01*
X240190Y374431D01*
X240132Y374511D01*
X240082Y374596D01*
X240016Y374671D01*
X240004Y374688D01*
X239994Y374696D01*
X239976Y374717D01*
X234681Y380011D01*
X234681Y408329D01*
X234678Y408358D01*
X234680Y408388D01*
X234658Y408515D01*
X234641Y408644D01*
X234631Y408672D01*
X234626Y408701D01*
X234572Y408820D01*
X234524Y408940D01*
X234507Y408964D01*
X234495Y408991D01*
X234414Y409092D01*
X234338Y409197D01*
X234315Y409216D01*
X234296Y409239D01*
X234193Y409317D01*
X234093Y409400D01*
X234066Y409413D01*
X234042Y409430D01*
X233898Y409501D01*
X233532Y409653D01*
X230817Y412368D01*
X229347Y415916D01*
X229347Y432964D01*
X230817Y436512D01*
X233532Y439227D01*
X237080Y440697D01*
X240920Y440697D01*
X244468Y439227D01*
X247183Y436512D01*
X248653Y432964D01*
X248653Y415916D01*
X247183Y412368D01*
X244468Y409653D01*
X244102Y409501D01*
X244077Y409487D01*
X244049Y409478D01*
X243939Y409408D01*
X243826Y409344D01*
X243805Y409323D01*
X243780Y409308D01*
X243691Y409213D01*
X243598Y409123D01*
X243582Y409097D01*
X243562Y409076D01*
X243499Y408962D01*
X243431Y408851D01*
X243423Y408823D01*
X243408Y408797D01*
X243376Y408672D01*
X243338Y408548D01*
X243336Y408518D01*
X243329Y408489D01*
X243319Y408329D01*
X243319Y384115D01*
X243331Y384016D01*
X243334Y383917D01*
X243351Y383859D01*
X243359Y383799D01*
X243395Y383707D01*
X243423Y383612D01*
X243453Y383560D01*
X243476Y383503D01*
X243534Y383423D01*
X243584Y383338D01*
X243650Y383263D01*
X243662Y383246D01*
X243672Y383238D01*
X243690Y383217D01*
X246083Y380824D01*
X246161Y380764D01*
X246234Y380696D01*
X246287Y380667D01*
X246334Y380630D01*
X246425Y380590D01*
X246512Y380542D01*
X246571Y380527D01*
X246626Y380503D01*
X246724Y380488D01*
X246820Y380463D01*
X246920Y380457D01*
X246940Y380453D01*
X246953Y380455D01*
X246981Y380453D01*
X253998Y380453D01*
X259653Y374798D01*
X259653Y366802D01*
X253998Y361147D01*
X246002Y361147D01*
G37*
%LPD*%
%LPC*%
G36*
X556002Y361147D02*
X556002Y361147D01*
X550347Y366802D01*
X550347Y374798D01*
X556002Y380453D01*
X563019Y380453D01*
X563118Y380465D01*
X563217Y380468D01*
X563275Y380485D01*
X563335Y380493D01*
X563427Y380529D01*
X563522Y380557D01*
X563574Y380587D01*
X563631Y380610D01*
X563711Y380668D01*
X563796Y380718D01*
X563871Y380784D01*
X563888Y380796D01*
X563896Y380806D01*
X563917Y380824D01*
X569610Y386517D01*
X569670Y386595D01*
X569738Y386668D01*
X569767Y386721D01*
X569804Y386768D01*
X569844Y386859D01*
X569892Y386946D01*
X569907Y387005D01*
X569931Y387060D01*
X569946Y387158D01*
X569971Y387254D01*
X569977Y387354D01*
X569981Y387374D01*
X569979Y387387D01*
X569981Y387415D01*
X569981Y406889D01*
X569978Y406918D01*
X569980Y406948D01*
X569958Y407075D01*
X569941Y407204D01*
X569931Y407232D01*
X569926Y407261D01*
X569872Y407380D01*
X569824Y407500D01*
X569807Y407524D01*
X569795Y407551D01*
X569714Y407652D01*
X569638Y407757D01*
X569615Y407776D01*
X569596Y407799D01*
X569493Y407877D01*
X569393Y407960D01*
X569366Y407973D01*
X569342Y407990D01*
X569198Y408061D01*
X568832Y408213D01*
X566117Y410928D01*
X564647Y414476D01*
X564647Y431524D01*
X566117Y435072D01*
X568832Y437787D01*
X572380Y439257D01*
X576220Y439257D01*
X579768Y437787D01*
X582483Y435072D01*
X583953Y431524D01*
X583953Y414476D01*
X582483Y410928D01*
X579768Y408213D01*
X579402Y408061D01*
X579377Y408047D01*
X579349Y408038D01*
X579239Y407968D01*
X579126Y407904D01*
X579105Y407883D01*
X579080Y407868D01*
X578991Y407773D01*
X578898Y407683D01*
X578882Y407657D01*
X578862Y407636D01*
X578799Y407522D01*
X578731Y407411D01*
X578723Y407383D01*
X578708Y407357D01*
X578676Y407232D01*
X578638Y407108D01*
X578636Y407078D01*
X578629Y407049D01*
X578619Y406889D01*
X578619Y383311D01*
X570024Y374717D01*
X569964Y374639D01*
X569896Y374566D01*
X569867Y374513D01*
X569830Y374466D01*
X569790Y374375D01*
X569742Y374288D01*
X569727Y374229D01*
X569703Y374174D01*
X569688Y374076D01*
X569663Y373980D01*
X569657Y373880D01*
X569653Y373860D01*
X569655Y373847D01*
X569653Y373819D01*
X569653Y366802D01*
X563998Y361147D01*
X556002Y361147D01*
G37*
%LPD*%
%LPC*%
G36*
X586002Y361147D02*
X586002Y361147D01*
X580347Y366802D01*
X580347Y374798D01*
X586002Y380453D01*
X593019Y380453D01*
X593118Y380465D01*
X593217Y380468D01*
X593275Y380485D01*
X593335Y380493D01*
X593427Y380529D01*
X593522Y380557D01*
X593574Y380587D01*
X593631Y380610D01*
X593711Y380668D01*
X593796Y380718D01*
X593871Y380784D01*
X593888Y380796D01*
X593896Y380806D01*
X593917Y380824D01*
X595010Y381917D01*
X595070Y381995D01*
X595138Y382068D01*
X595167Y382121D01*
X595204Y382168D01*
X595244Y382259D01*
X595292Y382346D01*
X595307Y382405D01*
X595331Y382460D01*
X595346Y382558D01*
X595371Y382654D01*
X595377Y382754D01*
X595381Y382774D01*
X595379Y382787D01*
X595381Y382815D01*
X595381Y406889D01*
X595378Y406918D01*
X595380Y406948D01*
X595358Y407075D01*
X595341Y407204D01*
X595331Y407232D01*
X595326Y407261D01*
X595272Y407380D01*
X595224Y407500D01*
X595207Y407524D01*
X595195Y407551D01*
X595114Y407652D01*
X595038Y407757D01*
X595015Y407776D01*
X594996Y407799D01*
X594893Y407877D01*
X594793Y407960D01*
X594766Y407973D01*
X594742Y407990D01*
X594598Y408061D01*
X594232Y408213D01*
X591517Y410928D01*
X590047Y414476D01*
X590047Y431524D01*
X591517Y435072D01*
X594232Y437787D01*
X597780Y439257D01*
X601620Y439257D01*
X605168Y437787D01*
X607883Y435072D01*
X609353Y431524D01*
X609353Y414476D01*
X607883Y410928D01*
X605168Y408213D01*
X604802Y408061D01*
X604777Y408047D01*
X604749Y408038D01*
X604639Y407968D01*
X604526Y407904D01*
X604505Y407883D01*
X604480Y407868D01*
X604391Y407773D01*
X604298Y407683D01*
X604282Y407657D01*
X604262Y407636D01*
X604199Y407522D01*
X604131Y407411D01*
X604123Y407383D01*
X604108Y407357D01*
X604076Y407232D01*
X604038Y407108D01*
X604036Y407078D01*
X604029Y407049D01*
X604019Y406889D01*
X604019Y378711D01*
X600024Y374717D01*
X599964Y374639D01*
X599896Y374566D01*
X599867Y374513D01*
X599830Y374466D01*
X599790Y374375D01*
X599742Y374288D01*
X599727Y374229D01*
X599703Y374174D01*
X599688Y374076D01*
X599663Y373980D01*
X599657Y373880D01*
X599653Y373860D01*
X599655Y373847D01*
X599653Y373819D01*
X599653Y366802D01*
X593998Y361147D01*
X586002Y361147D01*
G37*
%LPD*%
%LPC*%
G36*
X216002Y361147D02*
X216002Y361147D01*
X210347Y366802D01*
X210347Y373819D01*
X210335Y373918D01*
X210332Y374017D01*
X210315Y374075D01*
X210307Y374135D01*
X210271Y374227D01*
X210243Y374322D01*
X210213Y374374D01*
X210190Y374431D01*
X210132Y374511D01*
X210082Y374596D01*
X210016Y374671D01*
X210004Y374688D01*
X209994Y374696D01*
X209976Y374717D01*
X209281Y375411D01*
X209281Y408329D01*
X209278Y408358D01*
X209280Y408388D01*
X209258Y408515D01*
X209241Y408644D01*
X209231Y408672D01*
X209226Y408701D01*
X209172Y408820D01*
X209124Y408940D01*
X209107Y408964D01*
X209095Y408991D01*
X209014Y409092D01*
X208938Y409197D01*
X208915Y409216D01*
X208896Y409239D01*
X208793Y409317D01*
X208693Y409400D01*
X208666Y409413D01*
X208642Y409430D01*
X208498Y409501D01*
X208132Y409653D01*
X205417Y412368D01*
X203947Y415916D01*
X203947Y432964D01*
X205417Y436512D01*
X208132Y439227D01*
X211680Y440697D01*
X215520Y440697D01*
X219068Y439227D01*
X221783Y436512D01*
X223253Y432964D01*
X223253Y415916D01*
X221783Y412368D01*
X219068Y409653D01*
X218702Y409501D01*
X218677Y409487D01*
X218649Y409478D01*
X218539Y409408D01*
X218426Y409344D01*
X218405Y409323D01*
X218380Y409308D01*
X218291Y409213D01*
X218198Y409123D01*
X218182Y409097D01*
X218162Y409076D01*
X218099Y408962D01*
X218031Y408851D01*
X218023Y408823D01*
X218008Y408797D01*
X217976Y408672D01*
X217938Y408548D01*
X217936Y408518D01*
X217929Y408489D01*
X217919Y408329D01*
X217919Y381722D01*
X217934Y381604D01*
X217941Y381485D01*
X217954Y381447D01*
X217959Y381406D01*
X218002Y381296D01*
X218039Y381183D01*
X218061Y381148D01*
X218076Y381111D01*
X218145Y381015D01*
X218209Y380914D01*
X218239Y380886D01*
X218262Y380853D01*
X218354Y380777D01*
X218441Y380696D01*
X218476Y380676D01*
X218507Y380651D01*
X218615Y380600D01*
X218719Y380542D01*
X218759Y380532D01*
X218795Y380515D01*
X218912Y380493D01*
X219027Y380463D01*
X219087Y380459D01*
X219107Y380455D01*
X219128Y380457D01*
X219188Y380453D01*
X223998Y380453D01*
X229653Y374798D01*
X229653Y366802D01*
X223998Y361147D01*
X216002Y361147D01*
G37*
%LPD*%
%LPC*%
G36*
X616002Y361147D02*
X616002Y361147D01*
X610347Y366802D01*
X610347Y374798D01*
X616002Y380453D01*
X619512Y380453D01*
X619630Y380468D01*
X619749Y380475D01*
X619787Y380488D01*
X619828Y380493D01*
X619938Y380536D01*
X620051Y380573D01*
X620086Y380595D01*
X620123Y380610D01*
X620219Y380679D01*
X620320Y380743D01*
X620348Y380773D01*
X620381Y380796D01*
X620457Y380888D01*
X620538Y380975D01*
X620558Y381010D01*
X620583Y381041D01*
X620634Y381149D01*
X620692Y381253D01*
X620702Y381293D01*
X620719Y381329D01*
X620741Y381446D01*
X620771Y381561D01*
X620775Y381621D01*
X620779Y381641D01*
X620777Y381662D01*
X620781Y381722D01*
X620781Y406889D01*
X620778Y406918D01*
X620780Y406948D01*
X620758Y407075D01*
X620741Y407204D01*
X620731Y407232D01*
X620726Y407261D01*
X620672Y407380D01*
X620624Y407500D01*
X620607Y407524D01*
X620595Y407551D01*
X620514Y407652D01*
X620438Y407757D01*
X620415Y407776D01*
X620396Y407799D01*
X620293Y407877D01*
X620193Y407960D01*
X620166Y407973D01*
X620142Y407990D01*
X619998Y408061D01*
X619632Y408213D01*
X616917Y410928D01*
X615447Y414476D01*
X615447Y431524D01*
X616917Y435072D01*
X619632Y437787D01*
X623180Y439257D01*
X627020Y439257D01*
X630568Y437787D01*
X633283Y435072D01*
X634753Y431524D01*
X634753Y414476D01*
X633283Y410928D01*
X630568Y408213D01*
X630202Y408061D01*
X630177Y408047D01*
X630149Y408038D01*
X630039Y407968D01*
X629926Y407904D01*
X629905Y407883D01*
X629880Y407868D01*
X629791Y407773D01*
X629698Y407683D01*
X629682Y407657D01*
X629662Y407636D01*
X629599Y407522D01*
X629531Y407411D01*
X629523Y407383D01*
X629508Y407357D01*
X629476Y407232D01*
X629438Y407108D01*
X629436Y407078D01*
X629429Y407049D01*
X629419Y406889D01*
X629419Y375558D01*
X629431Y375460D01*
X629434Y375361D01*
X629451Y375303D01*
X629459Y375242D01*
X629495Y375150D01*
X629523Y375055D01*
X629553Y375003D01*
X629576Y374947D01*
X629634Y374867D01*
X629653Y374835D01*
X629653Y366802D01*
X623998Y361147D01*
X616002Y361147D01*
G37*
%LPD*%
%LPC*%
G36*
X646002Y361147D02*
X646002Y361147D01*
X640347Y366802D01*
X640347Y374798D01*
X645810Y380260D01*
X645870Y380339D01*
X645938Y380411D01*
X645967Y380464D01*
X646004Y380512D01*
X646044Y380603D01*
X646092Y380689D01*
X646107Y380748D01*
X646131Y380804D01*
X646146Y380902D01*
X646171Y380997D01*
X646177Y381097D01*
X646181Y381118D01*
X646179Y381130D01*
X646181Y381158D01*
X646181Y406889D01*
X646178Y406918D01*
X646180Y406948D01*
X646158Y407075D01*
X646141Y407204D01*
X646131Y407232D01*
X646126Y407261D01*
X646072Y407380D01*
X646024Y407500D01*
X646007Y407524D01*
X645995Y407551D01*
X645914Y407652D01*
X645838Y407757D01*
X645815Y407776D01*
X645796Y407799D01*
X645693Y407877D01*
X645593Y407960D01*
X645566Y407973D01*
X645542Y407990D01*
X645398Y408061D01*
X645032Y408213D01*
X642317Y410928D01*
X640847Y414476D01*
X640847Y431524D01*
X642317Y435072D01*
X645032Y437787D01*
X648580Y439257D01*
X652420Y439257D01*
X655968Y437787D01*
X658683Y435072D01*
X660153Y431524D01*
X660153Y414476D01*
X658683Y410928D01*
X655968Y408213D01*
X655602Y408061D01*
X655577Y408047D01*
X655549Y408038D01*
X655439Y407968D01*
X655326Y407904D01*
X655305Y407883D01*
X655280Y407868D01*
X655191Y407773D01*
X655098Y407683D01*
X655082Y407657D01*
X655062Y407636D01*
X654999Y407522D01*
X654931Y407411D01*
X654923Y407383D01*
X654908Y407357D01*
X654876Y407232D01*
X654838Y407108D01*
X654836Y407078D01*
X654829Y407049D01*
X654819Y406889D01*
X654819Y380158D01*
X654831Y380060D01*
X654834Y379961D01*
X654851Y379903D01*
X654859Y379842D01*
X654895Y379750D01*
X654923Y379655D01*
X654953Y379603D01*
X654976Y379547D01*
X655034Y379467D01*
X655084Y379381D01*
X655150Y379306D01*
X655162Y379289D01*
X655172Y379282D01*
X655190Y379260D01*
X659653Y374798D01*
X659653Y366802D01*
X653998Y361147D01*
X646002Y361147D01*
G37*
%LPD*%
%LPC*%
G36*
X186002Y361147D02*
X186002Y361147D01*
X180347Y366802D01*
X180347Y374798D01*
X185310Y379761D01*
X185370Y379839D01*
X185438Y379911D01*
X185467Y379964D01*
X185504Y380012D01*
X185544Y380103D01*
X185592Y380189D01*
X185607Y380248D01*
X185631Y380304D01*
X185646Y380402D01*
X185671Y380497D01*
X185677Y380597D01*
X185681Y380618D01*
X185679Y380630D01*
X185681Y380658D01*
X185681Y400185D01*
X185669Y400284D01*
X185666Y400383D01*
X185649Y400441D01*
X185641Y400501D01*
X185605Y400593D01*
X185577Y400688D01*
X185547Y400740D01*
X185524Y400797D01*
X185466Y400877D01*
X185416Y400962D01*
X185350Y401037D01*
X185338Y401054D01*
X185328Y401062D01*
X185310Y401083D01*
X161845Y424548D01*
X161767Y424608D01*
X161694Y424676D01*
X161641Y424705D01*
X161594Y424742D01*
X161503Y424782D01*
X161416Y424830D01*
X161357Y424845D01*
X161302Y424869D01*
X161204Y424884D01*
X161108Y424909D01*
X161008Y424915D01*
X160988Y424919D01*
X160975Y424917D01*
X160947Y424919D01*
X158492Y424919D01*
X155706Y426073D01*
X153573Y428206D01*
X152419Y430992D01*
X152419Y434008D01*
X153573Y436794D01*
X155706Y438927D01*
X158492Y440081D01*
X161508Y440081D01*
X164294Y438927D01*
X166427Y436794D01*
X167581Y434008D01*
X167581Y431553D01*
X167593Y431454D01*
X167596Y431355D01*
X167603Y431332D01*
X167604Y431315D01*
X167615Y431280D01*
X167621Y431237D01*
X167657Y431145D01*
X167685Y431050D01*
X167696Y431030D01*
X167702Y431012D01*
X167722Y430980D01*
X167738Y430941D01*
X167796Y430861D01*
X167846Y430776D01*
X167866Y430753D01*
X167872Y430744D01*
X167886Y430730D01*
X167912Y430701D01*
X167924Y430684D01*
X167934Y430676D01*
X167952Y430655D01*
X194319Y404289D01*
X194319Y380658D01*
X194331Y380560D01*
X194334Y380461D01*
X194351Y380403D01*
X194359Y380342D01*
X194395Y380250D01*
X194423Y380155D01*
X194453Y380103D01*
X194476Y380047D01*
X194534Y379967D01*
X194584Y379881D01*
X194650Y379806D01*
X194662Y379789D01*
X194672Y379782D01*
X194690Y379761D01*
X199653Y374798D01*
X199653Y366802D01*
X193998Y361147D01*
X186002Y361147D01*
G37*
%LPD*%
%LPC*%
G36*
X105958Y392231D02*
X105958Y392231D01*
X102037Y393855D01*
X99035Y396857D01*
X97411Y400778D01*
X97411Y405022D01*
X99035Y408943D01*
X102037Y411945D01*
X105958Y413569D01*
X125442Y413569D01*
X129363Y411945D01*
X132365Y408943D01*
X133989Y405022D01*
X133989Y400778D01*
X132365Y396857D01*
X129363Y393855D01*
X125442Y392231D01*
X105958Y392231D01*
G37*
%LPD*%
%LPC*%
G36*
X496180Y482943D02*
X496180Y482943D01*
X492632Y484413D01*
X489917Y487128D01*
X488447Y490676D01*
X488447Y507724D01*
X489917Y511272D01*
X492632Y513987D01*
X496180Y515457D01*
X500020Y515457D01*
X503568Y513987D01*
X506283Y511272D01*
X507753Y507724D01*
X507753Y490676D01*
X506283Y487128D01*
X503568Y484413D01*
X500020Y482943D01*
X496180Y482943D01*
G37*
%LPD*%
%LPC*%
G36*
X211680Y484383D02*
X211680Y484383D01*
X208132Y485853D01*
X205417Y488568D01*
X203947Y492116D01*
X203947Y509164D01*
X205417Y512712D01*
X208132Y515427D01*
X211680Y516897D01*
X215520Y516897D01*
X219068Y515427D01*
X221783Y512712D01*
X223253Y509164D01*
X223253Y492116D01*
X221783Y488568D01*
X219068Y485853D01*
X215520Y484383D01*
X211680Y484383D01*
G37*
%LPD*%
%LPC*%
G36*
X237080Y484383D02*
X237080Y484383D01*
X233532Y485853D01*
X230817Y488568D01*
X229347Y492116D01*
X229347Y509164D01*
X230817Y512712D01*
X233532Y515427D01*
X237080Y516897D01*
X240920Y516897D01*
X244468Y515427D01*
X247183Y512712D01*
X248653Y509164D01*
X248653Y492116D01*
X247183Y488568D01*
X244468Y485853D01*
X240920Y484383D01*
X237080Y484383D01*
G37*
%LPD*%
%LPC*%
G36*
X364080Y484383D02*
X364080Y484383D01*
X360532Y485853D01*
X357817Y488568D01*
X356347Y492116D01*
X356347Y509164D01*
X357817Y512712D01*
X360532Y515427D01*
X364080Y516897D01*
X367920Y516897D01*
X371468Y515427D01*
X374183Y512712D01*
X375653Y509164D01*
X375653Y492116D01*
X374183Y488568D01*
X371468Y485853D01*
X367920Y484383D01*
X364080Y484383D01*
G37*
%LPD*%
%LPC*%
G36*
X673980Y482943D02*
X673980Y482943D01*
X670432Y484413D01*
X667717Y487128D01*
X666247Y490676D01*
X666247Y507724D01*
X667717Y511272D01*
X670432Y513987D01*
X673980Y515457D01*
X677820Y515457D01*
X681368Y513987D01*
X684083Y511272D01*
X685553Y507724D01*
X685553Y490676D01*
X684083Y487128D01*
X681368Y484413D01*
X677820Y482943D01*
X673980Y482943D01*
G37*
%LPD*%
%LPC*%
G36*
X648580Y482943D02*
X648580Y482943D01*
X645032Y484413D01*
X642317Y487128D01*
X640847Y490676D01*
X640847Y507724D01*
X642317Y511272D01*
X645032Y513987D01*
X648580Y515457D01*
X652420Y515457D01*
X655968Y513987D01*
X658683Y511272D01*
X660153Y507724D01*
X660153Y490676D01*
X658683Y487128D01*
X655968Y484413D01*
X652420Y482943D01*
X648580Y482943D01*
G37*
%LPD*%
%LPC*%
G36*
X597780Y482943D02*
X597780Y482943D01*
X594232Y484413D01*
X591517Y487128D01*
X590047Y490676D01*
X590047Y507724D01*
X591517Y511272D01*
X594232Y513987D01*
X597780Y515457D01*
X601620Y515457D01*
X605168Y513987D01*
X607883Y511272D01*
X609353Y507724D01*
X609353Y490676D01*
X607883Y487128D01*
X605168Y484413D01*
X601620Y482943D01*
X597780Y482943D01*
G37*
%LPD*%
%LPC*%
G36*
X572380Y482943D02*
X572380Y482943D01*
X568832Y484413D01*
X566117Y487128D01*
X564647Y490676D01*
X564647Y507724D01*
X566117Y511272D01*
X568832Y513987D01*
X572380Y515457D01*
X576220Y515457D01*
X579768Y513987D01*
X582483Y511272D01*
X583953Y507724D01*
X583953Y490676D01*
X582483Y487128D01*
X579768Y484413D01*
X576220Y482943D01*
X572380Y482943D01*
G37*
%LPD*%
%LPC*%
G36*
X147852Y390027D02*
X147852Y390027D01*
X142197Y395682D01*
X142197Y403678D01*
X147852Y409333D01*
X155848Y409333D01*
X161503Y403678D01*
X161503Y395682D01*
X155848Y390027D01*
X147852Y390027D01*
G37*
%LPD*%
%LPC*%
G36*
X598222Y535427D02*
X598222Y535427D01*
X592567Y541082D01*
X592567Y549078D01*
X598222Y554733D01*
X606218Y554733D01*
X611873Y549078D01*
X611873Y541082D01*
X606218Y535427D01*
X598222Y535427D01*
G37*
%LPD*%
%LPC*%
G36*
X716002Y478247D02*
X716002Y478247D01*
X710347Y483902D01*
X710347Y491898D01*
X716002Y497553D01*
X723998Y497553D01*
X729653Y491898D01*
X729653Y483902D01*
X723998Y478247D01*
X716002Y478247D01*
G37*
%LPD*%
%LPC*%
G36*
X118239Y430839D02*
X118239Y430839D01*
X118239Y438461D01*
X124120Y438461D01*
X125699Y438211D01*
X127220Y437716D01*
X128645Y436990D01*
X129939Y436050D01*
X131070Y434919D01*
X132010Y433625D01*
X132736Y432200D01*
X133179Y430839D01*
X118239Y430839D01*
G37*
%LPD*%
%LPC*%
G36*
X98221Y430839D02*
X98221Y430839D01*
X98664Y432200D01*
X99390Y433625D01*
X100330Y434919D01*
X101461Y436050D01*
X102755Y436990D01*
X104180Y437716D01*
X105701Y438211D01*
X107280Y438461D01*
X113161Y438461D01*
X113161Y430839D01*
X98221Y430839D01*
G37*
%LPD*%
%LPC*%
G36*
X118239Y418139D02*
X118239Y418139D01*
X118239Y425761D01*
X133179Y425761D01*
X132736Y424400D01*
X132010Y422975D01*
X131070Y421681D01*
X129939Y420550D01*
X128645Y419610D01*
X127220Y418884D01*
X125699Y418389D01*
X124120Y418139D01*
X118239Y418139D01*
G37*
%LPD*%
%LPC*%
G36*
X107280Y418139D02*
X107280Y418139D01*
X105701Y418389D01*
X104180Y418884D01*
X102755Y419610D01*
X101461Y420550D01*
X100330Y421681D01*
X99390Y422975D01*
X98664Y424400D01*
X98221Y425761D01*
X113161Y425761D01*
X113161Y418139D01*
X107280Y418139D01*
G37*
%LPD*%
%LPC*%
G36*
X393431Y426471D02*
X393431Y426471D01*
X393431Y439981D01*
X393541Y439964D01*
X394910Y439519D01*
X396193Y438865D01*
X397357Y438019D01*
X398375Y437001D01*
X399221Y435837D01*
X399875Y434554D01*
X400320Y433185D01*
X400545Y431764D01*
X400545Y426471D01*
X393431Y426471D01*
G37*
%LPD*%
%LPC*%
G36*
X677931Y425031D02*
X677931Y425031D01*
X677931Y438541D01*
X678041Y438524D01*
X679410Y438079D01*
X680693Y437425D01*
X681857Y436579D01*
X682875Y435561D01*
X683721Y434397D01*
X684375Y433114D01*
X684820Y431745D01*
X685045Y430324D01*
X685045Y425031D01*
X677931Y425031D01*
G37*
%LPD*%
%LPC*%
G36*
X393431Y422409D02*
X393431Y422409D01*
X400545Y422409D01*
X400545Y417116D01*
X400320Y415695D01*
X399875Y414326D01*
X399221Y413043D01*
X398375Y411879D01*
X397357Y410861D01*
X396193Y410015D01*
X394910Y409361D01*
X393541Y408916D01*
X393431Y408899D01*
X393431Y422409D01*
G37*
%LPD*%
%LPC*%
G36*
X677931Y420969D02*
X677931Y420969D01*
X685045Y420969D01*
X685045Y415676D01*
X684820Y414255D01*
X684375Y412886D01*
X683721Y411603D01*
X682875Y410439D01*
X681857Y409421D01*
X680693Y408575D01*
X679410Y407921D01*
X678041Y407476D01*
X677931Y407459D01*
X677931Y420969D01*
G37*
%LPD*%
%LPC*%
G36*
X382255Y426471D02*
X382255Y426471D01*
X382255Y431764D01*
X382480Y433185D01*
X382925Y434554D01*
X383579Y435837D01*
X384425Y437001D01*
X385443Y438019D01*
X386607Y438865D01*
X387890Y439519D01*
X389259Y439964D01*
X389369Y439981D01*
X389369Y426471D01*
X382255Y426471D01*
G37*
%LPD*%
%LPC*%
G36*
X666755Y425031D02*
X666755Y425031D01*
X666755Y430324D01*
X666980Y431745D01*
X667425Y433114D01*
X668079Y434397D01*
X668925Y435561D01*
X669943Y436579D01*
X671107Y437425D01*
X672390Y438079D01*
X673759Y438524D01*
X673869Y438541D01*
X673869Y425031D01*
X666755Y425031D01*
G37*
%LPD*%
%LPC*%
G36*
X673759Y407476D02*
X673759Y407476D01*
X672390Y407921D01*
X671107Y408575D01*
X669943Y409421D01*
X668925Y410439D01*
X668079Y411603D01*
X667425Y412886D01*
X666980Y414255D01*
X666755Y415676D01*
X666755Y420969D01*
X673869Y420969D01*
X673869Y407459D01*
X673759Y407476D01*
G37*
%LPD*%
%LPC*%
G36*
X389259Y408916D02*
X389259Y408916D01*
X387890Y409361D01*
X386607Y410015D01*
X385443Y410861D01*
X384425Y411879D01*
X383579Y413043D01*
X382925Y414326D01*
X382480Y415695D01*
X382255Y417116D01*
X382255Y422409D01*
X389369Y422409D01*
X389369Y408899D01*
X389259Y408916D01*
G37*
%LPD*%
%LPC*%
G36*
X655051Y547111D02*
X655051Y547111D01*
X655051Y554225D01*
X656808Y554225D01*
X662165Y548868D01*
X662165Y547111D01*
X655051Y547111D01*
G37*
%LPD*%
%LPC*%
G36*
X153881Y350911D02*
X153881Y350911D01*
X153881Y358025D01*
X155638Y358025D01*
X160995Y352668D01*
X160995Y350911D01*
X153881Y350911D01*
G37*
%LPD*%
%LPC*%
G36*
X652031Y49331D02*
X652031Y49331D01*
X652031Y56445D01*
X653788Y56445D01*
X659145Y51088D01*
X659145Y49331D01*
X652031Y49331D01*
G37*
%LPD*%
%LPC*%
G36*
X582031Y49331D02*
X582031Y49331D01*
X582031Y56445D01*
X583788Y56445D01*
X589145Y51088D01*
X589145Y49331D01*
X582031Y49331D01*
G37*
%LPD*%
%LPC*%
G36*
X722031Y439131D02*
X722031Y439131D01*
X722031Y446245D01*
X723788Y446245D01*
X729145Y440888D01*
X729145Y439131D01*
X722031Y439131D01*
G37*
%LPD*%
%LPC*%
G36*
X754731Y259031D02*
X754731Y259031D01*
X754731Y266145D01*
X756488Y266145D01*
X761845Y260788D01*
X761845Y259031D01*
X754731Y259031D01*
G37*
%LPD*%
%LPC*%
G36*
X59331Y259031D02*
X59331Y259031D01*
X59331Y266145D01*
X61088Y266145D01*
X66445Y260788D01*
X66445Y259031D01*
X59331Y259031D01*
G37*
%LPD*%
%LPC*%
G36*
X512031Y49331D02*
X512031Y49331D01*
X512031Y56445D01*
X513788Y56445D01*
X519145Y51088D01*
X519145Y49331D01*
X512031Y49331D01*
G37*
%LPD*%
%LPC*%
G36*
X302031Y49331D02*
X302031Y49331D01*
X302031Y56445D01*
X303788Y56445D01*
X309145Y51088D01*
X309145Y49331D01*
X302031Y49331D01*
G37*
%LPD*%
%LPC*%
G36*
X232031Y49331D02*
X232031Y49331D01*
X232031Y56445D01*
X233788Y56445D01*
X239145Y51088D01*
X239145Y49331D01*
X232031Y49331D01*
G37*
%LPD*%
%LPC*%
G36*
X724731Y119031D02*
X724731Y119031D01*
X724731Y126145D01*
X726488Y126145D01*
X731845Y120788D01*
X731845Y119031D01*
X724731Y119031D01*
G37*
%LPD*%
%LPC*%
G36*
X754731Y189031D02*
X754731Y189031D01*
X754731Y196145D01*
X756488Y196145D01*
X761845Y190788D01*
X761845Y189031D01*
X754731Y189031D01*
G37*
%LPD*%
%LPC*%
G36*
X59331Y189031D02*
X59331Y189031D01*
X59331Y196145D01*
X61088Y196145D01*
X66445Y190788D01*
X66445Y189031D01*
X59331Y189031D01*
G37*
%LPD*%
%LPC*%
G36*
X89331Y119031D02*
X89331Y119031D01*
X89331Y126145D01*
X91088Y126145D01*
X96445Y120788D01*
X96445Y119031D01*
X89331Y119031D01*
G37*
%LPD*%
%LPC*%
G36*
X372031Y47231D02*
X372031Y47231D01*
X372031Y54345D01*
X373788Y54345D01*
X379145Y48988D01*
X379145Y47231D01*
X372031Y47231D01*
G37*
%LPD*%
%LPC*%
G36*
X59331Y329031D02*
X59331Y329031D01*
X59331Y336145D01*
X61088Y336145D01*
X66445Y330788D01*
X66445Y329031D01*
X59331Y329031D01*
G37*
%LPD*%
%LPC*%
G36*
X754731Y329031D02*
X754731Y329031D01*
X754731Y336145D01*
X756488Y336145D01*
X761845Y330788D01*
X761845Y329031D01*
X754731Y329031D01*
G37*
%LPD*%
%LPC*%
G36*
X442031Y51231D02*
X442031Y51231D01*
X442031Y58345D01*
X443788Y58345D01*
X449145Y52988D01*
X449145Y51231D01*
X442031Y51231D01*
G37*
%LPD*%
%LPC*%
G36*
X162031Y49331D02*
X162031Y49331D01*
X162031Y56445D01*
X163788Y56445D01*
X169145Y51088D01*
X169145Y49331D01*
X162031Y49331D01*
G37*
%LPD*%
%LPC*%
G36*
X500855Y49331D02*
X500855Y49331D01*
X500855Y51088D01*
X506212Y56445D01*
X507969Y56445D01*
X507969Y49331D01*
X500855Y49331D01*
G37*
%LPD*%
%LPC*%
G36*
X360855Y47231D02*
X360855Y47231D01*
X360855Y48988D01*
X366212Y54345D01*
X367969Y54345D01*
X367969Y47231D01*
X360855Y47231D01*
G37*
%LPD*%
%LPC*%
G36*
X290855Y49331D02*
X290855Y49331D01*
X290855Y51088D01*
X296212Y56445D01*
X297969Y56445D01*
X297969Y49331D01*
X290855Y49331D01*
G37*
%LPD*%
%LPC*%
G36*
X570855Y49331D02*
X570855Y49331D01*
X570855Y51088D01*
X576212Y56445D01*
X577969Y56445D01*
X577969Y49331D01*
X570855Y49331D01*
G37*
%LPD*%
%LPC*%
G36*
X640855Y49331D02*
X640855Y49331D01*
X640855Y51088D01*
X646212Y56445D01*
X647969Y56445D01*
X647969Y49331D01*
X640855Y49331D01*
G37*
%LPD*%
%LPC*%
G36*
X220855Y49331D02*
X220855Y49331D01*
X220855Y51088D01*
X226212Y56445D01*
X227969Y56445D01*
X227969Y49331D01*
X220855Y49331D01*
G37*
%LPD*%
%LPC*%
G36*
X150855Y49331D02*
X150855Y49331D01*
X150855Y51088D01*
X156212Y56445D01*
X157969Y56445D01*
X157969Y49331D01*
X150855Y49331D01*
G37*
%LPD*%
%LPC*%
G36*
X643875Y547111D02*
X643875Y547111D01*
X643875Y548868D01*
X649232Y554225D01*
X650989Y554225D01*
X650989Y547111D01*
X643875Y547111D01*
G37*
%LPD*%
%LPC*%
G36*
X430855Y51231D02*
X430855Y51231D01*
X430855Y52988D01*
X436212Y58345D01*
X437969Y58345D01*
X437969Y51231D01*
X430855Y51231D01*
G37*
%LPD*%
%LPC*%
G36*
X743555Y189031D02*
X743555Y189031D01*
X743555Y190788D01*
X748912Y196145D01*
X750669Y196145D01*
X750669Y189031D01*
X743555Y189031D01*
G37*
%LPD*%
%LPC*%
G36*
X710855Y439131D02*
X710855Y439131D01*
X710855Y440888D01*
X716212Y446245D01*
X717969Y446245D01*
X717969Y439131D01*
X710855Y439131D01*
G37*
%LPD*%
%LPC*%
G36*
X78155Y119031D02*
X78155Y119031D01*
X78155Y120788D01*
X83512Y126145D01*
X85269Y126145D01*
X85269Y119031D01*
X78155Y119031D01*
G37*
%LPD*%
%LPC*%
G36*
X713555Y119031D02*
X713555Y119031D01*
X713555Y120788D01*
X718912Y126145D01*
X720669Y126145D01*
X720669Y119031D01*
X713555Y119031D01*
G37*
%LPD*%
%LPC*%
G36*
X48155Y329031D02*
X48155Y329031D01*
X48155Y330788D01*
X53512Y336145D01*
X55269Y336145D01*
X55269Y329031D01*
X48155Y329031D01*
G37*
%LPD*%
%LPC*%
G36*
X743555Y329031D02*
X743555Y329031D01*
X743555Y330788D01*
X748912Y336145D01*
X750669Y336145D01*
X750669Y329031D01*
X743555Y329031D01*
G37*
%LPD*%
%LPC*%
G36*
X48155Y189031D02*
X48155Y189031D01*
X48155Y190788D01*
X53512Y196145D01*
X55269Y196145D01*
X55269Y189031D01*
X48155Y189031D01*
G37*
%LPD*%
%LPC*%
G36*
X142705Y350911D02*
X142705Y350911D01*
X142705Y352668D01*
X148062Y358025D01*
X149819Y358025D01*
X149819Y350911D01*
X142705Y350911D01*
G37*
%LPD*%
%LPC*%
G36*
X48155Y259031D02*
X48155Y259031D01*
X48155Y260788D01*
X53512Y266145D01*
X55269Y266145D01*
X55269Y259031D01*
X48155Y259031D01*
G37*
%LPD*%
%LPC*%
G36*
X743555Y259031D02*
X743555Y259031D01*
X743555Y260788D01*
X748912Y266145D01*
X750669Y266145D01*
X750669Y259031D01*
X743555Y259031D01*
G37*
%LPD*%
%LPC*%
G36*
X655051Y535935D02*
X655051Y535935D01*
X655051Y543049D01*
X662165Y543049D01*
X662165Y541292D01*
X656808Y535935D01*
X655051Y535935D01*
G37*
%LPD*%
%LPC*%
G36*
X722031Y427955D02*
X722031Y427955D01*
X722031Y435069D01*
X729145Y435069D01*
X729145Y433312D01*
X723788Y427955D01*
X722031Y427955D01*
G37*
%LPD*%
%LPC*%
G36*
X754731Y177855D02*
X754731Y177855D01*
X754731Y184969D01*
X761845Y184969D01*
X761845Y183212D01*
X756488Y177855D01*
X754731Y177855D01*
G37*
%LPD*%
%LPC*%
G36*
X754731Y247855D02*
X754731Y247855D01*
X754731Y254969D01*
X761845Y254969D01*
X761845Y253212D01*
X756488Y247855D01*
X754731Y247855D01*
G37*
%LPD*%
%LPC*%
G36*
X153881Y339735D02*
X153881Y339735D01*
X153881Y346849D01*
X160995Y346849D01*
X160995Y345092D01*
X155638Y339735D01*
X153881Y339735D01*
G37*
%LPD*%
%LPC*%
G36*
X59331Y177855D02*
X59331Y177855D01*
X59331Y184969D01*
X66445Y184969D01*
X66445Y183212D01*
X61088Y177855D01*
X59331Y177855D01*
G37*
%LPD*%
%LPC*%
G36*
X754731Y317855D02*
X754731Y317855D01*
X754731Y324969D01*
X761845Y324969D01*
X761845Y323212D01*
X756488Y317855D01*
X754731Y317855D01*
G37*
%LPD*%
%LPC*%
G36*
X89331Y107855D02*
X89331Y107855D01*
X89331Y114969D01*
X96445Y114969D01*
X96445Y113212D01*
X91088Y107855D01*
X89331Y107855D01*
G37*
%LPD*%
%LPC*%
G36*
X59331Y247855D02*
X59331Y247855D01*
X59331Y254969D01*
X66445Y254969D01*
X66445Y253212D01*
X61088Y247855D01*
X59331Y247855D01*
G37*
%LPD*%
%LPC*%
G36*
X724731Y107855D02*
X724731Y107855D01*
X724731Y114969D01*
X731845Y114969D01*
X731845Y113212D01*
X726488Y107855D01*
X724731Y107855D01*
G37*
%LPD*%
%LPC*%
G36*
X59331Y317855D02*
X59331Y317855D01*
X59331Y324969D01*
X66445Y324969D01*
X66445Y323212D01*
X61088Y317855D01*
X59331Y317855D01*
G37*
%LPD*%
%LPC*%
G36*
X442031Y40055D02*
X442031Y40055D01*
X442031Y47169D01*
X449145Y47169D01*
X449145Y45412D01*
X443788Y40055D01*
X442031Y40055D01*
G37*
%LPD*%
%LPC*%
G36*
X302031Y38155D02*
X302031Y38155D01*
X302031Y45269D01*
X309145Y45269D01*
X309145Y43512D01*
X303788Y38155D01*
X302031Y38155D01*
G37*
%LPD*%
%LPC*%
G36*
X512031Y38155D02*
X512031Y38155D01*
X512031Y45269D01*
X519145Y45269D01*
X519145Y43512D01*
X513788Y38155D01*
X512031Y38155D01*
G37*
%LPD*%
%LPC*%
G36*
X652031Y38155D02*
X652031Y38155D01*
X652031Y45269D01*
X659145Y45269D01*
X659145Y43512D01*
X653788Y38155D01*
X652031Y38155D01*
G37*
%LPD*%
%LPC*%
G36*
X582031Y38155D02*
X582031Y38155D01*
X582031Y45269D01*
X589145Y45269D01*
X589145Y43512D01*
X583788Y38155D01*
X582031Y38155D01*
G37*
%LPD*%
%LPC*%
G36*
X232031Y38155D02*
X232031Y38155D01*
X232031Y45269D01*
X239145Y45269D01*
X239145Y43512D01*
X233788Y38155D01*
X232031Y38155D01*
G37*
%LPD*%
%LPC*%
G36*
X162031Y38155D02*
X162031Y38155D01*
X162031Y45269D01*
X169145Y45269D01*
X169145Y43512D01*
X163788Y38155D01*
X162031Y38155D01*
G37*
%LPD*%
%LPC*%
G36*
X372031Y36055D02*
X372031Y36055D01*
X372031Y43169D01*
X379145Y43169D01*
X379145Y41412D01*
X373788Y36055D01*
X372031Y36055D01*
G37*
%LPD*%
%LPC*%
G36*
X748912Y247855D02*
X748912Y247855D01*
X743555Y253212D01*
X743555Y254969D01*
X750669Y254969D01*
X750669Y247855D01*
X748912Y247855D01*
G37*
%LPD*%
%LPC*%
G36*
X718912Y107855D02*
X718912Y107855D01*
X713555Y113212D01*
X713555Y114969D01*
X720669Y114969D01*
X720669Y107855D01*
X718912Y107855D01*
G37*
%LPD*%
%LPC*%
G36*
X53512Y317855D02*
X53512Y317855D01*
X48155Y323212D01*
X48155Y324969D01*
X55269Y324969D01*
X55269Y317855D01*
X53512Y317855D01*
G37*
%LPD*%
%LPC*%
G36*
X748912Y177855D02*
X748912Y177855D01*
X743555Y183212D01*
X743555Y184969D01*
X750669Y184969D01*
X750669Y177855D01*
X748912Y177855D01*
G37*
%LPD*%
%LPC*%
G36*
X649232Y535935D02*
X649232Y535935D01*
X643875Y541292D01*
X643875Y543049D01*
X650989Y543049D01*
X650989Y535935D01*
X649232Y535935D01*
G37*
%LPD*%
%LPC*%
G36*
X716212Y427955D02*
X716212Y427955D01*
X710855Y433312D01*
X710855Y435069D01*
X717969Y435069D01*
X717969Y427955D01*
X716212Y427955D01*
G37*
%LPD*%
%LPC*%
G36*
X748912Y317855D02*
X748912Y317855D01*
X743555Y323212D01*
X743555Y324969D01*
X750669Y324969D01*
X750669Y317855D01*
X748912Y317855D01*
G37*
%LPD*%
%LPC*%
G36*
X646212Y38155D02*
X646212Y38155D01*
X640855Y43512D01*
X640855Y45269D01*
X647969Y45269D01*
X647969Y38155D01*
X646212Y38155D01*
G37*
%LPD*%
%LPC*%
G36*
X53512Y177855D02*
X53512Y177855D01*
X48155Y183212D01*
X48155Y184969D01*
X55269Y184969D01*
X55269Y177855D01*
X53512Y177855D01*
G37*
%LPD*%
%LPC*%
G36*
X576212Y38155D02*
X576212Y38155D01*
X570855Y43512D01*
X570855Y45269D01*
X577969Y45269D01*
X577969Y38155D01*
X576212Y38155D01*
G37*
%LPD*%
%LPC*%
G36*
X506212Y38155D02*
X506212Y38155D01*
X500855Y43512D01*
X500855Y45269D01*
X507969Y45269D01*
X507969Y38155D01*
X506212Y38155D01*
G37*
%LPD*%
%LPC*%
G36*
X436212Y40055D02*
X436212Y40055D01*
X430855Y45412D01*
X430855Y47169D01*
X437969Y47169D01*
X437969Y40055D01*
X436212Y40055D01*
G37*
%LPD*%
%LPC*%
G36*
X296212Y38155D02*
X296212Y38155D01*
X290855Y43512D01*
X290855Y45269D01*
X297969Y45269D01*
X297969Y38155D01*
X296212Y38155D01*
G37*
%LPD*%
%LPC*%
G36*
X83512Y107855D02*
X83512Y107855D01*
X78155Y113212D01*
X78155Y114969D01*
X85269Y114969D01*
X85269Y107855D01*
X83512Y107855D01*
G37*
%LPD*%
%LPC*%
G36*
X226212Y38155D02*
X226212Y38155D01*
X220855Y43512D01*
X220855Y45269D01*
X227969Y45269D01*
X227969Y38155D01*
X226212Y38155D01*
G37*
%LPD*%
%LPC*%
G36*
X53512Y247855D02*
X53512Y247855D01*
X48155Y253212D01*
X48155Y254969D01*
X55269Y254969D01*
X55269Y247855D01*
X53512Y247855D01*
G37*
%LPD*%
%LPC*%
G36*
X156212Y38155D02*
X156212Y38155D01*
X150855Y43512D01*
X150855Y45269D01*
X157969Y45269D01*
X157969Y38155D01*
X156212Y38155D01*
G37*
%LPD*%
%LPC*%
G36*
X148062Y339735D02*
X148062Y339735D01*
X142705Y345092D01*
X142705Y346849D01*
X149819Y346849D01*
X149819Y339735D01*
X148062Y339735D01*
G37*
%LPD*%
%LPC*%
G36*
X366212Y36055D02*
X366212Y36055D01*
X360855Y41412D01*
X360855Y43169D01*
X367969Y43169D01*
X367969Y36055D01*
X366212Y36055D01*
G37*
%LPD*%
%LPC*%
G36*
X115699Y428299D02*
X115699Y428299D01*
X115699Y428301D01*
X115701Y428301D01*
X115701Y428299D01*
X115699Y428299D01*
G37*
%LPD*%
D10*
X213600Y417836D02*
X213600Y431044D01*
X239000Y431044D02*
X239000Y417836D01*
X366000Y417836D02*
X366000Y431044D01*
X391400Y431044D02*
X391400Y417836D01*
X264400Y417836D02*
X264400Y431044D01*
X289800Y431044D02*
X289800Y417836D01*
X340600Y417836D02*
X340600Y431044D01*
X315200Y431044D02*
X315200Y417836D01*
X391400Y494036D02*
X391400Y507244D01*
X366000Y507244D02*
X366000Y494036D01*
X340600Y494036D02*
X340600Y507244D01*
X315200Y507244D02*
X315200Y494036D01*
X289800Y494036D02*
X289800Y507244D01*
X264400Y507244D02*
X264400Y494036D01*
X239000Y494036D02*
X239000Y507244D01*
X213600Y507244D02*
X213600Y494036D01*
D11*
X123320Y402900D02*
X108080Y402900D01*
X108080Y428300D02*
X123320Y428300D01*
X123320Y453700D02*
X108080Y453700D01*
X108080Y479100D02*
X123320Y479100D01*
X123320Y504500D02*
X108080Y504500D01*
X108080Y529900D02*
X123320Y529900D01*
D12*
X151850Y399680D03*
X151850Y348880D03*
X720000Y487900D03*
X720000Y437100D03*
D13*
X602220Y545080D03*
X653020Y545080D03*
D12*
X190000Y370800D03*
X190000Y269200D03*
D14*
X82700Y327000D03*
X57300Y327000D03*
D12*
X220000Y370800D03*
X220000Y269200D03*
X250000Y370800D03*
X250000Y269200D03*
X280000Y370800D03*
X280000Y269200D03*
X310000Y370800D03*
X310000Y269200D03*
X340000Y370800D03*
X340000Y269200D03*
X370000Y370800D03*
X370000Y269200D03*
X400000Y370800D03*
X400000Y269200D03*
D14*
X82700Y257000D03*
X57300Y257000D03*
X82700Y187000D03*
X57300Y187000D03*
X112700Y117000D03*
X87300Y117000D03*
D12*
X160000Y72700D03*
X160000Y47300D03*
X230000Y72700D03*
X230000Y47300D03*
X300000Y72700D03*
X300000Y47300D03*
D10*
X498100Y416396D02*
X498100Y429604D01*
X523500Y429604D02*
X523500Y416396D01*
X650500Y416396D02*
X650500Y429604D01*
X675900Y429604D02*
X675900Y416396D01*
X548900Y416396D02*
X548900Y429604D01*
X574300Y429604D02*
X574300Y416396D01*
X625100Y416396D02*
X625100Y429604D01*
X599700Y429604D02*
X599700Y416396D01*
X675900Y492596D02*
X675900Y505804D01*
X650500Y505804D02*
X650500Y492596D01*
X625100Y492596D02*
X625100Y505804D01*
X599700Y505804D02*
X599700Y492596D01*
X574300Y492596D02*
X574300Y505804D01*
X548900Y505804D02*
X548900Y492596D01*
X523500Y492596D02*
X523500Y505804D01*
X498100Y505804D02*
X498100Y492596D01*
D12*
X440000Y370800D03*
X440000Y269200D03*
X370000Y70600D03*
X370000Y45200D03*
X470000Y370800D03*
X470000Y269200D03*
X500000Y370800D03*
X500000Y269200D03*
X530000Y370800D03*
X530000Y269200D03*
X560000Y370800D03*
X560000Y269200D03*
X590000Y370800D03*
X590000Y269200D03*
X620000Y370800D03*
X620000Y269200D03*
X650000Y370800D03*
X650000Y269200D03*
X440000Y74600D03*
X440000Y49200D03*
X510000Y72700D03*
X510000Y47300D03*
X580000Y72700D03*
X580000Y47300D03*
X650000Y72700D03*
X650000Y47300D03*
D13*
X697300Y117000D03*
X722700Y117000D03*
X727300Y187000D03*
X752700Y187000D03*
X727300Y257000D03*
X752700Y257000D03*
X727300Y327000D03*
X752700Y327000D03*
D15*
X160000Y432500D03*
D16*
X190000Y402500D01*
X190000Y370800D01*
X213600Y377200D02*
X220000Y370800D01*
X213600Y377200D02*
X213600Y417836D01*
X213600Y424440D01*
X239000Y381800D02*
X250000Y370800D01*
X239000Y381800D02*
X239000Y417836D01*
X239000Y424440D01*
X264400Y386400D02*
X280000Y370800D01*
X264400Y386400D02*
X264400Y417836D01*
X264400Y424440D01*
X310000Y397636D02*
X310000Y370800D01*
X310000Y397636D02*
X289800Y417836D01*
X289800Y424440D01*
X340000Y393036D02*
X340000Y370800D01*
X340000Y393036D02*
X315200Y417836D01*
X315200Y424440D01*
X370000Y388436D02*
X370000Y370800D01*
X370000Y388436D02*
X340600Y417836D01*
X340600Y424440D01*
X400000Y383836D02*
X400000Y370800D01*
X400000Y383836D02*
X366000Y417836D01*
X366000Y424440D01*
X190000Y269200D02*
X140500Y269200D01*
X82700Y327000D01*
X82700Y257000D02*
X97000Y257000D01*
X97500Y257500D01*
X113750Y241250D01*
X192050Y241250D01*
X220000Y269200D01*
X250000Y269200D02*
X167800Y187000D01*
X82700Y187000D01*
X127800Y117000D02*
X280000Y269200D01*
X127800Y117000D02*
X112700Y117000D01*
X310000Y222700D02*
X310000Y269200D01*
X310000Y222700D02*
X160000Y72700D01*
X340000Y182700D02*
X340000Y269200D01*
X340000Y182700D02*
X230000Y72700D01*
X370000Y142700D02*
X370000Y269200D01*
X370000Y142700D02*
X300000Y72700D01*
X400000Y100600D02*
X400000Y269200D01*
X400000Y100600D02*
X370000Y70600D01*
X440000Y370800D02*
X440000Y409096D01*
X523500Y492596D01*
X523500Y499200D01*
X470000Y388296D02*
X470000Y370800D01*
X470000Y388296D02*
X498100Y416396D01*
X498100Y423000D01*
X523500Y394300D02*
X500000Y370800D01*
X523500Y394300D02*
X523500Y416396D01*
X523500Y423000D01*
X548900Y389700D02*
X530000Y370800D01*
X548900Y389700D02*
X548900Y416396D01*
X548900Y423000D01*
X574300Y385100D02*
X560000Y370800D01*
X574300Y385100D02*
X574300Y416396D01*
X574300Y423000D01*
X599700Y423000D02*
X599700Y380500D01*
X590000Y370800D01*
X620000Y370800D02*
X625100Y375900D01*
X625100Y416396D01*
X625100Y423000D01*
X650500Y371300D02*
X650000Y370800D01*
X650500Y371300D02*
X650500Y423000D01*
X440000Y269200D02*
X440000Y74600D01*
X470000Y112700D02*
X470000Y269200D01*
X470000Y112700D02*
X510000Y72700D01*
X500000Y152700D02*
X500000Y269200D01*
X500000Y152700D02*
X580000Y72700D01*
X530000Y192700D02*
X530000Y269200D01*
X530000Y192700D02*
X650000Y72700D01*
X560000Y254300D02*
X560000Y269200D01*
X560000Y254300D02*
X697300Y117000D01*
X672200Y187000D02*
X727300Y187000D01*
X672200Y187000D02*
X590000Y269200D01*
X620000Y269200D02*
X620000Y265000D01*
X645000Y240000D01*
X712500Y240000D02*
X727300Y254800D01*
X727300Y257000D01*
X712500Y240000D02*
X645000Y240000D01*
X707800Y327000D02*
X727300Y327000D01*
X707800Y327000D02*
X650000Y269200D01*
X313700Y453700D02*
X115700Y453700D01*
X340600Y480600D02*
X340600Y500640D01*
X340600Y480600D02*
X313700Y453700D01*
X340600Y500640D02*
X340600Y528100D01*
X355000Y542500D01*
X557500Y542500D02*
X577500Y562500D01*
X612500Y562500D01*
X625100Y549900D02*
X625100Y499200D01*
X557500Y542500D02*
X355000Y542500D01*
X612500Y562500D02*
X625100Y549900D01*
X178400Y479100D02*
X115700Y479100D01*
X178400Y479100D02*
X197500Y460000D01*
X295000Y460000D01*
X315200Y480200D02*
X315200Y500640D01*
X315200Y480200D02*
X295000Y460000D01*
X315200Y500640D02*
X315200Y535200D01*
X340000Y560000D02*
X537500Y560000D01*
X340000Y560000D02*
X315200Y535200D01*
D17*
X537500Y560000D03*
D16*
X163000Y504500D02*
X115700Y504500D01*
X163000Y504500D02*
X200000Y467500D01*
X277500Y467500D01*
X290000Y480000D01*
X290000Y500440D01*
X289800Y500640D01*
X289800Y534800D01*
X332500Y577500D01*
X497500Y577500D01*
D15*
X497500Y577500D03*
D16*
X118300Y532500D02*
X115700Y529900D01*
X255000Y532500D02*
X265000Y522500D01*
X265000Y501240D01*
X264400Y500640D01*
X255000Y532500D02*
X118300Y532500D01*
X391400Y526400D02*
X391400Y500640D01*
X391400Y526400D02*
X395000Y530000D01*
X540000Y530000D01*
X548900Y521100D02*
X548900Y499200D01*
X548900Y521100D02*
X540000Y530000D01*
M02*
