M48
;GenerationSoftware,Autodesk,EAGLE,9.6.2*%
;CreationDate,2020-11-26T19:59:54Z*%
FMAT,2
ICI,OFF
METRIC,TZ,000.000
T4C0.406
T3C0.500
T2C0.813
T1C1.016
%
G90
M71
T1
X11570Y52990
X11570Y40290
X11570Y42830
X11570Y45370
X11570Y47910
X11570Y50450
T2
X34060Y50064
X75270Y25700
X72730Y32700
X21360Y42444
X23900Y42444
X36600Y42444
X39140Y42444
X26440Y42444
X28980Y42444
X34060Y42444
X31520Y42444
X39140Y50064
X36600Y50064
X15185Y34888
X31520Y50064
X28980Y50064
X26440Y50064
X23900Y50064
X21360Y50064
X15185Y39968
X75270Y32700
X72000Y48790
X72000Y43710
X60222Y54508
X65302Y54508
X19000Y37080
X19000Y26920
X8270Y32700
X5730Y32700
X22000Y37080
X22000Y26920
X25000Y37080
X25000Y26920
X28000Y37080
X28000Y26920
X31000Y37080
X31000Y26920
X34000Y37080
X34000Y26920
X37000Y37080
X37000Y26920
X40000Y37080
X40000Y26920
X8270Y25700
X5730Y25700
X8270Y18700
X5730Y18700
X11270Y11700
X8730Y11700
X16000Y7270
X16000Y4730
X23000Y7270
X23000Y4730
X30000Y7270
X30000Y4730
X49810Y42300
X52350Y42300
X65050Y42300
X67590Y42300
X54890Y42300
X57430Y42300
X62510Y42300
X59970Y42300
X67590Y49920
X65050Y49920
X62510Y49920
X59970Y49920
X57430Y49920
X54890Y49920
X52350Y49920
X49810Y49920
X44000Y37080
X44000Y26920
X37000Y7060
X37000Y4520
X47000Y37080
X47000Y26920
X50000Y37080
X50000Y26920
X53000Y37080
X53000Y26920
X56000Y37080
X56000Y26920
X59000Y37080
X59000Y26920
X62000Y37080
X62000Y26920
X65000Y37080
X65000Y26920
X44000Y7460
X44000Y4920
X51000Y7270
X51000Y4730
X58000Y7270
X58000Y4730
X65000Y7270
X65000Y4730
X69730Y11700
X72270Y11700
X72730Y18700
X75270Y18700
X72730Y25700
T3
X49750Y57750
X16000Y43250
T4
X53750Y56000
M30