G04 EAGLE Gerber RS-274X export*
G75*
%MOMM*%
%FSLAX34Y34*%
%LPD*%
%INSilkscreen Bottom*%
%IPPOS*%
%AMOC8*
5,1,8,0,0,1.08239X$1,22.5*%
G01*
%ADD10C,0.076200*%
%ADD11C,0.203200*%


D10*
X165842Y525221D02*
X165842Y534619D01*
X163232Y534619D01*
X163132Y534617D01*
X163032Y534611D01*
X162933Y534602D01*
X162833Y534588D01*
X162735Y534571D01*
X162637Y534550D01*
X162540Y534526D01*
X162444Y534497D01*
X162349Y534465D01*
X162256Y534430D01*
X162164Y534391D01*
X162073Y534348D01*
X161985Y534302D01*
X161898Y534252D01*
X161813Y534200D01*
X161730Y534144D01*
X161649Y534085D01*
X161571Y534022D01*
X161495Y533957D01*
X161421Y533889D01*
X161351Y533819D01*
X161283Y533745D01*
X161218Y533669D01*
X161155Y533591D01*
X161096Y533510D01*
X161040Y533427D01*
X160988Y533342D01*
X160938Y533255D01*
X160892Y533167D01*
X160849Y533076D01*
X160810Y532984D01*
X160775Y532891D01*
X160743Y532796D01*
X160714Y532700D01*
X160690Y532603D01*
X160669Y532505D01*
X160652Y532407D01*
X160638Y532307D01*
X160629Y532208D01*
X160623Y532108D01*
X160621Y532008D01*
X160621Y527832D01*
X160623Y527732D01*
X160629Y527632D01*
X160638Y527533D01*
X160652Y527433D01*
X160669Y527335D01*
X160690Y527237D01*
X160714Y527140D01*
X160743Y527044D01*
X160775Y526949D01*
X160810Y526856D01*
X160849Y526764D01*
X160892Y526673D01*
X160938Y526585D01*
X160988Y526498D01*
X161040Y526413D01*
X161096Y526330D01*
X161155Y526249D01*
X161218Y526171D01*
X161283Y526095D01*
X161351Y526021D01*
X161421Y525951D01*
X161495Y525883D01*
X161571Y525818D01*
X161649Y525755D01*
X161730Y525696D01*
X161813Y525640D01*
X161898Y525588D01*
X161985Y525538D01*
X162073Y525492D01*
X162164Y525449D01*
X162256Y525410D01*
X162349Y525375D01*
X162444Y525343D01*
X162540Y525314D01*
X162637Y525290D01*
X162735Y525269D01*
X162833Y525252D01*
X162933Y525238D01*
X163032Y525229D01*
X163132Y525223D01*
X163232Y525221D01*
X165842Y525221D01*
X155612Y525221D02*
X155612Y534619D01*
X156656Y525221D02*
X154567Y525221D01*
X154567Y534619D02*
X156656Y534619D01*
X150602Y534619D02*
X150602Y525221D01*
X145381Y525221D02*
X150602Y534619D01*
X145381Y534619D02*
X145381Y525221D01*
X154333Y500221D02*
X158509Y500221D01*
X158509Y509619D01*
X154333Y509619D01*
X155377Y505442D02*
X158509Y505442D01*
X150602Y509619D02*
X150602Y500221D01*
X145381Y500221D02*
X150602Y509619D01*
X145381Y509619D02*
X145381Y500221D01*
X166739Y484619D02*
X166739Y475221D01*
X162562Y475221D01*
X159659Y475221D02*
X156526Y484619D01*
X153393Y475221D01*
X154176Y477571D02*
X158875Y477571D01*
X147992Y475221D02*
X147992Y484619D01*
X150602Y484619D02*
X145381Y484619D01*
X162432Y450221D02*
X164520Y450221D01*
X164609Y450223D01*
X164697Y450229D01*
X164785Y450238D01*
X164873Y450251D01*
X164960Y450268D01*
X165046Y450288D01*
X165131Y450313D01*
X165216Y450340D01*
X165299Y450372D01*
X165380Y450406D01*
X165460Y450445D01*
X165538Y450486D01*
X165615Y450531D01*
X165689Y450579D01*
X165762Y450630D01*
X165832Y450684D01*
X165899Y450742D01*
X165965Y450802D01*
X166027Y450864D01*
X166087Y450930D01*
X166145Y450997D01*
X166199Y451067D01*
X166250Y451140D01*
X166298Y451214D01*
X166343Y451291D01*
X166384Y451369D01*
X166423Y451449D01*
X166457Y451530D01*
X166489Y451613D01*
X166516Y451698D01*
X166541Y451783D01*
X166561Y451869D01*
X166578Y451956D01*
X166591Y452044D01*
X166600Y452132D01*
X166606Y452220D01*
X166608Y452309D01*
X166609Y452309D02*
X166609Y457531D01*
X166608Y457531D02*
X166606Y457620D01*
X166600Y457708D01*
X166591Y457796D01*
X166578Y457884D01*
X166561Y457971D01*
X166541Y458057D01*
X166516Y458142D01*
X166489Y458227D01*
X166457Y458310D01*
X166423Y458391D01*
X166384Y458471D01*
X166343Y458549D01*
X166298Y458626D01*
X166250Y458700D01*
X166199Y458773D01*
X166145Y458843D01*
X166087Y458910D01*
X166027Y458976D01*
X165965Y459038D01*
X165899Y459098D01*
X165832Y459156D01*
X165762Y459210D01*
X165689Y459261D01*
X165615Y459309D01*
X165538Y459354D01*
X165460Y459395D01*
X165380Y459434D01*
X165299Y459468D01*
X165216Y459500D01*
X165131Y459527D01*
X165046Y459552D01*
X164960Y459572D01*
X164873Y459589D01*
X164785Y459602D01*
X164697Y459611D01*
X164609Y459617D01*
X164520Y459619D01*
X162432Y459619D01*
X158641Y459619D02*
X158641Y450221D01*
X154464Y450221D01*
X150602Y450221D02*
X150602Y459619D01*
X145381Y459619D02*
X150602Y453876D01*
X148514Y455964D02*
X145381Y450221D01*
X164888Y427942D02*
X166455Y427942D01*
X164888Y427942D02*
X164888Y422721D01*
X168021Y422721D01*
X168110Y422723D01*
X168198Y422729D01*
X168286Y422738D01*
X168374Y422751D01*
X168461Y422768D01*
X168547Y422788D01*
X168632Y422813D01*
X168717Y422840D01*
X168800Y422872D01*
X168881Y422906D01*
X168961Y422945D01*
X169039Y422986D01*
X169116Y423031D01*
X169190Y423079D01*
X169263Y423130D01*
X169333Y423184D01*
X169400Y423242D01*
X169466Y423302D01*
X169528Y423364D01*
X169588Y423430D01*
X169646Y423497D01*
X169700Y423567D01*
X169751Y423640D01*
X169799Y423714D01*
X169844Y423791D01*
X169885Y423869D01*
X169924Y423949D01*
X169958Y424030D01*
X169990Y424113D01*
X170017Y424198D01*
X170042Y424283D01*
X170062Y424369D01*
X170079Y424456D01*
X170092Y424544D01*
X170101Y424632D01*
X170107Y424720D01*
X170109Y424809D01*
X170109Y430031D01*
X170107Y430120D01*
X170101Y430208D01*
X170092Y430296D01*
X170079Y430384D01*
X170062Y430471D01*
X170042Y430557D01*
X170017Y430642D01*
X169990Y430727D01*
X169958Y430810D01*
X169924Y430891D01*
X169885Y430971D01*
X169844Y431049D01*
X169799Y431126D01*
X169751Y431200D01*
X169700Y431273D01*
X169646Y431343D01*
X169588Y431410D01*
X169528Y431476D01*
X169466Y431538D01*
X169400Y431598D01*
X169333Y431656D01*
X169263Y431710D01*
X169190Y431761D01*
X169116Y431809D01*
X169039Y431854D01*
X168961Y431895D01*
X168881Y431934D01*
X168800Y431968D01*
X168717Y432000D01*
X168632Y432027D01*
X168547Y432052D01*
X168461Y432072D01*
X168374Y432089D01*
X168286Y432102D01*
X168198Y432111D01*
X168110Y432117D01*
X168021Y432119D01*
X164888Y432119D01*
X160356Y432119D02*
X160356Y422721D01*
X155135Y422721D02*
X160356Y432119D01*
X155135Y432119D02*
X155135Y422721D01*
X150602Y422721D02*
X150602Y432119D01*
X147992Y432119D01*
X147892Y432117D01*
X147792Y432111D01*
X147693Y432102D01*
X147593Y432088D01*
X147495Y432071D01*
X147397Y432050D01*
X147300Y432026D01*
X147204Y431997D01*
X147109Y431965D01*
X147016Y431930D01*
X146924Y431891D01*
X146833Y431848D01*
X146745Y431802D01*
X146658Y431752D01*
X146573Y431700D01*
X146490Y431644D01*
X146409Y431585D01*
X146331Y431522D01*
X146255Y431457D01*
X146181Y431389D01*
X146111Y431319D01*
X146043Y431245D01*
X145978Y431169D01*
X145915Y431091D01*
X145856Y431010D01*
X145800Y430927D01*
X145748Y430842D01*
X145698Y430755D01*
X145652Y430667D01*
X145609Y430576D01*
X145570Y430484D01*
X145535Y430391D01*
X145503Y430296D01*
X145474Y430200D01*
X145450Y430103D01*
X145429Y430005D01*
X145412Y429907D01*
X145398Y429807D01*
X145389Y429708D01*
X145383Y429608D01*
X145381Y429508D01*
X145381Y425332D01*
X145383Y425232D01*
X145389Y425132D01*
X145398Y425033D01*
X145412Y424933D01*
X145429Y424835D01*
X145450Y424737D01*
X145474Y424640D01*
X145503Y424544D01*
X145535Y424449D01*
X145570Y424356D01*
X145609Y424264D01*
X145652Y424173D01*
X145698Y424085D01*
X145748Y423998D01*
X145800Y423913D01*
X145856Y423830D01*
X145915Y423749D01*
X145978Y423671D01*
X146043Y423595D01*
X146111Y423521D01*
X146181Y423451D01*
X146255Y423383D01*
X146331Y423318D01*
X146409Y423255D01*
X146490Y423196D01*
X146573Y423140D01*
X146658Y423088D01*
X146745Y423038D01*
X146833Y422992D01*
X146924Y422949D01*
X147016Y422910D01*
X147109Y422875D01*
X147204Y422843D01*
X147300Y422814D01*
X147397Y422790D01*
X147495Y422769D01*
X147593Y422752D01*
X147693Y422738D01*
X147792Y422729D01*
X147892Y422723D01*
X147992Y422721D01*
X150602Y422721D01*
X115268Y375221D02*
X112136Y375221D01*
X112047Y375223D01*
X111959Y375229D01*
X111871Y375238D01*
X111783Y375251D01*
X111696Y375268D01*
X111610Y375288D01*
X111525Y375313D01*
X111440Y375340D01*
X111357Y375372D01*
X111276Y375406D01*
X111196Y375445D01*
X111118Y375486D01*
X111041Y375531D01*
X110967Y375579D01*
X110894Y375630D01*
X110824Y375684D01*
X110757Y375742D01*
X110691Y375802D01*
X110629Y375864D01*
X110569Y375930D01*
X110511Y375997D01*
X110457Y376067D01*
X110406Y376140D01*
X110358Y376214D01*
X110313Y376291D01*
X110272Y376369D01*
X110233Y376449D01*
X110199Y376530D01*
X110167Y376613D01*
X110140Y376698D01*
X110115Y376783D01*
X110095Y376869D01*
X110078Y376956D01*
X110065Y377044D01*
X110056Y377132D01*
X110050Y377220D01*
X110048Y377309D01*
X110047Y377309D02*
X110047Y378354D01*
X110048Y378354D02*
X110050Y378443D01*
X110056Y378531D01*
X110065Y378619D01*
X110078Y378707D01*
X110095Y378794D01*
X110115Y378880D01*
X110140Y378965D01*
X110167Y379050D01*
X110199Y379133D01*
X110233Y379214D01*
X110272Y379294D01*
X110313Y379372D01*
X110358Y379449D01*
X110406Y379523D01*
X110457Y379596D01*
X110511Y379666D01*
X110569Y379733D01*
X110629Y379799D01*
X110691Y379861D01*
X110757Y379921D01*
X110824Y379979D01*
X110894Y380033D01*
X110967Y380084D01*
X111041Y380132D01*
X111118Y380177D01*
X111196Y380218D01*
X111276Y380257D01*
X111357Y380291D01*
X111440Y380323D01*
X111525Y380350D01*
X111610Y380375D01*
X111696Y380395D01*
X111783Y380412D01*
X111871Y380425D01*
X111959Y380434D01*
X112047Y380440D01*
X112136Y380442D01*
X115268Y380442D01*
X115268Y384619D01*
X110047Y384619D01*
X106646Y384619D02*
X103514Y375221D01*
X100381Y384619D01*
D11*
X573502Y216042D02*
X573504Y216192D01*
X573510Y216343D01*
X573519Y216493D01*
X573533Y216643D01*
X573550Y216792D01*
X573572Y216941D01*
X573597Y217089D01*
X573626Y217237D01*
X573658Y217384D01*
X573695Y217530D01*
X573735Y217675D01*
X573779Y217819D01*
X573826Y217961D01*
X573878Y218103D01*
X573932Y218243D01*
X573991Y218381D01*
X574053Y218519D01*
X574118Y218654D01*
X574187Y218788D01*
X574260Y218919D01*
X574336Y219049D01*
X574415Y219177D01*
X574497Y219303D01*
X574583Y219427D01*
X574671Y219548D01*
X574763Y219668D01*
X574858Y219784D01*
X574956Y219899D01*
X575057Y220010D01*
X575160Y220119D01*
X575267Y220226D01*
X575376Y220329D01*
X575487Y220430D01*
X575602Y220528D01*
X575718Y220623D01*
X575838Y220715D01*
X575959Y220803D01*
X576083Y220889D01*
X576209Y220971D01*
X576337Y221050D01*
X576467Y221126D01*
X576598Y221199D01*
X576732Y221268D01*
X576867Y221333D01*
X577005Y221395D01*
X577143Y221454D01*
X577283Y221508D01*
X577425Y221560D01*
X577567Y221607D01*
X577711Y221651D01*
X577856Y221691D01*
X578002Y221728D01*
X578149Y221760D01*
X578297Y221789D01*
X578445Y221814D01*
X578594Y221836D01*
X578743Y221853D01*
X578893Y221867D01*
X579043Y221876D01*
X579194Y221882D01*
X579344Y221884D01*
X579525Y221882D01*
X579707Y221875D01*
X579888Y221864D01*
X580069Y221849D01*
X580249Y221829D01*
X580429Y221805D01*
X580608Y221777D01*
X580787Y221744D01*
X580965Y221707D01*
X581141Y221666D01*
X581317Y221620D01*
X581492Y221570D01*
X581665Y221516D01*
X581837Y221458D01*
X582007Y221396D01*
X582176Y221329D01*
X582343Y221259D01*
X582509Y221184D01*
X582673Y221106D01*
X582834Y221023D01*
X582994Y220937D01*
X583151Y220847D01*
X583307Y220753D01*
X583460Y220655D01*
X583610Y220554D01*
X583758Y220449D01*
X583904Y220340D01*
X584047Y220228D01*
X584187Y220113D01*
X584324Y219994D01*
X584458Y219872D01*
X584589Y219746D01*
X584718Y219618D01*
X584843Y219487D01*
X584965Y219352D01*
X585083Y219215D01*
X585199Y219075D01*
X585310Y218932D01*
X585419Y218786D01*
X585524Y218638D01*
X585625Y218487D01*
X585722Y218334D01*
X585816Y218179D01*
X585906Y218021D01*
X585992Y217861D01*
X586075Y217699D01*
X586153Y217536D01*
X586227Y217370D01*
X586297Y217203D01*
X586364Y217034D01*
X586426Y216863D01*
X586484Y216691D01*
X575449Y211498D02*
X575339Y211606D01*
X575232Y211716D01*
X575127Y211829D01*
X575025Y211944D01*
X574926Y212062D01*
X574830Y212182D01*
X574736Y212305D01*
X574646Y212429D01*
X574559Y212556D01*
X574475Y212685D01*
X574394Y212817D01*
X574317Y212950D01*
X574243Y213085D01*
X574172Y213221D01*
X574104Y213360D01*
X574040Y213500D01*
X573979Y213641D01*
X573922Y213784D01*
X573869Y213928D01*
X573819Y214074D01*
X573772Y214221D01*
X573729Y214369D01*
X573690Y214518D01*
X573654Y214667D01*
X573623Y214818D01*
X573594Y214969D01*
X573570Y215121D01*
X573549Y215274D01*
X573532Y215427D01*
X573519Y215580D01*
X573510Y215734D01*
X573504Y215888D01*
X573502Y216042D01*
X575449Y211498D02*
X586484Y198516D01*
X573502Y198516D01*
X547377Y198516D02*
X547234Y198518D01*
X547091Y198524D01*
X546948Y198534D01*
X546806Y198548D01*
X546664Y198565D01*
X546522Y198587D01*
X546381Y198612D01*
X546241Y198642D01*
X546102Y198675D01*
X545964Y198712D01*
X545827Y198753D01*
X545691Y198797D01*
X545556Y198846D01*
X545423Y198898D01*
X545291Y198953D01*
X545161Y199013D01*
X545032Y199076D01*
X544905Y199142D01*
X544781Y199212D01*
X544658Y199285D01*
X544537Y199362D01*
X544418Y199441D01*
X544302Y199525D01*
X544187Y199611D01*
X544076Y199700D01*
X543966Y199793D01*
X543860Y199888D01*
X543756Y199987D01*
X543655Y200088D01*
X543556Y200192D01*
X543461Y200298D01*
X543368Y200408D01*
X543279Y200519D01*
X543193Y200634D01*
X543110Y200750D01*
X543030Y200869D01*
X542953Y200990D01*
X542880Y201112D01*
X542810Y201237D01*
X542744Y201364D01*
X542681Y201493D01*
X542621Y201623D01*
X542566Y201755D01*
X542514Y201888D01*
X542465Y202023D01*
X542421Y202159D01*
X542380Y202296D01*
X542343Y202434D01*
X542310Y202573D01*
X542280Y202713D01*
X542255Y202854D01*
X542233Y202996D01*
X542216Y203138D01*
X542202Y203280D01*
X542192Y203423D01*
X542186Y203566D01*
X542184Y203709D01*
X547377Y198516D02*
X547640Y198519D01*
X547902Y198529D01*
X548164Y198544D01*
X548425Y198566D01*
X548686Y198594D01*
X548946Y198629D01*
X549206Y198670D01*
X549464Y198716D01*
X549721Y198769D01*
X549977Y198829D01*
X550231Y198894D01*
X550484Y198965D01*
X550734Y199042D01*
X550983Y199126D01*
X551230Y199215D01*
X551475Y199310D01*
X551717Y199411D01*
X551957Y199518D01*
X552194Y199630D01*
X552428Y199748D01*
X552660Y199872D01*
X552888Y200001D01*
X553114Y200136D01*
X553336Y200276D01*
X553554Y200421D01*
X553770Y200571D01*
X553981Y200727D01*
X554189Y200887D01*
X554392Y201053D01*
X554592Y201223D01*
X554788Y201398D01*
X554979Y201577D01*
X555166Y201761D01*
X554517Y216691D02*
X554515Y216834D01*
X554509Y216977D01*
X554499Y217120D01*
X554485Y217262D01*
X554468Y217404D01*
X554446Y217546D01*
X554421Y217687D01*
X554391Y217827D01*
X554358Y217966D01*
X554321Y218104D01*
X554280Y218241D01*
X554236Y218377D01*
X554187Y218512D01*
X554135Y218645D01*
X554080Y218777D01*
X554020Y218907D01*
X553957Y219036D01*
X553891Y219163D01*
X553821Y219288D01*
X553748Y219410D01*
X553671Y219531D01*
X553591Y219650D01*
X553508Y219766D01*
X553422Y219881D01*
X553333Y219992D01*
X553240Y220102D01*
X553145Y220208D01*
X553046Y220312D01*
X552945Y220413D01*
X552841Y220512D01*
X552735Y220607D01*
X552625Y220700D01*
X552514Y220789D01*
X552399Y220875D01*
X552283Y220958D01*
X552164Y221038D01*
X552043Y221115D01*
X551921Y221188D01*
X551796Y221258D01*
X551669Y221324D01*
X551540Y221387D01*
X551410Y221447D01*
X551278Y221502D01*
X551145Y221554D01*
X551010Y221603D01*
X550874Y221647D01*
X550737Y221688D01*
X550599Y221725D01*
X550460Y221758D01*
X550320Y221788D01*
X550179Y221813D01*
X550037Y221835D01*
X549895Y221852D01*
X549753Y221866D01*
X549610Y221876D01*
X549467Y221882D01*
X549324Y221884D01*
X549092Y221881D01*
X548860Y221873D01*
X548628Y221859D01*
X548397Y221840D01*
X548166Y221815D01*
X547936Y221785D01*
X547707Y221749D01*
X547479Y221708D01*
X547251Y221661D01*
X547025Y221609D01*
X546800Y221551D01*
X546577Y221488D01*
X546355Y221420D01*
X546135Y221347D01*
X545917Y221268D01*
X545700Y221185D01*
X545486Y221096D01*
X545274Y221002D01*
X545064Y220903D01*
X544856Y220799D01*
X544652Y220690D01*
X544449Y220576D01*
X544250Y220457D01*
X544053Y220334D01*
X543860Y220206D01*
X543669Y220074D01*
X543482Y219937D01*
X551921Y212147D02*
X552044Y212222D01*
X552165Y212300D01*
X552284Y212382D01*
X552400Y212466D01*
X552514Y212554D01*
X552626Y212645D01*
X552736Y212739D01*
X552842Y212836D01*
X552946Y212936D01*
X553047Y213038D01*
X553146Y213144D01*
X553241Y213252D01*
X553334Y213362D01*
X553423Y213475D01*
X553509Y213591D01*
X553593Y213708D01*
X553672Y213828D01*
X553749Y213950D01*
X553822Y214074D01*
X553892Y214200D01*
X553958Y214328D01*
X554021Y214458D01*
X554080Y214589D01*
X554136Y214722D01*
X554188Y214857D01*
X554236Y214993D01*
X554281Y215130D01*
X554321Y215268D01*
X554358Y215407D01*
X554392Y215547D01*
X554421Y215688D01*
X554446Y215830D01*
X554468Y215973D01*
X554486Y216116D01*
X554499Y216259D01*
X554509Y216403D01*
X554515Y216547D01*
X554517Y216691D01*
X544780Y208253D02*
X544657Y208178D01*
X544536Y208100D01*
X544417Y208018D01*
X544301Y207934D01*
X544187Y207846D01*
X544075Y207755D01*
X543966Y207661D01*
X543859Y207564D01*
X543755Y207464D01*
X543654Y207362D01*
X543555Y207256D01*
X543460Y207148D01*
X543367Y207038D01*
X543278Y206925D01*
X543192Y206810D01*
X543109Y206692D01*
X543029Y206572D01*
X542952Y206450D01*
X542879Y206326D01*
X542809Y206200D01*
X542743Y206072D01*
X542680Y205942D01*
X542621Y205811D01*
X542565Y205678D01*
X542513Y205543D01*
X542465Y205407D01*
X542420Y205270D01*
X542380Y205132D01*
X542343Y204993D01*
X542310Y204853D01*
X542280Y204712D01*
X542255Y204570D01*
X542233Y204427D01*
X542215Y204284D01*
X542202Y204141D01*
X542192Y203997D01*
X542186Y203853D01*
X542184Y203709D01*
X544780Y208253D02*
X551920Y212147D01*
X534381Y221884D02*
X534381Y198516D01*
X534381Y214095D02*
X527890Y214095D01*
X527768Y214093D01*
X527645Y214087D01*
X527523Y214078D01*
X527402Y214064D01*
X527281Y214047D01*
X527160Y214026D01*
X527040Y214001D01*
X526921Y213973D01*
X526803Y213940D01*
X526686Y213904D01*
X526571Y213865D01*
X526456Y213821D01*
X526343Y213775D01*
X526232Y213724D01*
X526122Y213670D01*
X526014Y213613D01*
X525907Y213553D01*
X525803Y213489D01*
X525701Y213421D01*
X525601Y213351D01*
X525503Y213278D01*
X525407Y213201D01*
X525314Y213122D01*
X525224Y213039D01*
X525136Y212954D01*
X525051Y212866D01*
X524968Y212776D01*
X524889Y212683D01*
X524812Y212587D01*
X524739Y212489D01*
X524669Y212389D01*
X524601Y212287D01*
X524537Y212183D01*
X524477Y212076D01*
X524420Y211968D01*
X524366Y211858D01*
X524315Y211747D01*
X524269Y211634D01*
X524225Y211519D01*
X524186Y211404D01*
X524150Y211287D01*
X524117Y211169D01*
X524089Y211050D01*
X524064Y210930D01*
X524043Y210809D01*
X524026Y210688D01*
X524012Y210567D01*
X524003Y210445D01*
X523997Y210322D01*
X523995Y210200D01*
X523995Y198516D01*
X515269Y198516D02*
X515269Y214095D01*
X515918Y220586D02*
X515918Y221884D01*
X514620Y221884D01*
X514620Y220586D01*
X515918Y220586D01*
X505920Y217989D02*
X505920Y198516D01*
X505920Y217989D02*
X505918Y218111D01*
X505912Y218234D01*
X505903Y218356D01*
X505889Y218477D01*
X505872Y218598D01*
X505851Y218719D01*
X505826Y218839D01*
X505798Y218958D01*
X505765Y219076D01*
X505729Y219193D01*
X505690Y219308D01*
X505646Y219423D01*
X505600Y219536D01*
X505549Y219647D01*
X505495Y219757D01*
X505438Y219865D01*
X505378Y219972D01*
X505314Y220076D01*
X505246Y220178D01*
X505176Y220278D01*
X505103Y220376D01*
X505026Y220472D01*
X504947Y220565D01*
X504864Y220655D01*
X504779Y220743D01*
X504691Y220828D01*
X504601Y220911D01*
X504508Y220990D01*
X504412Y221067D01*
X504314Y221140D01*
X504214Y221210D01*
X504112Y221278D01*
X504008Y221342D01*
X503901Y221402D01*
X503793Y221459D01*
X503683Y221513D01*
X503572Y221564D01*
X503459Y221610D01*
X503344Y221654D01*
X503229Y221693D01*
X503112Y221729D01*
X502994Y221762D01*
X502875Y221790D01*
X502755Y221815D01*
X502634Y221836D01*
X502513Y221853D01*
X502392Y221867D01*
X502270Y221876D01*
X502147Y221882D01*
X502025Y221884D01*
X500727Y221884D01*
X500727Y214095D02*
X508516Y214095D01*
X496977Y214095D02*
X489187Y214095D01*
X494380Y221884D02*
X494380Y202411D01*
X494381Y202411D02*
X494379Y202289D01*
X494373Y202166D01*
X494364Y202044D01*
X494350Y201923D01*
X494333Y201802D01*
X494312Y201681D01*
X494287Y201561D01*
X494259Y201442D01*
X494226Y201324D01*
X494190Y201207D01*
X494151Y201092D01*
X494107Y200977D01*
X494061Y200864D01*
X494010Y200753D01*
X493956Y200643D01*
X493899Y200535D01*
X493839Y200428D01*
X493775Y200324D01*
X493707Y200222D01*
X493637Y200122D01*
X493564Y200024D01*
X493487Y199928D01*
X493408Y199835D01*
X493325Y199745D01*
X493240Y199657D01*
X493152Y199572D01*
X493062Y199489D01*
X492969Y199410D01*
X492873Y199333D01*
X492775Y199260D01*
X492675Y199190D01*
X492573Y199122D01*
X492469Y199058D01*
X492362Y198998D01*
X492254Y198941D01*
X492144Y198887D01*
X492033Y198836D01*
X491920Y198790D01*
X491805Y198746D01*
X491690Y198707D01*
X491573Y198671D01*
X491455Y198638D01*
X491336Y198610D01*
X491216Y198585D01*
X491095Y198564D01*
X490974Y198547D01*
X490853Y198533D01*
X490731Y198524D01*
X490608Y198518D01*
X490486Y198516D01*
X489187Y198516D01*
X470195Y198516D02*
X470195Y221884D01*
X463704Y221884D01*
X463545Y221882D01*
X463386Y221876D01*
X463226Y221866D01*
X463068Y221853D01*
X462909Y221835D01*
X462752Y221814D01*
X462594Y221788D01*
X462438Y221759D01*
X462282Y221726D01*
X462127Y221689D01*
X461973Y221649D01*
X461820Y221604D01*
X461668Y221556D01*
X461517Y221505D01*
X461368Y221449D01*
X461220Y221390D01*
X461074Y221327D01*
X460929Y221261D01*
X460786Y221191D01*
X460644Y221118D01*
X460505Y221041D01*
X460367Y220961D01*
X460231Y220877D01*
X460098Y220790D01*
X459966Y220700D01*
X459837Y220607D01*
X459711Y220510D01*
X459586Y220411D01*
X459464Y220308D01*
X459345Y220203D01*
X459228Y220094D01*
X459114Y219983D01*
X459003Y219869D01*
X458894Y219752D01*
X458789Y219633D01*
X458686Y219511D01*
X458587Y219386D01*
X458490Y219260D01*
X458397Y219131D01*
X458307Y218999D01*
X458220Y218866D01*
X458136Y218730D01*
X458056Y218592D01*
X457979Y218453D01*
X457906Y218311D01*
X457836Y218168D01*
X457770Y218023D01*
X457707Y217877D01*
X457648Y217729D01*
X457592Y217580D01*
X457541Y217429D01*
X457493Y217277D01*
X457448Y217124D01*
X457408Y216970D01*
X457371Y216815D01*
X457338Y216659D01*
X457309Y216503D01*
X457283Y216345D01*
X457262Y216188D01*
X457244Y216029D01*
X457231Y215871D01*
X457221Y215711D01*
X457215Y215552D01*
X457213Y215393D01*
X457215Y215234D01*
X457221Y215075D01*
X457231Y214915D01*
X457244Y214757D01*
X457262Y214598D01*
X457283Y214441D01*
X457309Y214283D01*
X457338Y214127D01*
X457371Y213971D01*
X457408Y213816D01*
X457448Y213662D01*
X457493Y213509D01*
X457541Y213357D01*
X457592Y213206D01*
X457648Y213057D01*
X457707Y212909D01*
X457770Y212763D01*
X457836Y212618D01*
X457906Y212475D01*
X457979Y212333D01*
X458056Y212194D01*
X458136Y212056D01*
X458220Y211920D01*
X458307Y211787D01*
X458397Y211655D01*
X458490Y211526D01*
X458587Y211400D01*
X458686Y211275D01*
X458789Y211153D01*
X458894Y211034D01*
X459003Y210917D01*
X459114Y210803D01*
X459228Y210692D01*
X459345Y210583D01*
X459464Y210478D01*
X459586Y210375D01*
X459711Y210276D01*
X459837Y210179D01*
X459966Y210086D01*
X460098Y209996D01*
X460231Y209909D01*
X460367Y209825D01*
X460505Y209745D01*
X460644Y209668D01*
X460786Y209595D01*
X460929Y209525D01*
X461074Y209459D01*
X461220Y209396D01*
X461368Y209337D01*
X461517Y209281D01*
X461668Y209230D01*
X461820Y209182D01*
X461973Y209137D01*
X462127Y209097D01*
X462282Y209060D01*
X462438Y209027D01*
X462594Y208998D01*
X462752Y208972D01*
X462909Y208951D01*
X463068Y208933D01*
X463226Y208920D01*
X463386Y208910D01*
X463545Y208904D01*
X463704Y208902D01*
X470195Y208902D01*
X462406Y208902D02*
X457213Y198516D01*
X445579Y198516D02*
X439088Y198516D01*
X445579Y198516D02*
X445701Y198518D01*
X445824Y198524D01*
X445946Y198533D01*
X446067Y198547D01*
X446188Y198564D01*
X446309Y198585D01*
X446429Y198610D01*
X446548Y198638D01*
X446666Y198671D01*
X446783Y198707D01*
X446898Y198746D01*
X447013Y198790D01*
X447126Y198836D01*
X447237Y198887D01*
X447347Y198941D01*
X447455Y198998D01*
X447562Y199058D01*
X447666Y199122D01*
X447768Y199190D01*
X447868Y199260D01*
X447966Y199333D01*
X448062Y199410D01*
X448155Y199489D01*
X448245Y199572D01*
X448333Y199657D01*
X448418Y199745D01*
X448501Y199835D01*
X448580Y199928D01*
X448657Y200024D01*
X448730Y200122D01*
X448800Y200222D01*
X448868Y200324D01*
X448932Y200428D01*
X448992Y200535D01*
X449049Y200643D01*
X449103Y200753D01*
X449154Y200864D01*
X449200Y200977D01*
X449244Y201092D01*
X449283Y201207D01*
X449319Y201324D01*
X449352Y201442D01*
X449380Y201561D01*
X449405Y201681D01*
X449426Y201802D01*
X449443Y201923D01*
X449457Y202044D01*
X449466Y202166D01*
X449472Y202289D01*
X449474Y202411D01*
X449474Y208902D01*
X449472Y209045D01*
X449466Y209188D01*
X449456Y209331D01*
X449442Y209473D01*
X449425Y209615D01*
X449403Y209757D01*
X449378Y209898D01*
X449348Y210038D01*
X449315Y210177D01*
X449278Y210315D01*
X449237Y210452D01*
X449193Y210588D01*
X449144Y210723D01*
X449092Y210856D01*
X449037Y210988D01*
X448977Y211118D01*
X448914Y211247D01*
X448848Y211374D01*
X448778Y211499D01*
X448705Y211621D01*
X448628Y211742D01*
X448548Y211861D01*
X448465Y211977D01*
X448379Y212092D01*
X448290Y212203D01*
X448197Y212313D01*
X448102Y212419D01*
X448003Y212523D01*
X447902Y212624D01*
X447798Y212723D01*
X447692Y212818D01*
X447582Y212911D01*
X447471Y213000D01*
X447356Y213086D01*
X447240Y213169D01*
X447121Y213249D01*
X447000Y213326D01*
X446878Y213399D01*
X446753Y213469D01*
X446626Y213535D01*
X446497Y213598D01*
X446367Y213658D01*
X446235Y213713D01*
X446102Y213765D01*
X445967Y213814D01*
X445831Y213858D01*
X445694Y213899D01*
X445556Y213936D01*
X445417Y213969D01*
X445277Y213999D01*
X445136Y214024D01*
X444994Y214046D01*
X444852Y214063D01*
X444710Y214077D01*
X444567Y214087D01*
X444424Y214093D01*
X444281Y214095D01*
X444138Y214093D01*
X443995Y214087D01*
X443852Y214077D01*
X443710Y214063D01*
X443568Y214046D01*
X443426Y214024D01*
X443285Y213999D01*
X443145Y213969D01*
X443006Y213936D01*
X442868Y213899D01*
X442731Y213858D01*
X442595Y213814D01*
X442460Y213765D01*
X442327Y213713D01*
X442195Y213658D01*
X442065Y213598D01*
X441936Y213535D01*
X441809Y213469D01*
X441685Y213399D01*
X441562Y213326D01*
X441441Y213249D01*
X441322Y213169D01*
X441206Y213086D01*
X441091Y213000D01*
X440980Y212911D01*
X440870Y212818D01*
X440764Y212723D01*
X440660Y212624D01*
X440559Y212523D01*
X440460Y212419D01*
X440365Y212313D01*
X440272Y212203D01*
X440183Y212092D01*
X440097Y211977D01*
X440014Y211861D01*
X439934Y211742D01*
X439857Y211621D01*
X439784Y211499D01*
X439714Y211374D01*
X439648Y211247D01*
X439585Y211118D01*
X439525Y210988D01*
X439470Y210856D01*
X439418Y210723D01*
X439369Y210588D01*
X439325Y210452D01*
X439284Y210315D01*
X439247Y210177D01*
X439214Y210038D01*
X439184Y209898D01*
X439159Y209757D01*
X439137Y209615D01*
X439120Y209473D01*
X439106Y209331D01*
X439096Y209188D01*
X439090Y209045D01*
X439088Y208902D01*
X439088Y206305D01*
X449474Y206305D01*
X427535Y198516D02*
X421044Y198516D01*
X427535Y198516D02*
X427657Y198518D01*
X427780Y198524D01*
X427902Y198533D01*
X428023Y198547D01*
X428144Y198564D01*
X428265Y198585D01*
X428385Y198610D01*
X428504Y198638D01*
X428622Y198671D01*
X428739Y198707D01*
X428854Y198746D01*
X428969Y198790D01*
X429082Y198836D01*
X429193Y198887D01*
X429303Y198941D01*
X429411Y198998D01*
X429518Y199058D01*
X429622Y199122D01*
X429724Y199190D01*
X429824Y199260D01*
X429922Y199333D01*
X430018Y199410D01*
X430111Y199489D01*
X430201Y199572D01*
X430289Y199657D01*
X430374Y199745D01*
X430457Y199835D01*
X430536Y199928D01*
X430613Y200024D01*
X430686Y200122D01*
X430756Y200222D01*
X430824Y200324D01*
X430888Y200428D01*
X430948Y200535D01*
X431005Y200643D01*
X431059Y200753D01*
X431110Y200864D01*
X431156Y200977D01*
X431200Y201092D01*
X431239Y201207D01*
X431275Y201324D01*
X431308Y201442D01*
X431336Y201561D01*
X431361Y201681D01*
X431382Y201802D01*
X431399Y201923D01*
X431413Y202044D01*
X431422Y202166D01*
X431428Y202289D01*
X431430Y202411D01*
X431430Y210200D01*
X431428Y210322D01*
X431422Y210445D01*
X431413Y210567D01*
X431399Y210688D01*
X431382Y210809D01*
X431361Y210930D01*
X431336Y211050D01*
X431308Y211169D01*
X431275Y211287D01*
X431239Y211404D01*
X431200Y211519D01*
X431156Y211634D01*
X431110Y211747D01*
X431059Y211858D01*
X431005Y211968D01*
X430948Y212076D01*
X430888Y212183D01*
X430824Y212287D01*
X430756Y212389D01*
X430686Y212489D01*
X430613Y212587D01*
X430536Y212683D01*
X430457Y212776D01*
X430374Y212866D01*
X430289Y212954D01*
X430201Y213039D01*
X430111Y213122D01*
X430018Y213201D01*
X429922Y213278D01*
X429824Y213351D01*
X429724Y213421D01*
X429622Y213489D01*
X429518Y213553D01*
X429411Y213613D01*
X429303Y213670D01*
X429193Y213724D01*
X429082Y213775D01*
X428969Y213821D01*
X428854Y213865D01*
X428739Y213904D01*
X428622Y213940D01*
X428504Y213973D01*
X428385Y214001D01*
X428265Y214026D01*
X428144Y214047D01*
X428023Y214064D01*
X427902Y214078D01*
X427780Y214087D01*
X427657Y214093D01*
X427535Y214095D01*
X421044Y214095D01*
X421044Y194621D01*
X421046Y194499D01*
X421052Y194376D01*
X421061Y194254D01*
X421075Y194133D01*
X421092Y194012D01*
X421113Y193891D01*
X421138Y193771D01*
X421166Y193652D01*
X421199Y193534D01*
X421235Y193417D01*
X421274Y193302D01*
X421318Y193187D01*
X421364Y193074D01*
X421415Y192963D01*
X421469Y192853D01*
X421526Y192745D01*
X421586Y192638D01*
X421650Y192534D01*
X421718Y192432D01*
X421788Y192332D01*
X421861Y192234D01*
X421938Y192138D01*
X422017Y192045D01*
X422100Y191955D01*
X422185Y191867D01*
X422273Y191782D01*
X422363Y191699D01*
X422456Y191620D01*
X422552Y191543D01*
X422650Y191470D01*
X422750Y191400D01*
X422852Y191332D01*
X422956Y191268D01*
X423063Y191208D01*
X423171Y191151D01*
X423281Y191097D01*
X423392Y191046D01*
X423505Y191000D01*
X423620Y190956D01*
X423735Y190917D01*
X423852Y190881D01*
X423970Y190848D01*
X424089Y190820D01*
X424209Y190795D01*
X424330Y190774D01*
X424451Y190757D01*
X424572Y190743D01*
X424694Y190734D01*
X424817Y190728D01*
X424939Y190726D01*
X424939Y190727D02*
X430132Y190727D01*
X412267Y198516D02*
X412267Y214095D01*
X412916Y220586D02*
X412916Y221884D01*
X411618Y221884D01*
X411618Y220586D01*
X412916Y220586D01*
X402289Y207604D02*
X395798Y205007D01*
X402289Y207604D02*
X402395Y207648D01*
X402500Y207697D01*
X402603Y207749D01*
X402704Y207804D01*
X402804Y207863D01*
X402901Y207925D01*
X402996Y207990D01*
X403088Y208059D01*
X403179Y208131D01*
X403266Y208205D01*
X403352Y208283D01*
X403434Y208364D01*
X403514Y208447D01*
X403590Y208533D01*
X403664Y208622D01*
X403735Y208713D01*
X403802Y208807D01*
X403866Y208903D01*
X403927Y209001D01*
X403985Y209100D01*
X404039Y209202D01*
X404089Y209306D01*
X404136Y209411D01*
X404180Y209518D01*
X404219Y209627D01*
X404255Y209736D01*
X404287Y209847D01*
X404316Y209959D01*
X404340Y210071D01*
X404361Y210185D01*
X404377Y210299D01*
X404390Y210414D01*
X404399Y210529D01*
X404404Y210644D01*
X404405Y210759D01*
X404402Y210874D01*
X404395Y210990D01*
X404384Y211104D01*
X404369Y211219D01*
X404350Y211332D01*
X404328Y211446D01*
X404301Y211558D01*
X404271Y211669D01*
X404237Y211779D01*
X404199Y211888D01*
X404158Y211996D01*
X404112Y212102D01*
X404063Y212206D01*
X404011Y212309D01*
X403955Y212410D01*
X403896Y212509D01*
X403833Y212606D01*
X403767Y212700D01*
X403698Y212793D01*
X403626Y212883D01*
X403551Y212970D01*
X403472Y213055D01*
X403391Y213137D01*
X403307Y213216D01*
X403221Y213292D01*
X403132Y213365D01*
X403040Y213435D01*
X402946Y213502D01*
X402850Y213566D01*
X402752Y213626D01*
X402652Y213683D01*
X402550Y213737D01*
X402446Y213787D01*
X402340Y213833D01*
X402233Y213876D01*
X402124Y213915D01*
X402015Y213950D01*
X401904Y213982D01*
X401792Y214010D01*
X401679Y214034D01*
X401565Y214054D01*
X401451Y214070D01*
X401337Y214082D01*
X401222Y214090D01*
X401106Y214094D01*
X400991Y214095D01*
X400992Y214094D02*
X400637Y214085D01*
X400283Y214067D01*
X399930Y214041D01*
X399577Y214006D01*
X399225Y213963D01*
X398874Y213911D01*
X398525Y213851D01*
X398177Y213782D01*
X397831Y213705D01*
X397487Y213620D01*
X397145Y213527D01*
X396806Y213425D01*
X396469Y213315D01*
X396134Y213198D01*
X395803Y213072D01*
X395475Y212938D01*
X395150Y212796D01*
X395798Y205007D02*
X395692Y204963D01*
X395587Y204914D01*
X395484Y204862D01*
X395383Y204807D01*
X395283Y204748D01*
X395186Y204686D01*
X395091Y204621D01*
X394999Y204552D01*
X394908Y204480D01*
X394821Y204406D01*
X394735Y204328D01*
X394653Y204247D01*
X394573Y204164D01*
X394497Y204078D01*
X394423Y203989D01*
X394352Y203898D01*
X394285Y203804D01*
X394221Y203708D01*
X394160Y203610D01*
X394102Y203511D01*
X394048Y203409D01*
X393998Y203305D01*
X393951Y203200D01*
X393907Y203093D01*
X393868Y202984D01*
X393832Y202875D01*
X393800Y202764D01*
X393771Y202652D01*
X393747Y202540D01*
X393726Y202426D01*
X393710Y202312D01*
X393697Y202197D01*
X393688Y202082D01*
X393683Y201967D01*
X393682Y201852D01*
X393685Y201737D01*
X393692Y201621D01*
X393703Y201507D01*
X393718Y201392D01*
X393737Y201279D01*
X393759Y201165D01*
X393786Y201053D01*
X393816Y200942D01*
X393850Y200832D01*
X393888Y200723D01*
X393929Y200615D01*
X393975Y200509D01*
X394024Y200405D01*
X394076Y200302D01*
X394132Y200201D01*
X394191Y200102D01*
X394254Y200005D01*
X394320Y199911D01*
X394389Y199818D01*
X394461Y199728D01*
X394536Y199641D01*
X394615Y199556D01*
X394696Y199474D01*
X394780Y199395D01*
X394866Y199319D01*
X394955Y199246D01*
X395047Y199176D01*
X395141Y199109D01*
X395237Y199045D01*
X395335Y198985D01*
X395435Y198928D01*
X395537Y198874D01*
X395641Y198824D01*
X395747Y198778D01*
X395854Y198735D01*
X395963Y198696D01*
X396072Y198661D01*
X396183Y198629D01*
X396295Y198601D01*
X396408Y198577D01*
X396522Y198557D01*
X396636Y198541D01*
X396750Y198529D01*
X396865Y198521D01*
X396981Y198517D01*
X397096Y198516D01*
X397617Y198530D01*
X398137Y198556D01*
X398656Y198594D01*
X399175Y198644D01*
X399692Y198707D01*
X400207Y198782D01*
X400720Y198869D01*
X401232Y198968D01*
X401740Y199080D01*
X402246Y199203D01*
X402749Y199338D01*
X403249Y199485D01*
X403745Y199644D01*
X404237Y199814D01*
X387711Y214095D02*
X379922Y214095D01*
X385115Y221884D02*
X385115Y202411D01*
X385113Y202289D01*
X385107Y202166D01*
X385098Y202044D01*
X385084Y201923D01*
X385067Y201802D01*
X385046Y201681D01*
X385021Y201561D01*
X384993Y201442D01*
X384960Y201324D01*
X384924Y201207D01*
X384885Y201092D01*
X384841Y200977D01*
X384795Y200864D01*
X384744Y200753D01*
X384690Y200643D01*
X384633Y200535D01*
X384573Y200428D01*
X384509Y200324D01*
X384441Y200222D01*
X384371Y200122D01*
X384298Y200024D01*
X384221Y199928D01*
X384142Y199835D01*
X384059Y199745D01*
X383974Y199657D01*
X383886Y199572D01*
X383796Y199489D01*
X383703Y199410D01*
X383607Y199333D01*
X383509Y199260D01*
X383409Y199190D01*
X383307Y199122D01*
X383203Y199058D01*
X383096Y198998D01*
X382988Y198941D01*
X382878Y198887D01*
X382767Y198836D01*
X382654Y198790D01*
X382539Y198746D01*
X382424Y198707D01*
X382307Y198671D01*
X382189Y198638D01*
X382070Y198610D01*
X381950Y198585D01*
X381829Y198564D01*
X381708Y198547D01*
X381587Y198533D01*
X381465Y198524D01*
X381342Y198518D01*
X381220Y198516D01*
X379922Y198516D01*
X369024Y198516D02*
X362533Y198516D01*
X369024Y198516D02*
X369146Y198518D01*
X369269Y198524D01*
X369391Y198533D01*
X369512Y198547D01*
X369633Y198564D01*
X369754Y198585D01*
X369874Y198610D01*
X369993Y198638D01*
X370111Y198671D01*
X370228Y198707D01*
X370343Y198746D01*
X370458Y198790D01*
X370571Y198836D01*
X370682Y198887D01*
X370792Y198941D01*
X370900Y198998D01*
X371007Y199058D01*
X371111Y199122D01*
X371213Y199190D01*
X371313Y199260D01*
X371411Y199333D01*
X371507Y199410D01*
X371600Y199489D01*
X371690Y199572D01*
X371778Y199657D01*
X371863Y199745D01*
X371946Y199835D01*
X372025Y199928D01*
X372102Y200024D01*
X372175Y200122D01*
X372245Y200222D01*
X372313Y200324D01*
X372377Y200428D01*
X372437Y200535D01*
X372494Y200643D01*
X372548Y200753D01*
X372599Y200864D01*
X372645Y200977D01*
X372689Y201092D01*
X372728Y201207D01*
X372764Y201324D01*
X372797Y201442D01*
X372825Y201561D01*
X372850Y201681D01*
X372871Y201802D01*
X372888Y201923D01*
X372902Y202044D01*
X372911Y202166D01*
X372917Y202289D01*
X372919Y202411D01*
X372919Y208902D01*
X372917Y209045D01*
X372911Y209188D01*
X372901Y209331D01*
X372887Y209473D01*
X372870Y209615D01*
X372848Y209757D01*
X372823Y209898D01*
X372793Y210038D01*
X372760Y210177D01*
X372723Y210315D01*
X372682Y210452D01*
X372638Y210588D01*
X372589Y210723D01*
X372537Y210856D01*
X372482Y210988D01*
X372422Y211118D01*
X372359Y211247D01*
X372293Y211374D01*
X372223Y211499D01*
X372150Y211621D01*
X372073Y211742D01*
X371993Y211861D01*
X371910Y211977D01*
X371824Y212092D01*
X371735Y212203D01*
X371642Y212313D01*
X371547Y212419D01*
X371448Y212523D01*
X371347Y212624D01*
X371243Y212723D01*
X371137Y212818D01*
X371027Y212911D01*
X370916Y213000D01*
X370801Y213086D01*
X370685Y213169D01*
X370566Y213249D01*
X370445Y213326D01*
X370323Y213399D01*
X370198Y213469D01*
X370071Y213535D01*
X369942Y213598D01*
X369812Y213658D01*
X369680Y213713D01*
X369547Y213765D01*
X369412Y213814D01*
X369276Y213858D01*
X369139Y213899D01*
X369001Y213936D01*
X368862Y213969D01*
X368722Y213999D01*
X368581Y214024D01*
X368439Y214046D01*
X368297Y214063D01*
X368155Y214077D01*
X368012Y214087D01*
X367869Y214093D01*
X367726Y214095D01*
X367583Y214093D01*
X367440Y214087D01*
X367297Y214077D01*
X367155Y214063D01*
X367013Y214046D01*
X366871Y214024D01*
X366730Y213999D01*
X366590Y213969D01*
X366451Y213936D01*
X366313Y213899D01*
X366176Y213858D01*
X366040Y213814D01*
X365905Y213765D01*
X365772Y213713D01*
X365640Y213658D01*
X365510Y213598D01*
X365381Y213535D01*
X365254Y213469D01*
X365130Y213399D01*
X365007Y213326D01*
X364886Y213249D01*
X364767Y213169D01*
X364651Y213086D01*
X364536Y213000D01*
X364425Y212911D01*
X364315Y212818D01*
X364209Y212723D01*
X364105Y212624D01*
X364004Y212523D01*
X363905Y212419D01*
X363810Y212313D01*
X363717Y212203D01*
X363628Y212092D01*
X363542Y211977D01*
X363459Y211861D01*
X363379Y211742D01*
X363302Y211621D01*
X363229Y211499D01*
X363159Y211374D01*
X363093Y211247D01*
X363030Y211118D01*
X362970Y210988D01*
X362915Y210856D01*
X362863Y210723D01*
X362814Y210588D01*
X362770Y210452D01*
X362729Y210315D01*
X362692Y210177D01*
X362659Y210038D01*
X362629Y209898D01*
X362604Y209757D01*
X362582Y209615D01*
X362565Y209473D01*
X362551Y209331D01*
X362541Y209188D01*
X362535Y209045D01*
X362533Y208902D01*
X362533Y206305D01*
X372919Y206305D01*
X354064Y198516D02*
X354064Y214095D01*
X346275Y214095D01*
X346275Y211498D01*
X328980Y219288D02*
X328980Y221884D01*
X315997Y221884D01*
X322489Y198516D01*
X308101Y203709D02*
X302908Y221884D01*
X308101Y203709D02*
X295119Y203709D01*
X299013Y208902D02*
X299013Y198516D01*
X287222Y198516D02*
X279433Y198516D01*
X279290Y198518D01*
X279147Y198524D01*
X279004Y198534D01*
X278862Y198548D01*
X278720Y198565D01*
X278578Y198587D01*
X278437Y198612D01*
X278297Y198642D01*
X278158Y198675D01*
X278020Y198712D01*
X277883Y198753D01*
X277747Y198797D01*
X277612Y198846D01*
X277479Y198898D01*
X277347Y198953D01*
X277217Y199013D01*
X277088Y199076D01*
X276961Y199142D01*
X276837Y199212D01*
X276714Y199285D01*
X276593Y199362D01*
X276474Y199441D01*
X276358Y199525D01*
X276243Y199611D01*
X276132Y199700D01*
X276023Y199793D01*
X275916Y199888D01*
X275812Y199987D01*
X275711Y200088D01*
X275612Y200192D01*
X275517Y200298D01*
X275424Y200408D01*
X275335Y200519D01*
X275249Y200633D01*
X275166Y200750D01*
X275086Y200869D01*
X275009Y200990D01*
X274936Y201112D01*
X274866Y201237D01*
X274800Y201364D01*
X274737Y201493D01*
X274677Y201623D01*
X274622Y201755D01*
X274570Y201888D01*
X274521Y202023D01*
X274477Y202159D01*
X274436Y202296D01*
X274399Y202434D01*
X274366Y202573D01*
X274336Y202713D01*
X274311Y202854D01*
X274289Y202996D01*
X274272Y203138D01*
X274258Y203280D01*
X274248Y203423D01*
X274242Y203566D01*
X274240Y203709D01*
X274240Y206305D01*
X274242Y206448D01*
X274248Y206591D01*
X274258Y206734D01*
X274272Y206876D01*
X274289Y207018D01*
X274311Y207160D01*
X274336Y207301D01*
X274366Y207441D01*
X274399Y207580D01*
X274436Y207718D01*
X274477Y207855D01*
X274521Y207991D01*
X274570Y208126D01*
X274622Y208259D01*
X274677Y208391D01*
X274737Y208521D01*
X274800Y208650D01*
X274866Y208777D01*
X274936Y208902D01*
X275009Y209024D01*
X275086Y209145D01*
X275166Y209264D01*
X275249Y209380D01*
X275335Y209495D01*
X275424Y209606D01*
X275517Y209716D01*
X275612Y209822D01*
X275711Y209926D01*
X275812Y210027D01*
X275916Y210126D01*
X276022Y210221D01*
X276132Y210314D01*
X276243Y210403D01*
X276358Y210489D01*
X276474Y210573D01*
X276593Y210652D01*
X276714Y210729D01*
X276837Y210802D01*
X276961Y210872D01*
X277088Y210938D01*
X277217Y211001D01*
X277347Y211061D01*
X277479Y211116D01*
X277612Y211168D01*
X277747Y211217D01*
X277883Y211261D01*
X278020Y211302D01*
X278158Y211339D01*
X278297Y211372D01*
X278437Y211402D01*
X278578Y211427D01*
X278720Y211449D01*
X278862Y211466D01*
X279004Y211480D01*
X279147Y211490D01*
X279290Y211496D01*
X279433Y211498D01*
X287222Y211498D01*
X287222Y221884D01*
X274240Y221884D01*
X261150Y208902D02*
X253361Y208902D01*
X261150Y208902D02*
X261293Y208904D01*
X261436Y208910D01*
X261579Y208920D01*
X261721Y208934D01*
X261863Y208951D01*
X262005Y208973D01*
X262146Y208998D01*
X262286Y209028D01*
X262425Y209061D01*
X262563Y209098D01*
X262700Y209139D01*
X262836Y209183D01*
X262971Y209232D01*
X263104Y209284D01*
X263236Y209339D01*
X263366Y209399D01*
X263495Y209462D01*
X263622Y209528D01*
X263747Y209598D01*
X263869Y209671D01*
X263990Y209748D01*
X264109Y209828D01*
X264225Y209911D01*
X264340Y209997D01*
X264451Y210086D01*
X264561Y210179D01*
X264667Y210274D01*
X264771Y210373D01*
X264872Y210474D01*
X264971Y210578D01*
X265066Y210684D01*
X265159Y210794D01*
X265248Y210905D01*
X265334Y211020D01*
X265418Y211136D01*
X265497Y211255D01*
X265574Y211376D01*
X265647Y211499D01*
X265717Y211623D01*
X265783Y211750D01*
X265846Y211879D01*
X265906Y212009D01*
X265961Y212141D01*
X266013Y212274D01*
X266062Y212409D01*
X266106Y212545D01*
X266147Y212682D01*
X266184Y212820D01*
X266217Y212959D01*
X266247Y213099D01*
X266272Y213240D01*
X266294Y213382D01*
X266311Y213524D01*
X266325Y213666D01*
X266335Y213809D01*
X266341Y213952D01*
X266343Y214095D01*
X266343Y215393D01*
X266341Y215552D01*
X266335Y215711D01*
X266325Y215871D01*
X266312Y216029D01*
X266294Y216188D01*
X266273Y216345D01*
X266247Y216503D01*
X266218Y216659D01*
X266185Y216815D01*
X266148Y216970D01*
X266108Y217124D01*
X266063Y217277D01*
X266015Y217429D01*
X265964Y217580D01*
X265908Y217729D01*
X265849Y217877D01*
X265786Y218023D01*
X265720Y218168D01*
X265650Y218311D01*
X265577Y218453D01*
X265500Y218592D01*
X265420Y218730D01*
X265336Y218866D01*
X265249Y218999D01*
X265159Y219131D01*
X265066Y219260D01*
X264969Y219386D01*
X264870Y219511D01*
X264767Y219633D01*
X264662Y219752D01*
X264553Y219869D01*
X264442Y219983D01*
X264328Y220094D01*
X264211Y220203D01*
X264092Y220308D01*
X263970Y220411D01*
X263845Y220510D01*
X263719Y220607D01*
X263590Y220700D01*
X263458Y220790D01*
X263325Y220877D01*
X263189Y220961D01*
X263051Y221041D01*
X262912Y221118D01*
X262770Y221191D01*
X262627Y221261D01*
X262482Y221327D01*
X262336Y221390D01*
X262188Y221449D01*
X262039Y221505D01*
X261888Y221556D01*
X261736Y221604D01*
X261583Y221649D01*
X261429Y221689D01*
X261274Y221726D01*
X261118Y221759D01*
X260962Y221788D01*
X260804Y221814D01*
X260647Y221835D01*
X260488Y221853D01*
X260330Y221866D01*
X260170Y221876D01*
X260011Y221882D01*
X259852Y221884D01*
X259693Y221882D01*
X259534Y221876D01*
X259374Y221866D01*
X259216Y221853D01*
X259057Y221835D01*
X258900Y221814D01*
X258742Y221788D01*
X258586Y221759D01*
X258430Y221726D01*
X258275Y221689D01*
X258121Y221649D01*
X257968Y221604D01*
X257816Y221556D01*
X257665Y221505D01*
X257516Y221449D01*
X257368Y221390D01*
X257222Y221327D01*
X257077Y221261D01*
X256934Y221191D01*
X256792Y221118D01*
X256653Y221041D01*
X256515Y220961D01*
X256379Y220877D01*
X256246Y220790D01*
X256114Y220700D01*
X255985Y220607D01*
X255859Y220510D01*
X255734Y220411D01*
X255612Y220308D01*
X255493Y220203D01*
X255376Y220094D01*
X255262Y219983D01*
X255151Y219869D01*
X255042Y219752D01*
X254937Y219633D01*
X254834Y219511D01*
X254735Y219386D01*
X254638Y219260D01*
X254545Y219131D01*
X254455Y218999D01*
X254368Y218866D01*
X254284Y218730D01*
X254204Y218592D01*
X254127Y218453D01*
X254054Y218311D01*
X253984Y218168D01*
X253918Y218023D01*
X253855Y217877D01*
X253796Y217729D01*
X253740Y217580D01*
X253689Y217429D01*
X253641Y217277D01*
X253596Y217124D01*
X253556Y216970D01*
X253519Y216815D01*
X253486Y216659D01*
X253457Y216503D01*
X253431Y216345D01*
X253410Y216188D01*
X253392Y216029D01*
X253379Y215871D01*
X253369Y215711D01*
X253363Y215552D01*
X253361Y215393D01*
X253361Y208902D01*
X253364Y208651D01*
X253373Y208400D01*
X253388Y208150D01*
X253409Y207900D01*
X253437Y207650D01*
X253470Y207401D01*
X253509Y207153D01*
X253554Y206907D01*
X253606Y206661D01*
X253663Y206416D01*
X253726Y206174D01*
X253795Y205932D01*
X253869Y205693D01*
X253950Y205455D01*
X254036Y205219D01*
X254128Y204985D01*
X254225Y204754D01*
X254328Y204525D01*
X254437Y204299D01*
X254551Y204075D01*
X254670Y203855D01*
X254795Y203637D01*
X254924Y203422D01*
X255059Y203210D01*
X255199Y203002D01*
X255345Y202797D01*
X255495Y202596D01*
X255649Y202398D01*
X255809Y202205D01*
X255973Y202015D01*
X256142Y201829D01*
X256315Y201647D01*
X256492Y201470D01*
X256674Y201297D01*
X256860Y201128D01*
X257050Y200964D01*
X257243Y200804D01*
X257441Y200650D01*
X257642Y200500D01*
X257847Y200354D01*
X258055Y200214D01*
X258267Y200079D01*
X258482Y199950D01*
X258700Y199825D01*
X258920Y199706D01*
X259144Y199592D01*
X259370Y199483D01*
X259599Y199380D01*
X259831Y199283D01*
X260064Y199191D01*
X260300Y199105D01*
X260538Y199024D01*
X260777Y198950D01*
X261019Y198881D01*
X261261Y198818D01*
X261506Y198761D01*
X261752Y198709D01*
X261998Y198664D01*
X262246Y198625D01*
X262495Y198592D01*
X262745Y198564D01*
X262995Y198543D01*
X263245Y198528D01*
X263496Y198519D01*
X263747Y198516D01*
X245464Y198516D02*
X237675Y198516D01*
X237532Y198518D01*
X237389Y198524D01*
X237246Y198534D01*
X237104Y198548D01*
X236962Y198565D01*
X236820Y198587D01*
X236679Y198612D01*
X236539Y198642D01*
X236400Y198675D01*
X236262Y198712D01*
X236125Y198753D01*
X235989Y198797D01*
X235854Y198846D01*
X235721Y198898D01*
X235589Y198953D01*
X235459Y199013D01*
X235330Y199076D01*
X235203Y199142D01*
X235079Y199212D01*
X234956Y199285D01*
X234835Y199362D01*
X234716Y199441D01*
X234600Y199525D01*
X234485Y199611D01*
X234374Y199700D01*
X234265Y199793D01*
X234158Y199888D01*
X234054Y199987D01*
X233953Y200088D01*
X233854Y200192D01*
X233759Y200298D01*
X233666Y200408D01*
X233577Y200519D01*
X233491Y200633D01*
X233408Y200750D01*
X233328Y200869D01*
X233251Y200990D01*
X233178Y201112D01*
X233108Y201237D01*
X233042Y201364D01*
X232979Y201493D01*
X232919Y201623D01*
X232864Y201755D01*
X232812Y201888D01*
X232763Y202023D01*
X232719Y202159D01*
X232678Y202296D01*
X232641Y202434D01*
X232608Y202573D01*
X232578Y202713D01*
X232553Y202854D01*
X232531Y202996D01*
X232514Y203138D01*
X232500Y203280D01*
X232490Y203423D01*
X232484Y203566D01*
X232482Y203709D01*
X232482Y206305D01*
X232484Y206448D01*
X232490Y206591D01*
X232500Y206734D01*
X232514Y206876D01*
X232531Y207018D01*
X232553Y207160D01*
X232578Y207301D01*
X232608Y207441D01*
X232641Y207580D01*
X232678Y207718D01*
X232719Y207855D01*
X232763Y207991D01*
X232812Y208126D01*
X232864Y208259D01*
X232919Y208391D01*
X232979Y208521D01*
X233042Y208650D01*
X233108Y208777D01*
X233178Y208902D01*
X233251Y209024D01*
X233328Y209145D01*
X233408Y209264D01*
X233491Y209380D01*
X233577Y209495D01*
X233666Y209606D01*
X233759Y209716D01*
X233854Y209822D01*
X233953Y209926D01*
X234054Y210027D01*
X234158Y210126D01*
X234264Y210221D01*
X234374Y210314D01*
X234485Y210403D01*
X234600Y210489D01*
X234716Y210573D01*
X234835Y210652D01*
X234956Y210729D01*
X235079Y210802D01*
X235203Y210872D01*
X235330Y210938D01*
X235459Y211001D01*
X235589Y211061D01*
X235721Y211116D01*
X235854Y211168D01*
X235989Y211217D01*
X236125Y211261D01*
X236262Y211302D01*
X236400Y211339D01*
X236539Y211372D01*
X236679Y211402D01*
X236820Y211427D01*
X236962Y211449D01*
X237104Y211466D01*
X237246Y211480D01*
X237389Y211490D01*
X237532Y211496D01*
X237675Y211498D01*
X245464Y211498D01*
X245464Y221884D01*
X232482Y221884D01*
M02*
